<svg xmlns="http://www.w3.org/2000/svg" xmlns:xlink="http://www.w3.org/1999/xlink" width="1080" zoomAndPan="magnify" viewBox="0 0 810 809.999993" height="1080" preserveAspectRatio="xMidYMid meet" version="1.0"><rect x="-81" width="972" fill="#ffffff" y="-80.999999" height="971.999992" fill-opacity="1"/><rect x="-81" width="972" fill="#ffffff" y="-80.999999" height="971.999992" fill-opacity="1"/><path fill="#0047ab" d="M 405.039062 473.703125 C 468.078125 473.703125 519.375 422.410156 519.375 359.367188 C 519.375 296.316406 468.078125 245.027344 405.039062 245.027344 C 341.992188 245.027344 290.699219 296.316406 290.699219 359.367188 C 290.699219 422.410156 341.992188 473.703125 405.039062 473.703125 " fill-opacity="1" fill-rule="nonzero"/><path fill="#0047ab" d="M 302.703125 86.605469 L 359.148438 127.617188 L 337.589844 193.980469 C 336.523438 197.25 337.691406 200.832031 340.472656 202.847656 C 343.257812 204.875 347.023438 204.875 349.8125 202.847656 L 406.257812 161.847656 L 462.703125 202.847656 C 464.09375 203.867188 465.734375 204.367188 467.371094 204.367188 C 469.007812 204.367188 470.644531 203.867188 472.042969 202.847656 C 474.824219 200.832031 475.988281 197.25 474.925781 193.980469 L 453.363281 127.617188 L 509.8125 86.605469 C 512.59375 84.582031 513.757812 81 512.695312 77.726562 C 511.632812 74.457031 508.582031 72.238281 505.144531 72.238281 L 435.367188 72.238281 L 413.8125 5.886719 C 412.75 2.613281 409.699219 0.398438 406.257812 0.398438 C 402.816406 0.398438 399.765625 2.613281 398.703125 5.886719 L 377.140625 72.238281 L 307.371094 72.238281 C 303.929688 72.238281 300.882812 74.457031 299.816406 77.726562 C 298.753906 81 299.921875 84.582031 302.703125 86.605469 " fill-opacity="1" fill-rule="nonzero"/><path fill="#0047ab" d="M 523.339844 144.183594 L 561.316406 171.773438 L 546.808594 216.421875 C 545.742188 219.695312 546.910156 223.273438 549.695312 225.300781 C 552.476562 227.320312 556.246094 227.320312 559.027344 225.300781 L 597.003906 197.703125 L 634.984375 225.300781 C 636.371094 226.308594 638.015625 226.816406 639.65625 226.816406 C 641.289062 226.816406 642.925781 226.308594 644.324219 225.300781 C 647.105469 223.273438 648.269531 219.695312 647.207031 216.421875 L 632.707031 171.773438 L 670.679688 144.183594 C 673.460938 142.160156 674.628906 138.578125 673.566406 135.304688 C 672.5 132.035156 669.453125 129.816406 666.011719 129.816406 L 619.070312 129.816406 L 604.558594 85.167969 C 603.496094 81.894531 600.445312 79.679688 597.003906 79.679688 C 593.566406 79.679688 590.519531 81.894531 589.453125 85.167969 L 574.953125 129.816406 L 528.007812 129.816406 C 524.5625 129.816406 521.511719 132.035156 520.453125 135.304688 C 519.390625 138.578125 520.550781 142.160156 523.339844 144.183594 " fill-opacity="1" fill-rule="nonzero"/><path fill="#0047ab" d="M 139.398438 144.183594 L 177.375 171.773438 L 162.867188 216.421875 C 161.804688 219.695312 162.96875 223.273438 165.753906 225.300781 C 168.535156 227.320312 172.304688 227.320312 175.089844 225.300781 L 213.066406 197.703125 L 251.042969 225.300781 C 252.4375 226.308594 254.074219 226.816406 255.714844 226.816406 C 257.351562 226.816406 258.988281 226.308594 260.382812 225.300781 C 263.164062 223.273438 264.328125 219.695312 263.265625 216.421875 L 248.761719 171.773438 L 286.738281 144.183594 C 289.523438 142.160156 290.6875 138.578125 289.625 135.304688 C 288.558594 132.035156 285.511719 129.816406 282.070312 129.816406 L 235.125 129.816406 L 220.621094 85.167969 C 219.554688 81.894531 216.507812 79.679688 213.066406 79.679688 C 209.625 79.679688 206.578125 81.894531 205.515625 85.167969 L 191.007812 129.816406 L 144.066406 129.816406 C 140.625 129.816406 137.574219 132.035156 136.511719 135.304688 C 135.449219 138.578125 136.613281 142.160156 139.398438 144.183594 " fill-opacity="1" fill-rule="nonzero"/><path fill="#0047ab" d="M 678.671875 238.867188 C 675.921875 235.449219 670.917969 234.910156 667.503906 237.660156 C 664.089844 240.414062 663.550781 245.410156 666.296875 248.824219 C 717.800781 312.78125 743.867188 393.375 739.6875 475.753906 C 735.550781 557.550781 701.757812 634.582031 644.464844 693.085938 C 640.335938 611.789062 572.894531 546.921875 490.585938 546.921875 L 319.488281 546.921875 C 237.183594 546.921875 169.738281 611.789062 165.609375 693.085938 C 108.320312 634.582031 74.527344 557.550781 70.382812 475.753906 C 66.207031 393.375 92.273438 312.78125 143.773438 248.824219 C 146.523438 245.410156 145.984375 240.414062 142.570312 237.660156 C 139.15625 234.910156 134.152344 235.449219 131.402344 238.867188 C 77.453125 305.855469 50.148438 390.277344 54.519531 476.566406 C 58.925781 563.476562 95.265625 645.273438 156.863281 706.867188 C 190.363281 740.367188 229.425781 766.304688 272.972656 783.964844 C 315.023438 801.019531 359.457031 809.667969 405.039062 809.667969 C 450.617188 809.667969 495.050781 801.019531 537.101562 783.964844 C 580.648438 766.304688 619.710938 740.367188 653.207031 706.867188 C 714.808594 645.273438 751.148438 563.476562 755.554688 476.566406 C 759.921875 390.277344 732.621094 305.855469 678.671875 238.867188 " fill-opacity="1" fill-rule="nonzero"/></svg>