<svg xmlns="http://www.w3.org/2000/svg" xmlns:xlink="http://www.w3.org/1999/xlink" width="1080" zoomAndPan="magnify" viewBox="0 0 810 809.999993" height="1080" preserveAspectRatio="xMidYMid meet" version="1.0"><defs><clipPath id="a92127c530"><path d="M 53.15625 80 L 211 80 L 211 810 L 53.15625 810 Z M 53.15625 80 " clip-rule="nonzero"/></clipPath></defs><rect x="-81" width="972" fill="#ffffff" y="-80.999999" height="971.999992" fill-opacity="1"/><rect x="-81" width="972" fill="#ffffff" y="-80.999999" height="971.999992" fill-opacity="1"/><g clip-path="url(#a92127c530)"><path fill="#0047ab" d="M 149.308594 810 C 147.015625 810 144.71875 809.460938 142.695312 808.246094 C 136.214844 804.601562 133.921875 796.363281 137.566406 789.886719 L 165.644531 740.339844 C 188.863281 699.164062 189.808594 649.621094 168.210938 607.636719 L 89.234375 454.410156 C 65.746094 410.265625 53.324219 360.449219 53.324219 310.5 C 53.324219 224.910156 89.910156 142.15625 153.496094 83.566406 C 158.894531 78.570312 167.535156 78.839844 172.53125 84.375 C 177.523438 89.910156 177.253906 98.414062 171.71875 103.410156 C 112.726562 157.679688 80.191406 231.253906 80.191406 310.363281 C 80.191406 355.859375 91.53125 401.21875 112.996094 441.71875 L 192.105469 595.078125 C 217.890625 645.164062 216.675781 704.296875 189 753.433594 L 160.921875 802.980469 C 158.488281 807.300781 153.898438 809.863281 149.175781 809.863281 Z M 149.308594 810 " fill-opacity="1" fill-rule="nonzero"/></g><path fill="#0047ab" d="M 479.25 810 C 471.824219 810 465.75 803.925781 465.75 796.5 L 465.75 729 C 465.75 714.148438 478.035156 702 493.019531 702 L 542.835938 702 C 552.960938 702 562.410156 698.488281 569.429688 692.144531 C 576.046875 686.203125 582.660156 679.183594 589.546875 670.816406 C 594.269531 665.011719 602.773438 664.199219 608.578125 668.925781 C 614.386719 673.648438 615.195312 682.15625 610.46875 687.960938 C 602.640625 697.546875 595.214844 705.375 587.519531 712.261719 C 575.503906 723.058594 559.710938 729.136719 542.835938 729.136719 L 493.019531 729.136719 L 492.75 796.636719 C 492.75 804.058594 486.675781 810.136719 479.25 810.136719 Z M 479.25 810 " fill-opacity="1" fill-rule="nonzero"/><path fill="#0047ab" d="M 629.640625 646.109375 C 627.613281 646.109375 625.453125 645.703125 623.566406 644.625 C 616.949219 641.25 614.25 633.148438 617.625 626.398438 C 651.511719 559.84375 658.261719 485.460938 658.261719 484.785156 C 658.800781 477.765625 664.738281 472.363281 671.761719 472.363281 L 728.054688 472.363281 L 668.386719 387.585938 C 658.933594 374.085938 654.75 357.613281 656.503906 341.011719 C 657.585938 331.425781 658.125 321.164062 658.125 310.363281 C 658.125 154.035156 528.523438 26.863281 369.226562 26.863281 C 313.605469 26.863281 259.738281 42.390625 213.03125 71.820312 C 206.820312 75.871094 198.449219 73.980469 194.398438 67.636719 C 190.484375 61.289062 192.375 53.054688 198.585938 49.003906 C 249.480469 16.875 308.476562 0 369.089844 0 C 543.238281 0 684.988281 139.320312 684.988281 310.5 C 684.988281 322.378906 684.316406 333.71875 683.101562 344.25 C 682.019531 354.105469 684.449219 364.09375 690.121094 372.195312 L 750.058594 457.109375 C 755.863281 465.34375 756.539062 476.011719 751.816406 484.921875 C 747.089844 493.964844 737.910156 499.5 727.648438 499.5 L 683.371094 499.5 C 679.996094 524.476562 669.464844 583.335938 641.25 638.683594 C 638.820312 643.410156 634.09375 646.109375 629.234375 646.109375 Z M 629.640625 646.109375 " fill-opacity="1" fill-rule="nonzero"/><path fill="#0047ab" d="M 363.824219 351 C 361.394531 351 358.964844 350.324219 356.804688 348.976562 C 353.835938 347.085938 282.824219 303.074219 282.824219 222.75 C 282.824219 142.425781 353.835938 98.28125 356.804688 96.523438 C 361.125 93.960938 366.523438 93.960938 370.84375 96.523438 C 373.816406 98.414062 444.824219 142.425781 444.824219 222.75 C 444.824219 303.074219 373.816406 347.21875 370.84375 348.976562 C 368.683594 350.324219 366.253906 351 363.824219 351 Z M 363.824219 124.46875 C 347.761719 136.753906 309.824219 171.179688 309.824219 222.75 C 309.824219 274.320312 347.761719 308.746094 363.824219 321.03125 C 379.890625 308.746094 417.824219 274.320312 417.824219 222.75 C 417.824219 171.179688 379.890625 136.753906 363.824219 124.46875 Z M 363.824219 124.46875 " fill-opacity="1" fill-rule="nonzero"/><path fill="#0047ab" d="M 330.75 354.375 C 301.183594 354.375 259.066406 347.355469 225.449219 313.738281 C 168.613281 256.769531 187.648438 175.5 188.460938 171.988281 C 189.675781 167.128906 193.453125 163.214844 198.316406 162.136719 C 200.746094 161.59375 256.230469 148.363281 307.933594 175.636719 C 314.550781 179.144531 317.113281 187.246094 313.605469 193.859375 C 310.09375 200.476562 301.996094 203.039062 295.378906 199.53125 C 263.386719 182.65625 228.824219 184.816406 213.164062 186.976562 C 210.464844 206.953125 207.898438 258.253906 244.351562 294.703125 C 290.386719 340.605469 359.910156 324.675781 360.585938 324.40625 C 367.875 322.648438 375.164062 327.105469 376.921875 334.394531 C 378.675781 341.683594 374.21875 348.976562 367.066406 350.730469 C 365.714844 351.136719 351.269531 354.511719 330.75 354.511719 Z M 330.75 354.375 " fill-opacity="1" fill-rule="nonzero"/><path fill="#0047ab" d="M 249.074219 418.5 C 168.75 418.5 124.605469 347.488281 122.851562 344.519531 C 120.285156 340.199219 120.285156 334.800781 122.851562 330.480469 C 124.066406 328.453125 154.171875 279.71875 209.925781 262.441406 C 217.078125 260.144531 224.640625 264.195312 226.800781 271.351562 C 228.960938 278.503906 225.046875 286.066406 217.890625 288.226562 C 183.734375 298.890625 160.515625 324.808594 150.929688 337.363281 C 163.214844 353.429688 197.640625 391.363281 249.210938 391.363281 C 314.550781 391.363281 352.078125 331.019531 352.484375 330.34375 C 356.398438 324 364.636719 321.976562 370.980469 325.890625 C 377.324219 329.804688 379.351562 338.039062 375.433594 344.386719 C 373.546875 347.355469 329.535156 418.363281 249.074219 418.363281 Z M 249.074219 418.5 " fill-opacity="1" fill-rule="nonzero"/><path fill="#0047ab" d="M 478.574219 418.5 C 398.25 418.5 354.105469 347.488281 352.351562 344.519531 C 348.433594 338.175781 350.460938 329.804688 356.804688 326.023438 C 363.148438 322.109375 371.519531 324.136719 375.300781 330.480469 C 375.703125 331.019531 413.503906 391.5 478.574219 391.5 C 530.414062 391.5 564.703125 353.566406 576.855469 337.5 C 567.269531 324.945312 544.050781 298.890625 509.761719 288.226562 C 502.605469 286.066406 498.691406 278.503906 500.851562 271.351562 C 503.011719 264.195312 510.570312 260.144531 517.726562 262.441406 C 573.480469 279.71875 603.585938 328.320312 604.800781 330.480469 C 607.363281 334.800781 607.363281 340.199219 604.800781 344.519531 C 602.910156 347.488281 558.898438 418.5 478.574219 418.5 Z M 478.574219 418.5 " fill-opacity="1" fill-rule="nonzero"/><path fill="#0047ab" d="M 396.898438 354.375 C 376.378906 354.375 361.933594 351 360.585938 350.59375 C 353.296875 348.839844 348.839844 341.550781 350.730469 334.261719 C 352.484375 326.96875 359.910156 322.515625 367.066406 324.40625 C 367.738281 324.539062 437.265625 340.605469 483.300781 294.570312 C 519.75 258.121094 517.183594 206.820312 514.484375 186.839844 C 498.824219 184.679688 464.128906 182.65625 432.269531 199.394531 C 425.65625 202.90625 417.554688 200.339844 414.046875 193.726562 C 410.535156 187.109375 413.101562 179.011719 419.714844 175.5 C 471.421875 148.363281 527.039062 161.460938 529.335938 162 C 534.195312 163.214844 537.976562 166.996094 539.191406 171.855469 C 540 175.230469 559.171875 256.5 502.335938 313.46875 C 468.71875 347.085938 426.464844 354.105469 396.898438 354.105469 Z M 396.898438 354.375 " fill-opacity="1" fill-rule="nonzero"/></svg>