<svg xmlns="http://www.w3.org/2000/svg" xmlns:xlink="http://www.w3.org/1999/xlink" width="1080" zoomAndPan="magnify" viewBox="0 0 810 809.999993" height="1080" preserveAspectRatio="xMidYMid meet" version="1.0"><rect x="-81" width="972" fill="#ffffff" y="-80.999999" height="971.999992" fill-opacity="1"/><rect x="-81" width="972" fill="#ffffff" y="-80.999999" height="971.999992" fill-opacity="1"/><path fill="#0047ab" d="M 772.183594 335.746094 C 753.957031 324.050781 747.679688 300.660156 757.601562 281.375 C 770.460938 256.363281 769.804688 226.851562 755.679688 202.5 C 741.605469 178.148438 716.445312 162.757812 688.296875 161.390625 C 666.628906 160.328125 649.570312 143.269531 648.507812 121.601562 C 647.140625 93.503906 631.800781 68.292969 607.398438 54.21875 C 582.996094 40.144531 553.535156 39.4375 528.523438 52.296875 C 509.289062 62.21875 485.898438 55.941406 474.152344 37.714844 C 459.015625 14.125 433.148438 0 405 0 C 376.851562 0 350.984375 14.125 335.746094 37.816406 C 324.050781 56.042969 300.660156 62.320312 281.375 52.398438 C 256.363281 39.488281 226.851562 40.195312 202.5 54.269531 C 178.148438 68.34375 162.757812 93.503906 161.390625 121.652344 C 160.328125 143.320312 143.269531 160.378906 121.601562 161.441406 C 93.503906 162.808594 68.292969 178.148438 54.21875 202.550781 C 40.144531 226.902344 39.4375 256.414062 52.296875 281.425781 C 62.21875 300.660156 55.941406 324.050781 37.714844 335.796875 C 14.125 350.984375 0 376.851562 0 405 C 0 433.148438 14.125 459.015625 37.816406 474.253906 C 56.042969 485.949219 62.320312 509.339844 52.398438 528.625 C 39.539062 553.636719 40.195312 583.148438 54.320312 607.5 C 68.394531 631.851562 93.554688 647.242188 121.703125 648.609375 C 143.371094 649.671875 160.429688 666.730469 161.492188 688.398438 C 162.859375 716.496094 178.199219 741.707031 202.601562 755.78125 C 227.003906 769.855469 256.464844 770.5625 281.476562 757.703125 C 300.761719 747.78125 324.101562 754.058594 335.847656 772.285156 C 350.984375 795.875 376.851562 810 405 810 C 433.148438 810 459.015625 795.875 474.253906 772.183594 C 485.949219 753.957031 509.339844 747.679688 528.625 757.601562 C 553.636719 770.511719 583.148438 769.753906 607.5 755.679688 C 631.851562 741.605469 647.242188 716.445312 648.609375 688.296875 C 649.671875 666.628906 666.730469 649.570312 688.398438 648.507812 C 716.496094 647.140625 741.707031 631.800781 755.78125 607.398438 C 769.855469 583.046875 770.5625 553.535156 757.703125 528.523438 C 747.78125 509.289062 754.058594 485.898438 772.285156 474.152344 C 795.875 459.015625 810 433.148438 810 405 C 810 376.851562 795.875 350.984375 772.183594 335.746094 Z M 750.3125 440.183594 C 714.46875 463.269531 702.117188 509.238281 721.660156 547.15625 C 728.292969 560.0625 727.9375 574.695312 720.699219 587.25 C 713.457031 599.804688 700.953125 607.449219 686.476562 608.109375 C 643.898438 610.132812 610.234375 643.796875 608.15625 686.425781 C 607.449219 700.902344 599.855469 713.40625 587.300781 720.648438 C 574.746094 727.886719 560.113281 728.292969 547.207031 721.609375 C 509.289062 702.117188 463.320312 714.421875 440.234375 750.261719 C 432.335938 762.515625 419.53125 769.5 405 769.5 C 390.46875 769.5 377.664062 762.515625 369.816406 750.3125 C 354.121094 725.910156 327.847656 712.445312 300.710938 712.445312 C 287.953125 712.445312 274.996094 715.433594 262.84375 721.660156 C 249.9375 728.292969 235.355469 727.988281 222.75 720.699219 C 210.195312 713.457031 202.550781 700.953125 201.890625 686.476562 C 199.867188 643.898438 166.203125 610.234375 123.574219 608.160156 C 109.097656 607.449219 96.59375 599.855469 89.351562 587.300781 C 82.113281 574.746094 81.757812 560.113281 88.390625 547.207031 C 107.933594 509.289062 95.578125 463.320312 59.738281 440.234375 C 47.484375 432.335938 40.5 419.53125 40.5 405 C 40.5 390.46875 47.484375 377.664062 59.6875 369.816406 C 95.53125 346.730469 107.882812 300.761719 88.339844 262.84375 C 81.707031 249.9375 82.0625 235.304688 89.300781 222.75 C 96.542969 210.195312 109.046875 202.550781 123.523438 201.890625 C 166.101562 199.867188 199.765625 166.203125 201.84375 123.574219 C 202.550781 109.097656 210.144531 96.59375 222.699219 89.351562 C 235.304688 82.113281 249.886719 81.757812 262.792969 88.390625 C 300.710938 107.933594 346.679688 95.578125 369.765625 59.738281 C 377.664062 47.484375 390.46875 40.5 405 40.5 C 419.53125 40.5 432.335938 47.484375 440.183594 59.6875 C 463.269531 95.53125 509.238281 107.832031 547.15625 88.339844 C 560.0625 81.707031 574.644531 82.0625 587.25 89.300781 C 599.804688 96.542969 607.449219 109.046875 608.109375 123.523438 C 610.132812 166.101562 643.796875 199.765625 686.425781 201.84375 C 700.902344 202.550781 713.40625 210.144531 720.648438 222.699219 C 727.886719 235.253906 728.242188 249.886719 721.609375 262.792969 C 702.066406 300.710938 714.421875 346.679688 750.261719 369.765625 C 762.515625 377.664062 769.5 390.46875 769.5 405 C 769.5 419.53125 762.515625 432.335938 750.3125 440.183594 Z M 587.25 295.347656 L 555.152344 263.25 C 539.359375 247.453125 513.640625 247.453125 497.898438 263.25 L 364.5 396.597656 L 312.152344 344.25 C 296.359375 328.453125 270.640625 328.453125 254.898438 344.25 L 222.75 376.347656 C 206.953125 392.140625 206.953125 417.808594 222.75 433.601562 L 321.570312 532.421875 C 333.417969 544.269531 348.957031 550.191406 364.5 550.191406 C 380.042969 550.191406 395.582031 544.269531 407.429688 532.421875 L 587.25 352.652344 C 603.046875 336.859375 603.046875 311.140625 587.25 295.347656 Z M 378.828125 503.820312 C 370.929688 511.71875 358.070312 511.71875 350.171875 503.820312 L 251.402344 405 L 283.5 372.902344 L 350.171875 439.578125 C 358.070312 447.472656 370.878906 447.472656 378.828125 439.578125 L 526.5 291.902344 L 558.597656 324 Z M 338.78125 660.65625 C 335.898438 669.058594 328.050781 674.375 319.644531 674.375 C 317.46875 674.375 315.242188 674.019531 313.066406 673.261719 C 198.5 633.976562 121.5 526.195312 121.5 405 C 121.5 265.324219 221.382812 147.671875 359.03125 125.195312 C 370.171875 123.421875 380.496094 130.867188 382.269531 141.902344 C 384.09375 152.9375 376.597656 163.367188 365.5625 165.140625 C 247.605469 184.425781 162 285.273438 162 405 C 162 508.882812 228.015625 601.273438 326.226562 634.9375 C 336.808594 638.582031 342.425781 650.074219 338.78125 660.65625 Z M 405 668.25 C 405 679.4375 395.9375 688.5 384.75 688.5 C 373.5625 688.5 364.5 679.4375 364.5 668.25 C 364.5 657.0625 373.5625 648 384.75 648 C 395.9375 648 405 657.0625 405 668.25 Z M 688.5 405 C 688.5 544.675781 588.617188 662.328125 450.96875 684.804688 C 449.855469 685.007812 448.738281 685.058594 447.675781 685.058594 C 437.90625 685.058594 429.351562 678.019531 427.730469 668.046875 C 425.90625 657.011719 433.402344 646.582031 444.4375 644.8125 C 562.394531 625.574219 648 524.726562 648 405 C 648 301.117188 581.984375 208.726562 483.773438 175.0625 C 473.191406 171.46875 467.574219 159.925781 471.167969 149.34375 C 474.761719 138.761719 486.304688 133.09375 496.882812 136.738281 C 611.5 176.023438 688.5 283.804688 688.5 405 Z M 405 141.75 C 405 130.5625 414.0625 121.5 425.25 121.5 C 436.4375 121.5 445.5 130.5625 445.5 141.75 C 445.5 152.9375 436.4375 162 425.25 162 C 414.0625 162 405 152.9375 405 141.75 Z M 405 141.75 " fill-opacity="1" fill-rule="nonzero"/></svg>