<svg xmlns="http://www.w3.org/2000/svg" xmlns:xlink="http://www.w3.org/1999/xlink" width="1080" zoomAndPan="magnify" viewBox="0 0 810 809.999993" height="1080" preserveAspectRatio="xMidYMid meet" version="1.0"><path fill="#780032" d="M 719.332031 495.722656 C 765.398438 420.003906 778.679688 327.488281 755.773438 241.875 C 717.664062 99.464844 588.09375 0 440.683594 0 L 419.671875 0 C 242.753906 0 98.820312 143.933594 98.820312 320.855469 L 98.820312 363.417969 L 39.160156 455.109375 C 32.195312 465.800781 30.21875 478.980469 33.734375 491.253906 C 37.25 503.523438 45.90625 513.644531 57.480469 519.027344 L 100.328125 538.941406 L 117.296875 635.574219 C 125.921875 684.671875 168.375 720.316406 218.242188 720.316406 L 296.777344 720.316406 C 307.070312 720.316406 316.054688 727.632812 318.144531 737.699219 L 330.828125 798.710938 C 332.195312 805.316406 338.019531 810.042969 344.765625 810.042969 L 647.269531 810.042969 C 651.554688 810.042969 655.613281 808.105469 658.316406 804.789062 C 661.023438 801.472656 662.089844 797.101562 661.207031 792.917969 L 641.847656 699.730469 C 634.1875 662.863281 640.75 624.851562 660.324219 592.695312 Z M 635.980469 577.90625 C 612.648438 616.253906 604.835938 661.582031 613.960938 705.539062 L 629.761719 781.601562 L 356.324219 781.601562 L 346.003906 731.933594 C 341.179688 708.730469 320.480469 691.875 296.765625 691.875 L 218.226562 691.875 C 182.226562 691.875 151.5625 666.136719 145.328125 630.675781 L 127.078125 526.714844 C 126.265625 522.128906 123.277344 518.230469 119.0625 516.265625 L 69.496094 493.203125 C 65.335938 491.28125 62.375 487.792969 61.109375 483.394531 C 59.855469 478.996094 60.527344 474.46875 63.03125 470.640625 L 125.011719 375.40625 C 126.507812 373.097656 127.320312 370.394531 127.320312 367.644531 L 127.320312 320.855469 C 127.289062 159.636719 258.457031 28.472656 419.671875 28.472656 L 440.683594 28.472656 C 575.222656 28.472656 693.492188 119.25 728.269531 249.222656 C 749.167969 327.359375 737.039062 411.804688 695.003906 480.902344 Z M 268.136719 358.636719 C 272.960938 364.839844 271.851562 373.78125 265.644531 378.605469 C 252.078125 389.171875 234.570312 394.976562 216.332031 394.976562 C 198.082031 394.976562 180.574219 389.15625 167.007812 378.605469 C 160.800781 373.78125 159.691406 364.828125 164.515625 358.636719 C 169.371094 352.414062 178.308594 351.332031 184.488281 356.144531 C 201.671875 369.511719 230.96875 369.511719 248.148438 356.144531 C 254.355469 351.316406 263.296875 352.414062 268.136719 358.636719 Z M 365.691406 174.683594 L 365.691406 233.789062 C 365.691406 241.648438 359.316406 248.023438 351.457031 248.023438 C 343.597656 248.023438 337.222656 241.648438 337.222656 233.789062 L 337.222656 174.683594 C 337.222656 166.824219 343.597656 160.449219 351.457031 160.449219 C 359.316406 160.449219 365.691406 166.824219 365.691406 174.683594 Z M 534.894531 294.191406 L 322.460938 294.191406 C 305.148438 294.191406 291.070312 280.113281 291.070312 262.800781 L 291.070312 145.65625 C 291.070312 128.347656 305.148438 114.269531 322.460938 114.269531 L 534.894531 114.269531 C 552.207031 114.269531 566.285156 128.347656 566.285156 145.65625 L 566.285156 146.78125 L 574.085938 146.78125 C 591.226562 146.78125 605.175781 160.71875 605.175781 177.871094 L 605.175781 230.613281 C 605.175781 247.753906 591.238281 261.707031 574.085938 261.707031 L 566.285156 261.707031 L 566.285156 262.828125 C 566.285156 280.113281 552.207031 294.191406 534.894531 294.191406 Z M 322.460938 142.753906 C 320.851562 142.753906 319.539062 144.0625 319.539062 145.671875 L 319.539062 262.816406 C 319.539062 264.425781 320.851562 265.734375 322.460938 265.734375 L 534.894531 265.734375 C 536.503906 265.734375 537.8125 264.425781 537.8125 262.816406 L 537.8125 247.457031 C 537.8125 239.597656 544.191406 233.21875 552.050781 233.21875 L 574.085938 233.21875 C 575.523438 233.21875 576.703125 232.039062 576.703125 230.601562 L 576.703125 177.859375 C 576.703125 176.421875 575.523438 175.238281 574.085938 175.238281 L 552.050781 175.238281 C 544.191406 175.238281 537.8125 168.863281 537.8125 161.003906 L 537.8125 145.644531 C 537.8125 144.035156 536.503906 142.726562 534.894531 142.726562 L 322.460938 142.726562 Z M 322.460938 142.753906 " fill-opacity="1" fill-rule="nonzero"/></svg>