<svg xmlns="http://www.w3.org/2000/svg" xmlns:xlink="http://www.w3.org/1999/xlink" width="1080" zoomAndPan="magnify" viewBox="0 0 810 809.999993" height="1080" preserveAspectRatio="xMidYMid meet" version="1.0"><path fill="#780032" d="M 451.890625 192.144531 C 451.925781 192.355469 438.414062 193.917969 413.867188 202.976562 C 390.660156 211.542969 352.1875 229.847656 318.496094 267.332031 C 290.144531 298.875 263.074219 347.402344 258.546875 407.613281 C 256.78125 431.1875 258.476562 456.917969 266.390625 481.871094 C 273.589844 504.566406 286.238281 527.210938 305.074219 544.949219 C 319.980469 559.003906 338.839844 570.003906 359.917969 575.253906 C 379.769531 580.203125 401.722656 579.984375 422.207031 573.195312 C 439.351562 567.53125 455.394531 557.277344 468.453125 543.644531 C 481 530.554688 490.789062 514.367188 497.070312 496.535156 C 508.996094 462.777344 507.800781 423.78125 495.453125 387.132812 C 489.335938 369.101562 480.496094 351.308594 467.320312 337.0625 C 454.570312 323.289062 437.316406 312.59375 418.375 310.128906 C 402.609375 308.003906 385.996094 311.628906 371.496094 319.421875 C 357.316406 327.035156 345.167969 338.589844 335.511719 352.132812 C 316.632812 378.53125 308.246094 411.054688 301.113281 444.871094 C 296.976562 464.988281 293.074219 486.070312 297.4375 505.828125 C 299.5625 515.5625 303.625 525.003906 310.003906 532.539062 C 316.296875 539.96875 324.917969 545.671875 334.378906 547.527344 C 343.851562 549.449219 354.21875 547.488281 362.617188 542.363281 C 370.941406 537.304688 377.449219 529.078125 380.765625 519.734375 C 384.054688 510.484375 384.246094 500.042969 381.507812 490.4375 C 378.800781 480.921875 373.191406 472.15625 365.746094 465.382812 C 357.496094 457.925781 346.855469 452.8125 335.832031 452.089844 C 324.988281 451.367188 313.550781 454.945312 305.796875 462.472656 C 297.644531 470.242188 293.523438 482.425781 294.984375 493.808594 C 296.390625 505.085938 303.265625 515.792969 312.917969 522.183594 C 322.460938 528.53125 334.875 530.757812 346.3125 528.441406 C 357.648438 526.160156 368.179688 519.398438 375.394531 510.101562 C 385.316406 497.457031 388.863281 480.132812 387.347656 463.480469 C 385.828125 446.992188 379.40625 431.019531 371.210938 415.855469 C 360.949219 397.109375 347.71875 379.304688 329.914062 367.820312 C 321.128906 362.121094 311.292969 357.933594 301.03125 356.167969 C 290.863281 354.417969 280.199219 354.992188 270.523438 358.402344 C 259.226562 362.339844 249.210938 370.1875 242.1875 380.128906 C 235.214844 389.992188 231.148438 402 230.207031 414.25 C 228.261719 438.414062 239.058594 463.175781 256.210938 481.433594 C 276.632812 503.183594 305.722656 516.101562 336.0625 522.3125 C 365.9375 528.390625 396.890625 528.105469 428.511719 527.316406 C 443.652344 526.914062 458.828125 526.421875 473.527344 523.9375 C 488.105469 521.453125 502.46875 517.054688 514.78125 509.316406 C 526.945312 501.652344 537.332031 490.640625 542.367188 477.425781 C 544.890625 470.871094 546.164062 463.808594 545.828125 456.855469 C 545.492188 449.9375 543.601562 443.0625 540.148438 437.136719 C 536.6875 431.324219 531.761719 426.273438 525.84375 424.148438 C 522.910156 423.054688 519.75 422.574219 516.765625 422.929688 C 513.804688 423.28125 510.902344 424.390625 508.683594 426.195312 C 504.894531 429.015625 502.777344 434.226562 501.871094 439.585938 C 501.871094 439.585938 501.871094 439.589844 501.871094 439.589844 C 501.011719 445.027344 501.679688 450.953125 502.332031 457.203125 C 503.054688 463.421875 503.769531 470.121094 502.914062 477.113281 C 502.113281 484.171875 499.078125 491.40625 493.21875 496.621094 C 487.140625 501.691406 479.070312 503.554688 471.535156 502.140625 C 464.097656 500.722656 457.542969 496.585938 452.847656 490.992188 C 448.191406 485.445312 445.234375 478.808594 443.753906 472.007812 C 442.273438 465.25 442.058594 458.417969 442.503906 451.804688 C 443.371094 438.648438 446.492188 426.28125 446.796875 414.296875 C 446.941406 408.339844 446.488281 402.449219 444.835938 397.039062 C 443.1875 391.664062 440.464844 386.628906 436.566406 383 C 432.675781 379.28125 427.460938 376.8125 422.023438 375.886719 C 416.589844 374.957031 410.808594 375.609375 405.496094 377.523438 C 394.894531 381.253906 386.300781 390.511719 381.375 401.183594 C 376.449219 411.878906 375.144531 424.269531 375.820312 436.582031 C 376.523438 448.855469 379.335938 461.140625 382.296875 473.664062 C 385.0625 485.230469 387.871094 496.6875 392.261719 507.316406 C 396.648438 517.871094 402.542969 527.828125 410.683594 535.285156 C 418.273438 542.324219 427.890625 547.285156 438.097656 549.761719 C 448.261719 552.230469 459.09375 552.214844 469.480469 550.023438 C 490.101562 545.738281 508.6875 532.507812 522.027344 515.441406 C 535.273438 498.480469 543.480469 477.652344 548.207031 456.027344 C 552.886719 434.558594 554.074219 412.277344 554.546875 389.683594 C 554.882812 369.851562 554.734375 349.898438 548.730469 331.824219 C 545.769531 322.832031 541.464844 314.289062 535.539062 307.167969 C 535.539062 307.167969 535.535156 307.167969 535.535156 307.167969 C 529.640625 300.085938 522.148438 294.277344 513.714844 291.09375 C 504.359375 287.464844 493.679688 287.054688 483.488281 289.03125 C 473.308594 291.007812 463.53125 295.492188 454.488281 301.261719 C 436.410156 312.765625 421.828125 329.558594 405.347656 345.453125 C 390.695312 359.734375 374.960938 372.753906 365.3125 389.261719 C 360.488281 397.457031 357.023438 406.449219 356.261719 415.597656 C 355.511719 424.664062 357.269531 434.066406 362.0625 441.414062 C 367.441406 449.949219 377.015625 455.949219 387.191406 458.003906 C 397.378906 460.078125 408.453125 458.199219 418.085938 453.542969 C 427.714844 448.890625 436.011719 441.3125 442.460938 432.394531 C 448.894531 423.492188 453.457031 413.136719 456.664062 402.296875 C 463.8125 378.121094 463.703125 351.859375 458.851562 326.519531 C 454.019531 301.359375 444.464844 277.070312 433.011719 253.484375 C 422.4375 231.980469 410.265625 210.882812 392.382812 196.246094 C 383.515625 188.941406 373.355469 183.175781 362.476562 180.246094 C 351.664062 177.332031 340.03125 177.097656 329.554688 180.394531 C 321.101562 182.984375 313.269531 187.890625 306.601562 194.082031 C 299.945312 200.269531 294.464844 207.851562 289.980469 216.058594 C 280.992188 232.421875 276.390625 251.246094 271.625 270.402344 C 266.574219 291.148438 261.445312 311.839844 261.761719 332.359375 C 261.902344 342.578125 263.300781 352.746094 266.550781 362.214844 C 269.785156 371.640625 274.796875 380.46875 281.621094 387.445312 C 288.835938 394.910156 298.226562 400.390625 308.324219 403.839844 C 318.40625 407.28125 329.292969 408.628906 340.234375 408.542969 C 362.074219 408.410156 383.84375 402.167969 406.011719 395.972656 C 444.9375 384.925781 484.601562 374.023438 518.25 352.886719 C 534.988281 342.402344 550.285156 329.472656 562.082031 313.867188 C 573.800781 298.355469 582.195312 280.128906 584.78125 261.050781 C 587.25 243.230469 584.6875 224.625 577.601562 207.957031 C 570.554688 191.359375 558.976562 176.59375 544.546875 165.574219 C 524.371094 150.101562 498.503906 142.144531 472.617188 141.589844 C 446.855469 141.035156 420.949219 147.777344 397.324219 159.203125 C 350.335938 181.820312 313.828125 222.417969 280.742188 265.15625 C 250.722656 304.257812 222.574219 346.203125 209.683594 393.261719 C 202.28125 420.421875 199.847656 449.539062 208.175781 475.789062 C 212.277344 488.859375 218.910156 501.179688 228.03125 511.183594 C 237.113281 521.140625 248.695312 528.941406 261.429688 532.832031 C 276.765625 537.640625 293.898438 536.707031 309.824219 532.03125 C 325.734375 527.34375 340.566406 518.746094 354.320312 508.535156 C 373.691406 494.050781 390.765625 476.285156 403.03125 455.601562 C 415.222656 435.035156 422.765625 411.484375 423.164062 387.722656 C 423.566406 364.105469 416.90625 340.097656 403.144531 321.082031 C 389.5 302.191406 368.625 288.066406 345.816406 284.003906 C 335.734375 282.234375 325.363281 282.242188 316.09375 285.28125 C 304.535156 288.921875 294.375 297.335938 287.734375 307.808594 C 281.078125 318.289062 277.894531 331.070312 277.964844 343.777344 C 278.03125 356.484375 281.453125 369.246094 287.085938 380.964844 C 292.714844 392.667969 300.664062 403.351562 309.839844 412.964844 C 342.171875 446.976562 389.152344 465.253906 436.875 472.238281 C 466.367188 476.425781 496.65625 476.601562 525.167969 469.265625 C 553.476562 461.964844 580.34375 447.140625 598.765625 424.875 C 621.308594 398.085938 630.578125 361.367188 631.21875 325.234375 C 631.785156 289.179688 623.933594 253.140625 615.90625 216.773438 C 609.355469 187.867188 602.792969 158.710938 586.585938 135.738281 C 578.566406 124.277344 568.34375 114.3125 556.261719 108.050781 C 544.257812 101.828125 530.257812 99.050781 517.359375 101.617188 C 508.917969 103.203125 500.785156 107.066406 493.5 112.207031 C 493.5 112.207031 493.496094 112.207031 493.496094 112.207031 C 486.210938 117.359375 479.785156 123.9375 474.007812 131.171875 C 462.433594 145.636719 453.835938 162.882812 443.421875 179.820312 C 430.863281 200.386719 416.367188 219.21875 408.421875 240.1875 C 404.445312 250.640625 401.925781 261.585938 402.179688 272.351562 C 402.441406 283.0625 405.269531 293.773438 411.164062 302.230469 C 415.847656 309.097656 422.59375 314.6875 430.203125 318.597656 C 437.816406 322.511719 446.421875 324.699219 455.199219 325.441406 C 472.734375 327.003906 490.796875 322.265625 508.101562 315.496094 C 508.101562 315.496094 508.105469 315.496094 508.105469 315.496094 C 547.257812 299.804688 582.992188 271.914062 600.425781 234.101562 C 609.164062 215.304688 613.429688 194.285156 611.632812 173.785156 C 609.851562 153.375 602.0625 133.300781 588.859375 117.828125 C 573.003906 99.207031 548.78125 87.117188 524.488281 87.265625 C 507.722656 87.269531 490.878906 92.910156 476.953125 102.589844 C 463.035156 112.25 451.917969 126.066406 444.789062 141.644531 C 430.460938 172.613281 432.898438 210.558594 447.136719 242.367188 C 455.847656 261.5 469.515625 280.582031 474.414062 304.132812 C 476.839844 315.984375 476.320312 328.902344 471.277344 340.695312 C 468.710938 346.574219 464.921875 351.996094 460.015625 356.414062 C 455.097656 360.835938 449.058594 364.070312 442.429688 365.585938 C 435.773438 367.046875 428.933594 366.699219 422.59375 364.828125 C 416.277344 362.960938 410.53125 359.757812 405.636719 355.671875 C 395.933594 347.445312 389.53125 336.496094 385.609375 325.257812 C 381.648438 314.078125 379.640625 302.773438 377.578125 291.964844 C 377.578125 291.964844 377.578125 291.960938 377.578125 291.960938 C 375.460938 281.222656 373.304688 270.816406 369.171875 261.617188 C 361.703125 244.648438 347.261719 230.621094 330.144531 223.089844 C 313.054688 215.539062 293.039062 214.359375 274.867188 219.367188 C 260.417969 223.320312 246.972656 231.210938 235.425781 241.28125 C 235.425781 241.28125 235.421875 241.28125 235.421875 241.28125 C 223.886719 251.355469 214.253906 263.746094 206.140625 277.144531 C 195.222656 295.601562 187.011719 316.167969 188.941406 336.265625 C 189.820312 346.269531 193 356.105469 198.703125 363.980469 C 204.363281 371.804688 212.554688 377.980469 221.597656 380.332031 C 221.597656 380.332031 221.601562 380.332031 221.601562 380.332031 C 230.386719 382.730469 240.300781 381.617188 248.664062 377.617188 C 257.050781 373.625 264.117188 366.542969 268.523438 358.183594 C 272.945312 349.816406 274.742188 339.933594 273.925781 330.339844 C 273.117188 320.734375 269.613281 311.265625 264.203125 303.085938 C 258.710938 294.828125 251.222656 287.839844 242.546875 283.28125 C 233.898438 278.726562 223.960938 276.464844 214.324219 277.160156 C 201.460938 278.007812 188.816406 284.304688 179.75 293.769531 C 170.65625 303.230469 164.976562 316.125 163.449219 329.378906 C 161.90625 342.640625 164.5625 356.480469 170.402344 368.726562 C 176.238281 380.980469 185.386719 391.738281 196.320312 400.148438 C 207.226562 408.496094 219.953125 414.53125 233.3125 417.289062 C 246.640625 420.046875 260.691406 419.601562 273.617188 415.660156 C 273.617188 415.660156 273.621094 415.660156 273.621094 415.660156 C 286.519531 411.734375 298.445312 404.320312 307.324219 394.300781 C 316.1875 384.3125 322.167969 371.613281 323.816406 358.457031 C 325.109375 347.902344 323.773438 336.949219 319.066406 327.878906 C 314.417969 318.886719 306.414062 311.339844 297.117188 308.472656 C 291.367188 306.605469 284.96875 306.386719 278.929688 307.667969 C 272.882812 308.941406 267.078125 311.8125 262.15625 315.757812 C 252.285156 323.550781 246.140625 336.1875 244.472656 349.140625 C 242.785156 362.164062 245.710938 375.863281 251.347656 388.28125 C 257.007812 400.714844 265.621094 411.9375 275.429688 422.179688 C 288.289062 435.472656 303.09375 446.894531 319.683594 454.121094 C 336.210938 461.3125 354.640625 464.519531 372.023438 461.546875 C 387.445312 458.960938 402.210938 451.582031 413 440.449219 C 423.769531 429.371094 430.796875 414.386719 431.792969 399.101562 C 433.066406 381.484375 426.210938 363.195312 414.210938 349.902344 C 402.214844 336.566406 384.847656 327.972656 366.824219 325.515625 C 351.042969 323.328125 334.554688 325.839844 319.089844 331.253906 C 303.625 336.675781 289.121094 345.171875 275.425781 354.988281 C 248.09375 374.609375 224.046875 399.96875 195.242188 420.746094 C 164.101562 443.125 129.476562 458.597656 101.101562 481.242188 C 86.960938 492.535156 74.230469 505.539062 65.34375 520.722656 C 56.507812 535.847656 51.246094 553.257812 52.40625 570.25 C 53.292969 585.203125 59.117188 599.929688 67.832031 612.589844 C 76.5625 625.261719 88.371094 635.910156 101.492188 644.683594 C 112.757812 652.230469 124.949219 658.257812 137.742188 662.996094 C 161.925781 671.945312 188.21875 676.265625 214.367188 677.550781 C 254.46875 679.460938 295.03125 674.257812 335.738281 669.894531 C 354.328125 667.835938 372.554688 666.078125 389.0625 660.199219 C 405.441406 654.261719 420.773438 644.304688 428.496094 629.925781 C 434.421875 619.324219 436.292969 606.300781 433.886719 594.3125 C 431.496094 582.285156 424.71875 571.015625 415.359375 562.972656 C 405.988281 554.894531 393.8125 549.914062 381.410156 548.792969 C 368.980469 547.652344 356.109375 550.398438 345.003906 556.273438 C 331.804688 563.246094 320.929688 574.839844 314.636719 588.40625 C 308.3125 601.988281 306.488281 617.769531 309.375 632.5 C 312.859375 650.175781 323.359375 666.734375 338.234375 676.445312 C 353.039062 686.183594 372.609375 689.292969 389.179688 683.75 C 399.683594 680.328125 409.191406 673.5625 416.382812 664.960938 C 423.597656 656.335938 428.527344 645.699219 430.992188 634.554688 C 436.042969 612.25 430.539062 587.90625 419.335938 567.238281 C 412.117188 554.09375 402.574219 542.234375 391.03125 532.972656 C 379.480469 523.703125 365.902344 516.929688 351.597656 513.925781 C 330.261719 509.410156 306.910156 513.460938 288.800781 525.320312 C 270.652344 537.144531 257.480469 557.023438 254.28125 578.277344 C 251.011719 599.535156 257.726562 622.582031 272.226562 638.246094 C 286.667969 653.96875 309.269531 662.574219 330.289062 659.882812 C 346.761719 657.871094 362.519531 649.148438 373.371094 636.492188 C 384.28125 623.816406 390.445312 606.949219 390.746094 590.152344 C 391.085938 569.898438 382.660156 549.199219 367.742188 535.867188 C 360.261719 529.140625 351.210938 524.109375 341.574219 521.46875 C 331.929688 518.820312 321.601562 518.507812 311.914062 520.699219 C 302.21875 522.878906 293.03125 527.566406 285.71875 534.199219 C 278.398438 540.828125 272.824219 549.484375 269.972656 558.871094 C 267.109375 568.261719 266.898438 578.535156 269.488281 587.933594 C 272.070312 597.339844 277.484375 606.058594 284.816406 612.390625 C 292.75 619.304688 303.15625 623.546875 313.722656 624.425781 C 325.75 625.445312 338.277344 622.027344 348.332031 615.234375 C 358.429688 608.4375 366.246094 598.074219 370.296875 586.527344 C 374.371094 574.957031 374.703125 561.976562 371.476562 550.074219 C 368.253906 538.140625 361.375 527.113281 352.210938 518.722656 C 343.03125 510.300781 331.414062 504.445312 319.175781 501.785156 C 306.914062 499.113281 293.898438 499.65625 281.761719 503.09375 C 257.472656 509.878906 236.851562 528.996094 226.300781 552.148438 C 222.332031 560.8125 219.578125 570.488281 216.117188 580.363281 C 216.117188 580.363281 216.113281 580.363281 216.113281 580.363281 C 212.714844 590.292969 208.367188 600.503906 201.476562 609.601562 C 194.558594 618.824219 184.429688 626.238281 172.296875 628.710938 C 166.195312 629.882812 159.746094 629.535156 153.652344 627.46875 C 147.53125 625.378906 142.046875 621.433594 138.140625 616.003906 C 133.277344 609.011719 131.542969 600.464844 132.917969 592.371094 C 134.308594 584.339844 138.339844 577.140625 143.992188 571.71875 C 143.992188 571.71875 143.996094 571.71875 143.996094 571.71875 C 152.585938 563.542969 164.066406 559.339844 175.488281 559.257812 C 186.84375 559.179688 197.769531 562.648438 207.085938 568.308594 C 225.566406 579.722656 237.695312 597.617188 247.589844 614.867188 C 264.21875 643.121094 278.300781 672.125 299.375 694.847656 C 320.359375 717.695312 348.148438 734.15625 377.984375 742.84375 C 407.957031 751.574219 440.105469 752.507812 470.839844 746.789062 C 532.679688 735.390625 587.71875 696.742188 627.53125 647.917969 C 637.136719 636.058594 645.894531 623.726562 652.183594 610.382812 C 658.457031 597.03125 662.445312 582.632812 662.207031 568.378906 C 661.964844 551.15625 655.558594 533.835938 644.027344 521.371094 C 644.027344 521.371094 644.027344 521.367188 644.027344 521.367188 C 632.53125 508.882812 615.660156 501.003906 598.933594 501.082031 C 598.933594 501.082031 598.929688 501.082031 598.929688 501.082031 C 587.53125 501 575.96875 504.589844 564.902344 509.523438 C 553.820312 514.515625 543.113281 521.148438 531.886719 527.472656 C 520.644531 533.863281 508.699219 539.929688 495.542969 543.578125 C 482.328125 547.285156 467.765625 547.96875 454.03125 543.589844 C 444.941406 540.539062 437.609375 535.910156 430.558594 533.386719 C 418.121094 528.886719 403.570312 529.488281 392.070312 535.546875 C 380.570312 541.53125 371.660156 553.207031 369.660156 565.789062 C 368.609375 572.132812 369.132812 578.78125 371.242188 584.792969 C 373.34375 590.804688 377.046875 596.316406 381.84375 600.421875 C 386.632812 604.535156 392.613281 607.363281 398.789062 608.34375 C 404.960938 609.339844 411.503906 608.546875 417.167969 606.039062 C 424.777344 602.914062 431.355469 595.976562 439.195312 589.328125 C 443.078125 585.933594 447.363281 582.574219 452.304688 579.785156 C 457.257812 576.964844 462.976562 574.96875 469.164062 574.496094 C 479.203125 573.96875 488.726562 577.652344 495.945312 583.734375 C 503.109375 589.753906 508.214844 597.453125 511.691406 605.441406 C 518.660156 621.390625 520.441406 637.789062 525.902344 651.515625 C 534.761719 674.238281 554.609375 692.523438 577.621094 700.957031 C 600.785156 709.488281 627.398438 708.289062 650.421875 699.046875 C 673.59375 689.765625 693.382812 672.324219 706.878906 651.167969 C 720.457031 629.898438 727.773438 604.730469 729.253906 579.414062 C 730.214844 561.21875 728.296875 542.835938 720.714844 527.148438 C 720.714844 527.148438 720.714844 527.144531 720.714844 527.144531 C 716.949219 519.277344 711.882812 512.066406 705.59375 506.3125 C 699.304688 500.5625 691.789062 496.152344 683.761719 493.945312 C 669.621094 489.792969 653.605469 492.832031 638.640625 498.128906 C 623.597656 503.589844 609.066406 511.851562 593.179688 518.453125 C 587.910156 520.691406 582.082031 522.769531 575.597656 523.609375 C 569.039062 524.511719 561.871094 523.519531 555.457031 519.851562 C 555.457031 519.851562 555.453125 519.851562 555.453125 519.851562 C 551.476562 517.4375 548.246094 514.09375 545.976562 510.210938 C 543.71875 506.339844 542.371094 502.082031 541.917969 497.78125 C 541.085938 489.171875 543.328125 480.84375 547.351562 473.894531 C 555.453125 460.171875 567.984375 451.503906 578.28125 442.949219 C 583.359375 438.582031 588.039062 434.136719 591.390625 429.09375 C 594.699219 424.066406 597.027344 418.480469 597.0625 413.078125 C 597.113281 410.382812 596.710938 407.707031 595.773438 405.34375 C 594.835938 402.992188 593.417969 400.839844 591.628906 399.273438 C 589.855469 397.71875 587.675781 396.582031 585.5 396.207031 C 583.347656 395.828125 581.015625 396.066406 579.1875 396.960938 C 576.898438 397.917969 574.90625 400.238281 573.46875 402.886719 C 572.015625 405.605469 571.351562 409.003906 571.011719 412.625 C 570.382812 419.921875 571.871094 428.433594 570.957031 437.984375 C 570.957031 437.984375 570.957031 437.988281 570.957031 437.988281 C 569.511719 450.515625 564.054688 461.617188 557.816406 471.226562 C 551.6875 480.898438 544.972656 489.523438 540.273438 498.648438 C 535.703125 507.78125 532.582031 517.628906 534.195312 526.585938 C 534.929688 531.054688 536.628906 535.34375 539.332031 538.621094 C 542 541.871094 545.667969 544.394531 549.507812 545.238281 C 554.144531 546.4375 559.640625 545.1875 564.066406 542.503906 C 568.570312 539.78125 572.144531 535.199219 574.550781 530.074219 C 579.570312 519.773438 578.789062 506.78125 577.316406 493.804688 C 577.316406 493.804688 577.316406 493.800781 577.316406 493.800781 C 575.558594 480.734375 572.832031 466.757812 574.589844 452.023438 C 575.503906 444.625 577.820312 437.179688 581.964844 430.503906 C 586.136719 423.777344 592.386719 418.183594 600.09375 415.09375 C 606.042969 412.828125 612.308594 412.222656 618.261719 412.886719 C 624.199219 413.535156 629.789062 415.214844 634.929688 417.40625 C 645.222656 421.789062 653.902344 427.726562 662.625 431.851562 C 677.152344 438.753906 693.585938 441.691406 709.585938 440.386719 C 725.644531 439.082031 741.375 433.488281 754.695312 424.484375 C 768.074219 415.449219 779.109375 402.917969 786.480469 388.597656 C 793.886719 374.21875 797.640625 357.949219 797.410156 341.8125 C 797.011719 309.472656 779.589844 277.617188 753.246094 259.144531 C 726.699219 240.4375 691.058594 235.074219 660.066406 244.1875 C 637.601562 250.742188 617.378906 264.585938 602.007812 282.34375 C 586.535156 300.214844 575.894531 322.160156 570.0625 345.152344 C 566.988281 357.851562 565.183594 370.765625 568.5625 382.167969 C 570.195312 387.871094 572.9375 393.21875 576.832031 397.292969 C 580.707031 401.347656 585.734375 404.371094 590.976562 405.296875 C 595.996094 406.265625 601.503906 405.398438 606.199219 403.09375 C 606.199219 403.09375 606.203125 403.09375 606.203125 403.09375 C 610.925781 400.785156 614.988281 396.875 617.738281 392.253906 C 620.503906 387.617188 621.96875 382.097656 622.101562 376.582031 C 622.242188 371.042969 620.980469 365.398438 618.664062 360.234375 C 614.089844 349.855469 604.800781 341.546875 594.21875 336.347656 C 583.535156 331.109375 571.21875 329.054688 558.851562 328.789062 C 539.425781 328.417969 519.085938 332.839844 497.761719 331.566406 C 487.039062 330.9375 476.105469 328.601562 466.105469 323.539062 C 456.023438 318.453125 447.273438 310.214844 442.3125 299.582031 C 439.058594 292.371094 437.765625 284.542969 438.078125 276.925781 C 438.390625 269.3125 440.121094 261.953125 442.71875 255.097656 C 447.941406 241.398438 456.046875 229.640625 463.375 218.304688 C 470.625 206.855469 477.40625 195.445312 479.832031 183.273438 C 481.078125 177.199219 481.363281 170.996094 480.207031 165.191406 C 479.046875 159.398438 476.558594 153.875 472.757812 149.726562 C 467.777344 144.0625 460.097656 140.636719 452.214844 139.476562 C 444.25 138.316406 435.804688 139.636719 427.714844 142.222656 C 411.414062 147.40625 396.703125 158.480469 379.929688 167.183594 C 365.667969 174.589844 350.898438 179.859375 337.019531 186.007812 C 337.019531 186.007812 337.019531 186.011719 337.019531 186.011719 C 323.109375 192.25 309.796875 199.375 299.671875 209.585938 C 299.671875 209.585938 299.671875 209.589844 299.671875 209.589844 C 294.582031 214.683594 290.253906 220.457031 287.277344 226.777344 C 284.304688 233.101562 282.578125 239.992188 282.660156 246.769531 C 282.742188 253.539062 284.542969 260.320312 288.101562 265.835938 C 291.644531 271.347656 296.960938 275.820312 302.96875 277.875 C 302.96875 277.875 302.96875 277.878906 302.96875 277.878906 C 307.871094 279.675781 313.59375 279.867188 319.492188 279.570312 C 343.726562 278.117188 367.28125 265.546875 381.855469 246.398438 C 396.597656 227.125 402.347656 200.996094 397.128906 177.523438 C 391.917969 153.832031 375.507812 132.632812 354.09375 121.726562 C 332.511719 110.671875 305.652344 109.988281 283.738281 119.8125 C 270.898438 125.511719 259.59375 134.679688 250.257812 145.460938 C 240.867188 156.3125 233.457031 168.929688 227.320312 182.136719 C 218.847656 200.628906 212.863281 220.292969 214.027344 239.71875 C 214.578125 249.46875 216.824219 259.089844 221.070312 267.636719 C 225.328125 276.203125 231.5625 283.796875 239.289062 289.058594 C 246.160156 293.773438 254.289062 296.726562 262.59375 297.675781 C 270.929688 298.632812 279.53125 297.5625 287.453125 294.722656 C 287.453125 294.722656 287.457031 294.722656 287.457031 294.722656 C 303.351562 289.078125 316.464844 275.847656 323.039062 260.234375 C 330.78125 241.957031 329.65625 220.125 321.335938 202.058594 C 312.9375 183.773438 297.199219 169.039062 278.925781 160.519531 C 278.925781 160.519531 278.925781 160.515625 278.925781 160.515625 C 262.753906 152.96875 244.457031 150.148438 226.535156 151.125 C 208.464844 152.117188 190.644531 157.023438 173.9375 164.246094 C 140.21875 178.773438 111.042969 203.03125 82.664062 226.894531 C 68.976562 238.453125 55.5625 249.84375 43.96875 262.75 C 32.324219 275.746094 22.449219 290.21875 16.925781 306.191406 C 11.386719 322.242188 10.15625 339.925781 15.421875 355.507812 C 15.421875 355.507812 15.421875 355.511719 15.421875 355.511719 C 18.046875 363.359375 22.214844 370.675781 27.757812 376.640625 C 33.3125 382.621094 40.265625 387.320312 47.863281 389.925781 C 60.953125 394.570312 76.101562 392.75 89.3125 387.269531 C 102.679688 381.703125 114.382812 372.199219 124.902344 361.636719 C 167.058594 319.296875 188.226562 259.910156 204.148438 203.023438 C 211.089844 177.980469 217.285156 152.851562 227.605469 128.726562 C 238 104.308594 253.039062 81.335938 274.390625 65.273438 C 292.820312 51.472656 315.628906 43.671875 338.5 44.226562 C 361.703125 44.808594 384.488281 54.359375 400.4375 70.980469 C 410.253906 81.296875 417.21875 93.824219 421.960938 106.8125 C 426.746094 119.882812 429.484375 133.441406 431.464844 146.800781 C 435.578125 174.078125 436.816406 200.65625 446.078125 224.914062 C 450.710938 237.09375 457.222656 248.492188 466.117188 257.46875 C 475.074219 266.496094 486.472656 273.175781 498.640625 275.191406 C 510.859375 277.230469 524.042969 274.5625 533.472656 267.113281 C 538.25 263.378906 542.148438 258.507812 544.546875 253.039062 C 546.957031 247.558594 547.921875 241.414062 547.148438 235.566406 C 546.3125 228.386719 542.640625 221.386719 538.890625 214.230469 C 534.988281 207.050781 530.855469 199.378906 529.097656 190.539062 C 527.667969 182.929688 528.335938 175.039062 530.878906 167.820312 C 533.433594 160.570312 537.800781 154.070312 543.386719 148.921875 C 554.707031 138.566406 570.453125 134.089844 585.320312 135.90625 C 600.3125 137.757812 614.046875 145.523438 623.902344 156.488281 C 633.84375 167.5625 639.964844 181.539062 642.324219 195.867188 C 646.855469 223.984375 637.953125 252.117188 625.488281 276.125 C 612.800781 300.765625 596.671875 322.648438 584.574219 345.988281 C 569.289062 375.453125 559.5625 407.972656 541.28125 435.890625 C 531.90625 450.207031 520.207031 463.121094 505.828125 472.390625 C 491.183594 481.839844 473.6875 487.035156 456.382812 485.484375 C 436.042969 483.570312 417.335938 472.035156 406.25 455.476562 C 394.9375 438.527344 391.785156 416.964844 397.011719 397.8125 C 400.386719 385.484375 407.066406 374.242188 416 365.394531 C 425.066406 356.417969 436.367188 349.949219 448.445312 346.558594 C 473.21875 339.636719 500.410156 346.191406 519.511719 361.949219 C 530.035156 370.648438 538.160156 381.839844 543.664062 393.960938 C 549.265625 406.292969 552.257812 419.5625 553.144531 432.734375 C 554.929688 459.738281 548.214844 486.257812 538.960938 510.167969 C 527.566406 539.929688 511.136719 567.597656 486.1875 585.554688 C 466.847656 599.355469 443.730469 606.242188 421.289062 608.285156 C 397.890625 610.425781 374.605469 607.683594 352.820312 603.308594 C 330.476562 598.832031 307.195312 592.144531 286.421875 586.894531 C 263.675781 581.160156 241.925781 576.5625 219.972656 575.300781 C 204.691406 574.414062 189.515625 575.101562 174.578125 574.378906 C 158.855469 573.640625 143.484375 571.25 129.621094 564.867188 C 115.027344 558.160156 102.847656 546.691406 97.402344 532.296875 C 94.585938 524.796875 93.730469 516.65625 95.117188 508.941406 C 96.550781 500.980469 100.433594 493.605469 106.160156 488.191406 C 110.546875 484.070312 115.890625 481.175781 121.480469 479.550781 C 127.210938 477.882812 133.183594 477.511719 138.910156 478.167969 C 150.808594 479.550781 161.566406 485.191406 170.191406 492.222656 C 187.667969 506.5 200.832031 530.28125 212.269531 545.308594 C 236.617188 577.238281 267.339844 596.125 294.253906 606.230469 C 325.722656 618.050781 353.820312 618.671875 370.332031 617.78125 C 387.722656 616.839844 396.410156 614.578125 396.445312 614.75 C 396.484375 614.921875 387.863281 617.527344 370.398438 618.8125 C 353.8125 620.035156 325.492188 619.796875 293.542969 608.152344 C 266.226562 598.195312 234.941406 579.339844 209.984375 547.066406 C 198.207031 531.859375 185 508.289062 168.109375 494.800781 C 159.785156 488.144531 149.566406 482.820312 138.523438 481.652344 C 133.210938 481.078125 127.703125 481.445312 122.496094 483 C 117.421875 484.511719 112.585938 487.15625 108.695312 490.871094 C 103.597656 495.707031 100.132812 502.417969 98.859375 509.609375 C 97.625 516.589844 98.464844 524.046875 101.066406 530.917969 C 106.03125 544.136719 117.574219 554.765625 131.347656 561.109375 C 144.503906 567.15625 159.347656 569.339844 174.78125 570.046875 C 189.453125 570.695312 204.621094 569.941406 220.226562 570.773438 C 242.636719 571.984375 264.710938 576.542969 287.589844 582.234375 C 308.492188 587.421875 331.730469 594.007812 353.804688 598.335938 C 375.332031 602.550781 398.140625 605.183594 420.789062 603 C 442.488281 600.898438 464.699219 594.246094 482.953125 581.050781 C 506.667969 564.070312 522.300781 537.230469 533.511719 508.078125 C 542.449219 484.574219 548.949219 458.859375 547.082031 433.152344 C 546.1875 420.621094 543.335938 408.066406 538.035156 396.53125 C 532.832031 385.207031 525.242188 374.785156 515.507812 366.816406 C 497.976562 352.421875 472.695312 346.390625 450.210938 352.816406 C 439.199219 355.941406 428.859375 361.894531 420.648438 370.078125 C 412.554688 378.136719 406.488281 388.40625 403.472656 399.570312 C 398.796875 416.832031 401.726562 436.53125 411.933594 451.664062 C 421.875 466.460938 438.917969 476.917969 457.019531 478.523438 C 472.476562 479.972656 488.464844 475.089844 501.976562 466.414062 C 515.296875 457.855469 526.253906 445.613281 535.234375 431.925781 C 552.78125 405.203125 562.277344 372.921875 577.945312 342.558594 C 590.367188 318.515625 606.457031 296.582031 618.6875 272.636719 C 630.496094 249.3125 639.078125 222.730469 634.617188 197.160156 C 632.402344 184.152344 626.886719 171.515625 618.035156 161.789062 C 609.3125 152.195312 597.207031 145.316406 584.371094 143.839844 C 571.734375 142.363281 558.132812 146.195312 548.867188 154.855469 C 544.242188 159.144531 540.605469 164.566406 538.539062 170.507812 C 536.484375 176.410156 535.933594 182.894531 537.117188 189.015625 C 538.40625 196.199219 542.277344 203.074219 546.125 210.351562 C 550.054688 217.53125 554.042969 225.453125 555.335938 234.492188 C 556.304688 241.925781 555.148438 249.542969 552.140625 256.378906 C 549.148438 263.175781 544.429688 269.128906 538.605469 273.683594 C 526.988281 282.6875 511.621094 285.949219 497.238281 283.488281 C 483.042969 281.050781 470.089844 273.601562 460.078125 263.433594 C 450.171875 253.378906 443 241.003906 438.070312 227.949219 C 428.296875 201.996094 426.84375 174.808594 422.847656 148.097656 C 420.859375 135.035156 418.246094 122.054688 413.71875 109.847656 C 409.21875 97.75 402.863281 86.253906 394.042969 77.105469 C 379.898438 62.296875 359.167969 53.71875 338.273438 53.195312 C 317.617188 52.660156 296.707031 59.910156 279.832031 72.542969 C 260.144531 87.207031 246.132812 108.957031 236.074219 132.347656 C 226.140625 155.550781 220.125 180.285156 213.148438 205.515625 C 197.410156 262.972656 175.578125 323.742188 131.746094 368.402344 C 120.789062 379.570312 108.070312 389.792969 93.082031 396.199219 C 78.148438 402.605469 60.691406 404.539062 44.683594 399.152344 C 35.457031 395.96875 27.167969 390.417969 20.574219 383.304688 C 14.015625 376.226562 9.125 367.722656 6.089844 358.625 C 0.117188 340.515625 1.328125 320.699219 7.558594 302.933594 C 13.71875 285.339844 24.238281 269.714844 36.535156 256.074219 C 48.730469 242.511719 62.460938 230.78125 76.167969 219.203125 C 104.496094 195.175781 134.453125 170.367188 169.867188 154.871094 C 187.449219 147.203125 206.425781 141.992188 225.953125 140.847656 C 245.351562 139.707031 265.296875 142.8125 283.289062 151.109375 C 303.695312 160.53125 321.148438 176.925781 330.820312 197.667969 C 340.402344 218.28125 341.625 242.929688 332.753906 264.304688 C 325.125 282.597656 309.984375 297.808594 291.046875 304.699219 C 291.046875 304.699219 291.042969 304.699219 291.042969 304.699219 C 281.628906 308.097656 271.429688 309.371094 261.394531 308.25 C 251.390625 307.125 241.652344 303.589844 233.261719 297.867188 C 223.875 291.421875 216.449219 282.476562 211.46875 272.390625 C 206.519531 262.351562 203.890625 251.34375 203.292969 240.3125 C 202.171875 218.371094 208.453125 196.980469 217.492188 177.597656 C 223.882812 163.707031 231.820312 150.238281 242.015625 138.359375 C 252.167969 126.523438 264.722656 116.394531 279.273438 109.835938 C 304.367188 98.632812 334.382812 99.34375 359.101562 111.910156 C 383.566406 124.410156 401.9375 148.070312 407.972656 175.121094 C 413.898438 201.941406 407.523438 231.136719 390.757812 253.183594 C 374.097656 275.011719 347.816406 289.09375 320.183594 290.824219 C 313.480469 291.304688 306.285156 290.917969 299.242188 288.539062 C 299.242188 288.539062 299.238281 288.539062 299.238281 288.539062 C 290.632812 285.492188 283.371094 279.5 278.558594 271.929688 C 273.78125 264.398438 271.378906 255.625 271.316406 246.875 C 271.253906 238.167969 273.335938 229.621094 277.003906 221.914062 C 280.652344 214.238281 285.722656 207.394531 291.621094 201.523438 C 303.410156 189.867188 317.863281 181.9375 332.375 175.554688 C 346.773438 169.144531 361.328125 163.964844 374.617188 157 C 390.183594 148.832031 405.582031 137.445312 424.132812 131.25 C 433.433594 128.15625 443.59375 126.671875 453.796875 128.015625 C 464.03125 129.351562 474.054688 134.007812 481.363281 141.949219 C 486.726562 147.941406 490.148438 155.316406 491.609375 162.96875 C 493.066406 170.582031 492.777344 178.320312 491.226562 185.652344 C 488.070312 200.238281 480.765625 212.964844 473.207031 224.609375 C 465.804688 236.242188 458.078125 247.277344 453.691406 259.214844 C 451.488281 265.15625 450.007812 271.289062 449.808594 277.359375 C 449.617188 283.402344 450.570312 289.453125 453.007812 294.695312 C 456.480469 302.507812 463.457031 308.871094 471.476562 313.050781 C 479.539062 317.234375 488.925781 319.132812 498.503906 319.777344 C 517.621094 321.042969 537.757812 316.59375 559.054688 316.917969 C 572.652344 317.09375 586.628906 319.527344 599.398438 325.625 C 612.195312 331.71875 623.382812 341.957031 629.542969 355.3125 C 632.582031 361.992188 634.203125 369.363281 634.058594 376.839844 C 633.914062 384.316406 631.902344 391.777344 628.046875 398.347656 C 624.183594 404.914062 618.460938 410.382812 611.515625 413.84375 C 604.5625 417.300781 596.550781 418.523438 588.777344 417.105469 C 580.722656 415.550781 573.511719 411.347656 568.085938 405.550781 C 562.695312 399.785156 559 392.773438 556.964844 385.429688 C 553.019531 370.796875 554.785156 355.804688 558.347656 342.195312 C 564.53125 317.550781 576.007812 293.945312 592.816406 274.410156 C 609.546875 254.96875 631.683594 239.859375 656.621094 232.476562 C 691.25 222.292969 730.394531 228.183594 760.308594 249.085938 C 789.949219 269.890625 809.164062 305.023438 809.78125 341.628906 C 810.054688 359.796875 805.859375 378.023438 797.519531 394.273438 C 789.207031 410.460938 776.816406 424.539062 761.671875 434.796875 C 746.578125 445.015625 728.863281 451.324219 710.605469 452.835938 C 692.410156 454.332031 673.84375 451.019531 657.257812 443.175781 C 657.257812 443.175781 657.257812 443.171875 657.257812 443.171875 C 647.34375 438.464844 638.824219 432.609375 630.0625 428.976562 C 625.695312 427.167969 621.296875 425.800781 616.960938 425.378906 C 612.652344 424.972656 608.339844 425.320312 604.664062 426.808594 C 599.84375 428.609375 595.625 432.539062 592.621094 437.210938 C 589.597656 441.921875 587.898438 447.667969 587.089844 453.632812 C 585.410156 465.59375 588.144531 478.484375 589.84375 492.183594 C 589.84375 492.183594 589.84375 492.1875 589.84375 492.1875 C 591.8125 505.859375 592.257812 521.140625 586.0625 535.34375 C 582.871094 542.449219 577.695312 548.855469 570.769531 553.257812 C 563.78125 557.6875 555.085938 559.472656 546.613281 557.59375 C 539.714844 555.917969 533.722656 551.941406 529.453125 546.605469 C 525.21875 541.300781 522.625 535.007812 521.640625 528.566406 C 519.820312 515.734375 523.355469 503.261719 528.972656 492.78125 C 534.441406 482.332031 541.335938 473.382812 547.046875 464.390625 C 552.621094 455.382812 557.429688 446.121094 558.246094 436.675781 C 559.058594 429.507812 557.554688 421.101562 558.253906 411.617188 C 558.578125 406.859375 559.695312 401.863281 562.058594 397.082031 C 564.429688 392.242188 568.40625 387.992188 573.730469 385.367188 C 573.730469 385.367188 573.734375 385.367188 573.734375 385.367188 C 578.199219 383.300781 583.117188 382.726562 587.808594 383.601562 C 592.476562 384.480469 596.726562 386.625 600.15625 389.691406 C 603.566406 392.753906 606.128906 396.542969 607.726562 400.675781 C 609.316406 404.796875 610.015625 409.132812 609.898438 413.394531 C 609.589844 421.898438 606.535156 429.78125 602.039062 436.292969 C 597.601562 442.777344 592.148438 448.09375 586.613281 452.75 C 575.746094 462.1875 564.175781 469.714844 558.578125 480.238281 C 555.761719 485.394531 554.058594 491.144531 554.746094 496.375 C 555.046875 498.992188 555.824219 501.527344 557.101562 503.652344 C 558.367188 505.765625 560.101562 507.601562 562.09375 508.769531 C 565.171875 510.785156 569.617188 511.191406 574.054688 510.773438 C 578.5625 510.296875 583.25 508.515625 588.214844 506.503906 C 603.121094 500.308594 617.816406 491.972656 634.183594 485.945312 C 650.519531 479.789062 669.167969 476.632812 687.238281 481.417969 C 697.4375 484.273438 706.730469 489.664062 714.398438 496.726562 C 722.042969 503.769531 728.097656 512.304688 732.480469 521.542969 C 732.480469 521.542969 732.484375 521.542969 732.484375 521.542969 C 741.15625 539.988281 743.503906 560.488281 742.300781 580.160156 C 740.773438 607.503906 732.800781 634.769531 717.945312 658.207031 C 703.132812 681.566406 681.300781 700.734375 655.339844 711.253906 C 629.445312 721.726562 599.683594 723 573.089844 713.359375 C 546.582031 703.707031 524.132812 682.917969 513.578125 656.375 C 507.320312 640.378906 505.605469 624.152344 499.566406 610.835938 C 496.550781 604.222656 492.667969 598.144531 487.488281 593.980469 C 482.386719 589.894531 475.972656 587.222656 470.050781 587.761719 C 466.34375 587.945312 462.492188 589.390625 458.78125 591.402344 C 455.0625 593.445312 451.527344 596.28125 447.910156 599.386719 C 440.777344 605.710938 433.085938 613.359375 422.539062 618.230469 C 414.417969 621.796875 405.382812 622.914062 396.667969 621.511719 C 387.972656 620.101562 379.800781 616.261719 373.148438 610.546875 C 366.511719 604.839844 361.503906 597.421875 358.632812 589.199219 C 355.773438 580.984375 355.054688 572.140625 356.46875 563.605469 C 359.394531 546.511719 370.632812 531.601562 385.886719 523.667969 C 401.082031 515.839844 419.21875 514.992188 435.132812 520.78125 C 443.996094 524.027344 451.203125 528.609375 458.210938 530.835938 C 468.652344 534.378906 480.632812 533.621094 492 530.613281 C 503.390625 527.550781 514.3125 521.902344 525.265625 515.757812 C 536.171875 509.582031 547.230469 502.765625 559.339844 497.25 C 571.4375 491.6875 584.847656 487.6875 598.921875 487.589844 C 619.773438 487.644531 639.96875 496.964844 653.976562 512.222656 C 667.890625 527.429688 675.496094 547.742188 675.742188 568.207031 C 675.90625 585.015625 671.488281 601.410156 664.4375 616.191406 C 657.425781 630.925781 648.09375 644.179688 638.070312 656.480469 C 596.757812 707.507812 539.058594 747.785156 473.34375 760.210938 C 440.660156 766.339844 406.40625 765.320312 374.167969 755.988281 C 342.042969 746.6875 312.160156 728.945312 289.277344 704.144531 C 266.582031 679.320312 251.90625 649.527344 235.722656 621.824219 C 225.765625 605.230469 215.222656 588.945312 199.992188 580.117188 C 192.472656 575.667969 183.96875 572.859375 175.667969 573.039062 C 167.457031 573.214844 159.113281 576.125 153.59375 581.625 C 149.945312 585.214844 147.253906 589.863281 146.53125 594.621094 C 145.800781 599.304688 146.753906 604.441406 149.394531 608.011719 C 151.394531 610.90625 154.632812 613.167969 158.160156 614.414062 C 161.714844 615.679688 165.808594 615.851562 169.746094 615.136719 C 177.660156 613.839844 184.980469 608.140625 190.519531 601.171875 C 196.074219 594.089844 199.71875 585.164062 203.054688 575.800781 C 206.320312 566.417969 209.222656 556.355469 213.695312 546.425781 C 225.796875 519.660156 249.351562 498 277.972656 489.757812 C 292.242188 485.695312 307.503906 485.078125 322.113281 488.226562 C 336.710938 491.378906 350.46875 498.339844 361.582031 508.472656 C 372.671875 518.609375 380.898438 531.835938 384.886719 546.429688 C 388.859375 561.019531 388.429688 576.746094 383.421875 591.125 C 378.398438 605.488281 368.804688 618.160156 356.128906 626.761719 C 343.445312 635.34375 327.941406 639.542969 312.574219 638.304688 C 299.082031 637.199219 286.011719 631.84375 275.683594 622.921875 C 266.207031 614.691406 259.355469 603.691406 256.042969 591.625 C 252.75 579.574219 252.992188 566.710938 256.628906 554.800781 C 260.265625 542.914062 267.164062 532.167969 276.351562 523.851562 C 285.53125 515.558594 296.816406 509.777344 308.847656 507.074219 C 320.859375 504.378906 333.445312 504.742188 345.277344 507.996094 C 357.085938 511.25 368.023438 517.308594 377.09375 525.480469 C 395.195312 541.882812 405.171875 566.125 404.734375 590.398438 C 404.394531 610.4375 397.109375 630.257812 384.003906 645.605469 C 370.882812 660.917969 352.160156 671.242188 332.019531 673.789062 C 306.15625 676.933594 279.53125 666.863281 261.90625 647.742188 C 244.40625 628.636719 236.5 601.714844 240.40625 576.15625 C 244.359375 550.695312 259.59375 527.601562 281.128906 513.554688 C 302.621094 499.597656 329.496094 494.882812 354.507812 500.175781 C 371.15625 503.722656 386.707031 511.425781 399.84375 522.015625 C 412.949219 532.582031 423.667969 545.839844 431.671875 560.476562 C 444.414062 583.5 450.390625 611.097656 444.742188 637.570312 C 441.863281 650.78125 435.957031 663.414062 427.199219 673.972656 C 418.433594 684.527344 406.789062 692.75 393.578125 697.128906 C 372.476562 703.972656 348.851562 700.328125 330.480469 688.214844 C 312.226562 676.105469 299.695312 656.527344 295.542969 635.210938 C 295.542969 635.210938 295.542969 635.207031 295.542969 635.207031 C 292.082031 617.535156 294.25 598.875 301.847656 582.46875 C 309.453125 566.085938 322.386719 552.320312 338.402344 543.8125 C 351.875 536.664062 367.367188 533.390625 382.675781 534.746094 C 397.976562 536.113281 412.792969 542.207031 424.546875 552.269531 C 436.289062 562.347656 444.617188 576.257812 447.71875 591.53125 C 450.792969 606.808594 448.425781 623.042969 440.832031 636.78125 C 430.457031 654.972656 412.566406 667.089844 393.734375 673.515625 C 375.058594 679.984375 355.78125 681.984375 337.25 683.929688 C 296.730469 688.328125 255.449219 693.554688 213.707031 691.65625 C 186.425781 690.457031 158.71875 685.835938 132.839844 676.183594 C 119.152344 671.082031 105.984375 664.574219 93.671875 656.4375 C 79.328125 646.933594 66.257812 635.046875 56.226562 620.628906 C 46.160156 606.175781 39.507812 589.066406 38.316406 571.140625 C 37.121094 550.75 43.023438 530.65625 53.179688 513.558594 C 53.179688 513.558594 53.179688 513.554688 53.179688 513.554688 C 63.3125 496.46875 77.171875 482.171875 92.320312 470.191406 C 122.648438 446.191406 157.449219 430.589844 187 409.292969 C 214.828125 389.308594 239.359375 363.527344 267.1875 343.542969 C 267.1875 343.542969 267.191406 343.539062 267.191406 343.539062 C 281.585938 333.148438 297.269531 324.039062 314.390625 317.957031 C 314.390625 317.957031 314.394531 317.957031 314.394531 317.957031 C 331.558594 311.847656 350.242188 309.113281 368.707031 311.546875 C 389.914062 314.382812 410.136719 324.484375 424.65625 340.449219 C 439.207031 356.5 447.261719 378.261719 445.847656 400.058594 C 445.847656 400.058594 445.847656 400.0625 445.847656 400.0625 C 444.515625 418.925781 436.164062 436.863281 423.085938 450.273438 C 409.992188 463.667969 392.636719 472.398438 374.335938 475.433594 C 353.765625 478.789062 332.683594 475.246094 314.035156 467.003906 C 295.386719 458.773438 279.089844 446.308594 265.300781 431.933594 C 254.683594 420.960938 245.1875 408.441406 238.574219 394.148438 C 231.921875 379.804688 228.609375 363.578125 230.527344 347.417969 C 232.464844 331.160156 240.324219 315.445312 253.355469 304.816406 C 259.902344 299.535156 267.660156 295.738281 275.996094 293.9375 C 284.347656 292.140625 293.152344 292.484375 301.40625 295.109375 C 314.710938 299.496094 325.453125 309.375 331.566406 321.507812 C 337.640625 333.59375 339.441406 347.257812 337.730469 360.230469 C 335.644531 376.355469 328.519531 391.566406 317.800781 403.613281 C 317.800781 403.613281 317.796875 403.613281 317.796875 403.613281 C 307.0625 415.65625 293 424.433594 277.6875 429.066406 C 277.6875 429.066406 277.683594 429.066406 277.683594 429.066406 C 262.359375 433.695312 246 434.238281 230.460938 430.996094 C 214.914062 427.75 200.296875 420.84375 187.804688 411.253906 C 175.234375 401.636719 164.71875 389.191406 157.789062 374.765625 C 150.839844 360.300781 147.761719 343.921875 149.5625 327.800781 C 151.378906 311.628906 158.324219 296.042969 169.648438 284.125 C 169.648438 284.125 169.648438 284.121094 169.648438 284.121094 C 181.035156 272.171875 196.726562 264.457031 213.351562 263.238281 C 225.761719 262.398438 238.199219 265.1875 249.066406 270.949219 C 259.929688 276.710938 269.113281 285.242188 275.820312 295.378906 C 282.476562 305.386719 286.738281 317.027344 287.808594 329.140625 C 288.875 341.285156 286.558594 353.722656 280.851562 364.65625 C 275.117188 375.613281 265.945312 384.71875 254.6875 390.164062 C 243.382812 395.605469 230.257812 397.011719 217.996094 393.769531 C 217.996094 393.769531 217.996094 393.765625 217.996094 393.765625 C 205.476562 390.335938 194.722656 382.378906 187.398438 372.074219 C 180.101562 361.796875 176.078125 349.648438 175.09375 337.429688 C 173.285156 313.015625 182.15625 289.671875 194.257812 269.976562 C 202.910156 255.597656 213.460938 242.121094 226.289062 230.855469 C 226.289062 230.855469 226.289062 230.851562 226.289062 230.851562 C 239.148438 219.550781 254.414062 210.6875 271.179688 206.015625 C 292.394531 200.15625 315.492188 201.570312 335.710938 210.425781 C 355.988281 219.34375 372.78125 235.730469 381.800781 256.027344 C 386.605469 267.027344 389.066406 278.425781 391.128906 289.347656 C 393.269531 300.3125 395.089844 310.9375 398.597656 320.605469 C 402.140625 330.203125 407.148438 339.167969 414.445312 345.066406 C 418.058594 348.042969 422.15625 350.371094 426.453125 351.601562 C 430.734375 352.828125 435.285156 353.101562 439.417969 352.144531 C 443.550781 351.25 447.535156 349.074219 450.835938 346.148438 C 454.152344 343.214844 456.804688 339.371094 458.675781 335.15625 C 462.511719 326.746094 462.734375 316.558594 460.917969 306.78125 C 457.324219 287.027344 444.003906 269.011719 434.621094 248.011719 C 418.753906 213.050781 416.351562 171.320312 432.332031 135.953125 C 440.414062 118.238281 453.078125 102.578125 469.140625 91.367188 C 485.257812 80.128906 504.699219 73.683594 524.457031 73.613281 C 553.199219 73.648438 580.886719 87.355469 599.242188 109.011719 C 614.382812 126.910156 623.222656 149.535156 625.179688 172.625 C 627.128906 195.75 622.441406 219.070312 612.71875 239.839844 C 593.082031 281.460938 554.910156 311.609375 513.089844 328.058594 C 494.757812 335.433594 474.660156 340.464844 454.089844 338.882812 C 443.773438 338.054688 433.492188 335.386719 424.070312 330.601562 C 414.621094 325.800781 406.214844 318.75 400.066406 309.851562 C 392.53125 298.75 388.921875 285.582031 388.734375 272.609375 C 388.535156 259.652344 391.355469 247.019531 395.886719 235.363281 C 404.976562 212.082031 419.839844 192.53125 432 172.8125 C 441.988281 156.511719 450.90625 138.824219 463.542969 122.851562 C 469.875 114.859375 477.210938 107.425781 485.757812 101.320312 C 485.757812 101.320312 485.761719 101.320312 485.761719 101.320312 C 494.332031 95.195312 504.203125 90.59375 514.839844 88.515625 C 531.207031 85.457031 548.105469 88.671875 562.441406 96.25 C 576.765625 103.816406 588.5625 115.1875 597.507812 128.152344 C 615.316406 154.144531 622.542969 184.863281 628.84375 213.90625 C 636.953125 250.300781 644.886719 287.371094 644.410156 325.417969 C 644 363.742188 633.679688 403.207031 608.851562 433.28125 C 588.15625 457.96875 559.003906 474.207031 528.398438 481.9375 C 497.691406 489.707031 465.710938 489.601562 435.019531 485.132812 C 385.191406 478.085938 335.707031 458.476562 300.492188 421.90625 C 290.539062 411.527344 281.828125 399.734375 275.457031 386.578125 C 269.0625 373.378906 265.222656 358.773438 265.078125 343.878906 C 264.9375 328.917969 268.796875 313.816406 276.859375 300.953125 C 284.976562 288.027344 297.464844 277.828125 312.183594 273.0625 C 324.007812 269.355469 336.441406 269.222656 348.101562 271.402344 C 374.507812 276.269531 398.066406 292.121094 413.5 313.628906 C 428.964844 335.214844 436.402344 361.789062 435.871094 387.960938 C 435.328125 414.222656 427.175781 439.847656 413.90625 462.074219 C 400.585938 484.386719 382.398438 503.359375 361.851562 518.636719 C 347.332031 529.507812 331.179688 538.75 313.402344 544.074219 C 295.527344 549.449219 275.96875 550.351562 257.734375 544.800781 C 242.648438 540.105469 229.214844 531.113281 218.78125 519.582031 C 208.328125 508.023438 200.816406 494.140625 196.277344 479.496094 C 187.257812 450.082031 189.679688 418.632812 197.738281 389.953125 C 211.597656 340.40625 240.484375 297.089844 271.019531 257.660156 C 304.335938 214.277344 342.347656 172.523438 392.027344 148.277344 C 417.101562 136.097656 444.863281 128.976562 472.863281 129.519531 C 501.082031 130.066406 529.296875 138.875 551.835938 156.039062 C 567.90625 168.324219 580.714844 184.71875 588.601562 203.285156 C 596.519531 221.949219 599.339844 242.65625 596.570312 262.679688 C 593.554688 284.082031 584.375 304.152344 571.515625 321.027344 C 558.605469 337.972656 542.242188 351.847656 524.488281 362.886719 C 488.78125 385.027344 448.113281 396.328125 409.175781 407.207031 C 387.042969 413.480469 364.246094 419.847656 340.34375 420.144531 C 328.34375 420.273438 316.183594 418.703125 304.605469 414.792969 C 292.976562 410.871094 282.066406 404.417969 273.347656 395.480469 C 265.199219 387.046875 259.320312 376.769531 255.660156 365.917969 C 251.988281 355.046875 250.398438 343.6875 250.292969 332.488281 C 250.121094 310.035156 255.382812 288.398438 260.550781 267.671875 C 265.242188 248.484375 270.21875 228.753906 280.019531 210.632812 C 284.953125 201.546875 291.183594 193.015625 298.886719 185.808594 C 306.621094 178.570312 315.914062 172.835938 326.214844 169.617188 C 339.058594 165.691406 352.789062 165.910156 365.4375 169.402344 C 378.109375 172.898438 389.664062 179.40625 399.527344 187.621094 C 419.269531 204.164062 432.378906 226.507812 443.011719 248.625 C 454.738281 272.730469 464.570312 297.949219 469.683594 324.433594 C 474.855469 351.148438 474.84375 379.136719 467.15625 405.382812 C 463.707031 417.160156 458.59375 428.613281 451.304688 438.765625 C 443.980469 448.976562 434.316406 457.683594 422.835938 463.304688 C 411.277344 468.960938 397.914062 471.117188 385.078125 468.613281 C 372.144531 466.0625 360.25 458.453125 352.984375 447.222656 C 346.8125 437.429688 344.519531 425.777344 345.566406 414.644531 C 346.605469 403.519531 350.570312 393.023438 356.113281 383.789062 C 367.253906 365.339844 383.582031 351.609375 397.960938 337.816406 C 413.972656 322.296875 429.136719 305.082031 448.800781 292.390625 C 458.679688 286.03125 469.675781 281.074219 481.457031 278.730469 C 493.3125 276.363281 505.917969 276.953125 517.457031 281.328125 C 527.785156 285.328125 536.707031 292.183594 543.5625 300.527344 C 550.4375 308.890625 555.351562 318.574219 558.597656 328.609375 C 565.054688 348.761719 565.339844 369.84375 564.84375 389.894531 C 564.371094 412.722656 563.070312 435.664062 558.183594 458.195312 C 553.265625 480.9375 544.386719 503.121094 530.007812 521.652344 C 515.46875 540.410156 494.898438 554.824219 471.546875 559.824219 C 459.78125 562.3125 447.476562 562.289062 435.75 559.453125 C 423.957031 556.597656 412.875 550.828125 403.941406 542.5625 C 394.480469 533.71875 387.796875 522.585938 383.128906 511.0625 C 378.425781 499.507812 375.472656 487.5625 372.738281 475.929688 C 369.75 463.34375 366.871094 450.488281 366.074219 437.148438 C 365.242188 423.722656 366.859375 409.800781 372.542969 397.164062 C 378.277344 384.386719 388.734375 373.449219 402.207031 368.453125 C 408.992188 365.984375 416.40625 365.199219 423.621094 366.402344 C 430.875 367.617188 437.757812 370.933594 443.171875 376.046875 C 448.457031 381.136719 452.027344 387.574219 453.996094 394.300781 C 455.96875 401.019531 456.546875 407.914062 456.320312 414.574219 C 455.882812 427.953125 452.734375 440.414062 451.957031 452.421875 C 451.578125 458.449219 451.714844 464.390625 452.96875 469.960938 C 454.238281 475.527344 456.511719 480.816406 460.023438 484.902344 C 463.519531 488.964844 468.242188 492.058594 473.222656 492.910156 C 478.140625 493.777344 483.628906 492.621094 487.148438 489.503906 C 490.863281 486.550781 492.847656 481.28125 493.671875 475.902344 C 494.449219 470.421875 493.738281 464.460938 493.09375 458.214844 C 492.371094 451.9375 491.730469 445.21875 492.710938 438.230469 C 493.644531 431.136719 496.90625 423.96875 502.929688 418.972656 C 506.671875 416.027344 511.148438 414.273438 515.742188 413.777344 C 520.332031 413.285156 524.917969 413.949219 529.097656 415.550781 C 537.441406 418.828125 543.917969 425.21875 548.070312 432.550781 C 552.28125 439.867188 554.566406 448.132812 554.933594 456.433594 C 555.300781 464.765625 553.808594 473.058594 550.828125 480.707031 C 544.78125 496.078125 533.160156 508.53125 519.542969 516.949219 C 505.847656 525.429688 490.386719 530.210938 474.996094 532.734375 C 459.503906 535.296875 443.921875 535.796875 428.730469 536.152344 C 397.011719 536.941406 365.390625 537.109375 334.332031 530.808594 C 302.695312 524.429688 272.109375 510.59375 250.027344 487.265625 C 231.371094 467.550781 219.886719 440.601562 221.878906 413.609375 C 222.929688 399.929688 227.527344 386.542969 235.425781 375.355469 C 243.414062 364.050781 254.789062 355.222656 267.820312 350.660156 C 278.992188 346.792969 291.023438 346.132812 302.429688 348.152344 C 313.921875 350.1875 324.753906 354.796875 334.320312 361.058594 C 353.621094 373.757812 367.6875 392.546875 378.183594 412.074219 C 386.71875 427.769531 393.410156 444.769531 395.132812 462.75 C 396.90625 481.027344 392.765625 500.179688 381.484375 514.828125 C 373.136719 525.558594 361.074219 533.226562 347.824219 535.914062 C 334.398438 538.617188 320.097656 535.976562 308.746094 528.464844 C 297.261719 520.832031 289.328125 508.328125 287.585938 494.746094 C 285.855469 480.964844 290.765625 466.699219 300.699219 457.148438 C 310.253906 448.089844 323.5625 443.882812 336.34375 444.820312 C 349.234375 445.78125 361.3125 451.550781 370.59375 460.058594 C 378.992188 467.710938 385.265625 477.609375 388.359375 488.484375 C 388.359375 488.484375 388.359375 488.488281 388.359375 488.488281 C 391.484375 499.492188 391.214844 511.371094 387.40625 522.09375 C 383.539062 532.941406 376.015625 542.363281 366.242188 548.316406 C 356.332031 554.335938 344.300781 556.550781 333.011719 554.277344 C 321.800781 551.953125 311.90625 545.453125 304.789062 536.914062 C 297.613281 528.300781 293.101562 517.875 290.859375 507.234375 C 286.375 485.6875 290.34375 463.726562 294.691406 443.519531 C 301.832031 409.5 310.691406 376.164062 330.398438 348.484375 C 340.535156 334.285156 353.4375 322.148438 368.589844 314.011719 C 384.128906 305.671875 401.988281 301.890625 419.171875 304.195312 C 439.792969 307.054688 458.179688 318.4375 471.59375 333.132812 C 485.421875 348.269531 494.589844 366.765625 500.773438 385.339844 C 513.414062 423.058594 514.425781 463.265625 502 498.28125 C 495.425781 516.765625 485.1875 533.527344 472.078125 547.125 C 458.417969 561.289062 441.65625 571.894531 423.707031 577.761719 C 402.246094 584.765625 379.425781 584.902344 358.804688 579.664062 C 336.925781 574.101562 317.472656 562.648438 302.136719 548.050781 C 282.777344 529.613281 269.898438 506.324219 262.65625 483.042969 C 254.695312 457.457031 253.097656 431.261719 255.039062 407.335938 C 259.976562 346.234375 287.730469 297.308594 316.640625 265.652344 C 351.007812 228.023438 389.972656 210.019531 413.4375 201.785156 C 438.257812 193.070312 451.851562 191.933594 451.890625 192.144531 Z M 451.890625 192.144531 " fill-opacity="1" fill-rule="nonzero"/></svg>