<svg xmlns="http://www.w3.org/2000/svg" xmlns:xlink="http://www.w3.org/1999/xlink" width="1080" zoomAndPan="magnify" viewBox="0 0 810 809.999993" height="1080" preserveAspectRatio="xMidYMid meet" version="1.0"><path fill="#780032" d="M 363.460938 2.203125 C 161.78125 2.203125 0 164.554688 0 353.925781 C 0 460.691406 44.386719 529.007812 86.859375 587.226562 C 129.332031 645.441406 168.75 693.257812 168.75 764.621094 L 168.75 845.953125 L 194.710938 845.953125 L 194.710938 764.621094 C 194.710938 683.667969 149.753906 629.351562 107.851562 571.910156 C 65.949219 514.472656 25.960938 453.617188 25.960938 353.925781 C 25.960938 179.371094 175.71875 28.164062 363.460938 28.164062 C 578.027344 28.164062 687.980469 177.5 687.980469 325.300781 L 687.980469 328.851562 L 777.300781 480.539062 C 780.652344 486.242188 778.648438 493.125 772.761719 496.132812 L 772.734375 496.132812 L 687.980469 539.460938 L 687.980469 651.242188 C 687.980469 701.574219 647.449219 742.105469 597.117188 742.105469 L 506.25 742.105469 C 505.398438 742.105469 504.554688 742.191406 503.71875 742.355469 C 502.882812 742.523438 502.070312 742.769531 501.28125 743.09375 C 500.496094 743.421875 499.746094 743.820312 499.039062 744.292969 C 498.328125 744.769531 497.671875 745.304688 497.070312 745.910156 C 496.46875 746.511719 495.929688 747.167969 495.457031 747.875 C 494.984375 748.585938 494.582031 749.332031 494.257812 750.121094 C 493.929688 750.90625 493.683594 751.71875 493.519531 752.554688 C 493.351562 753.390625 493.269531 754.234375 493.269531 755.085938 C 493.269531 755.941406 493.351562 756.785156 493.519531 757.621094 C 493.683594 758.457031 493.929688 759.269531 494.257812 760.054688 C 494.582031 760.84375 494.984375 761.589844 495.457031 762.300781 C 495.929688 763.007812 496.46875 763.664062 497.070312 764.265625 C 497.671875 764.867188 498.328125 765.40625 499.039062 765.878906 C 499.746094 766.355469 500.496094 766.753906 501.28125 767.082031 C 502.070312 767.40625 502.882812 767.652344 503.71875 767.820312 C 504.554688 767.984375 505.398438 768.070312 506.25 768.070312 L 506.25 845.953125 L 532.210938 845.953125 L 532.210938 768.070312 L 597.117188 768.070312 C 661.480469 768.070312 713.941406 715.605469 713.941406 651.242188 L 713.941406 555.332031 L 784.550781 519.253906 C 803.429688 509.617188 810.402344 485.617188 799.660156 467.355469 L 713.535156 321.09375 C 711.390625 161.589844 588.257812 2.203125 363.460938 2.203125 Z M 356.972656 93.070312 C 300.800781 93.070312 254.359375 130.925781 240.269531 181.929688 C 207.316406 187.390625 181.042969 210.324219 171.4375 241.332031 C 171.4375 241.332031 171.410156 241.332031 171.410156 241.332031 C 151.980469 243.410156 131.578125 251.511719 114.191406 266.40625 C 94.371094 283.382812 78.695312 308.4375 77.910156 338.867188 C 76.523438 392.921875 121.914062 440.710938 180.640625 443.523438 L 180.945312 443.550781 L 221.433594 443.550781 C 222.292969 443.5625 223.144531 443.488281 223.992188 443.332031 C 224.835938 443.175781 225.660156 442.933594 226.457031 442.613281 C 227.253906 442.292969 228.015625 441.898438 228.734375 441.425781 C 229.453125 440.953125 230.117188 440.417969 230.730469 439.8125 C 231.34375 439.207031 231.890625 438.550781 232.371094 437.835938 C 232.855469 437.125 233.261719 436.371094 233.59375 435.578125 C 233.925781 434.785156 234.175781 433.96875 234.34375 433.125 C 234.515625 432.28125 234.597656 431.429688 234.597656 430.570312 C 234.597656 429.707031 234.515625 428.855469 234.34375 428.011719 C 234.175781 427.171875 233.925781 426.351562 233.59375 425.558594 C 233.261719 424.765625 232.855469 424.011719 232.371094 423.300781 C 231.890625 422.585938 231.34375 421.929688 230.730469 421.324219 C 230.117188 420.71875 229.453125 420.183594 228.734375 419.710938 C 228.015625 419.238281 227.253906 418.84375 226.457031 418.523438 C 225.660156 418.203125 224.835938 417.964844 223.992188 417.804688 C 223.144531 417.648438 222.292969 417.574219 221.433594 417.585938 L 181.78125 417.585938 C 136.535156 415.363281 102.871094 378.460938 103.871094 339.550781 C 104.4375 317.628906 115.617188 299.375 131.074219 286.132812 C 146.535156 272.890625 166.371094 265.570312 179.601562 265.570312 C 178.71875 265.570312 179.15625 265.648438 180.867188 265.648438 L 191.644531 265.648438 L 193.621094 255.050781 C 198.617188 228.398438 221.675781 207.734375 250.4375 205.863281 C 252.84375 208.316406 256.085938 209.894531 259.617188 209.894531 C 260.652344 209.894531 261.6875 209.761719 262.582031 209.488281 C 269.589844 207.800781 273.878906 200.804688 272.191406 193.921875 C 271.230469 189.929688 268.472656 187 265.066406 185.378906 C 277.023438 147.121094 313.375 119.03125 356.972656 119.03125 C 396.542969 119.03125 429.945312 142.351562 444.742188 175.210938 C 444.742188 175.210938 444.71875 175.238281 444.71875 175.238281 C 439.914062 180.558594 440.308594 188.738281 445.628906 193.542969 C 448.097656 195.75 451.210938 196.914062 454.328125 196.914062 C 457.832031 196.914062 461.339844 195.484375 463.9375 192.628906 C 465.441406 190.957031 466.257812 188.96875 466.75 186.925781 C 471.035156 186.171875 475.359375 185.632812 479.78125 185.632812 C 521.921875 185.632812 555.484375 218.609375 555.484375 259.257812 C 555.484375 265.640625 554.566406 271.855469 552.925781 277.917969 L 551.453125 283.394531 C 548.375 277.699219 541.671875 274.878906 535.457031 277.257812 C 528.847656 279.855469 525.457031 287.371094 528.054688 293.992188 C 530 299.195312 534.929688 302.445312 540.121094 302.433594 C 541.679688 302.433594 543.253906 302.039062 544.8125 301.519531 C 549.433594 299.746094 552.21875 295.628906 552.847656 291.101562 L 561.746094 293.761719 C 590.257812 302.265625 609.363281 326.859375 610.070312 352.886719 C 610.890625 383.277344 586.378906 412.46875 551.328125 417.585938 L 472.429688 417.585938 C 471.570312 417.574219 470.714844 417.648438 469.871094 417.804688 C 469.023438 417.964844 468.203125 418.203125 467.40625 418.523438 C 466.605469 418.84375 465.847656 419.238281 465.128906 419.710938 C 464.410156 420.183594 463.742188 420.71875 463.132812 421.324219 C 462.519531 421.929688 461.972656 422.585938 461.488281 423.300781 C 461.007812 424.011719 460.601562 424.765625 460.269531 425.558594 C 459.9375 426.351562 459.6875 427.171875 459.519531 428.011719 C 459.347656 428.855469 459.265625 429.707031 459.265625 430.570312 C 459.265625 431.429688 459.347656 432.28125 459.519531 433.125 C 459.6875 433.96875 459.9375 434.785156 460.269531 435.578125 C 460.601562 436.371094 461.007812 437.125 461.488281 437.835938 C 461.972656 438.550781 462.519531 439.207031 463.132812 439.8125 C 463.742188 440.417969 464.410156 440.953125 465.128906 441.425781 C 465.847656 441.898438 466.605469 442.292969 467.40625 442.613281 C 468.203125 442.933594 469.023438 443.175781 469.871094 443.332031 C 470.714844 443.488281 471.570312 443.5625 472.429688 443.550781 L 553.660156 443.550781 L 554.574219 443.421875 C 602.195312 436.742188 637.234375 396.847656 636.03125 352.175781 C 635.097656 317.769531 612.21875 287.835938 579.46875 273.710938 C 580.226562 268.917969 581.445312 264.300781 581.445312 259.257812 C 581.445312 204.238281 535.621094 159.671875 479.78125 159.671875 C 474.960938 159.671875 470.5 160.667969 465.914062 161.320312 C 446.136719 121.203125 405.234375 93.070312 356.972656 93.070312 Z M 310.5 187.914062 C 305.425781 187.894531 300.601562 190.910156 298.558594 195.875 C 295.703125 202.367188 298.796875 210.007812 305.429688 212.863281 C 306.972656 213.523438 308.8125 213.914062 310.5 213.902344 C 315.5625 213.902344 320.363281 210.921875 322.441406 205.992188 C 325.296875 199.359375 322.191406 191.707031 315.570312 188.980469 C 313.914062 188.265625 312.191406 187.921875 310.5 187.914062 Z M 458.207031 217.449219 C 454.910156 217.921875 451.804688 219.648438 449.660156 222.496094 C 445.378906 228.207031 446.535156 236.363281 452.246094 240.648438 C 454.585938 242.464844 457.304688 243.246094 460.03125 243.261719 C 463.9375 243.261719 467.828125 241.566406 470.425781 238.191406 C 474.695312 232.347656 473.511719 224.167969 467.816406 219.882812 C 464.957031 217.742188 461.5 216.976562 458.207031 217.449219 Z M 347.160156 221.355469 C 345.484375 221.652344 343.816406 222.28125 342.292969 223.257812 C 336.320312 227.152344 334.644531 235.207031 338.539062 241.308594 L 338.539062 241.179688 C 341.003906 245.074219 345.15625 247.140625 349.441406 247.140625 C 351.777344 247.140625 354.257812 246.5 356.464844 245.085938 C 362.433594 241.191406 364.238281 233.132812 360.34375 227.160156 L 360.34375 227.007812 C 357.421875 222.53125 352.179688 220.460938 347.160156 221.355469 Z M 228.457031 255.429688 C 225.117188 255.429688 221.789062 256.703125 219.253906 259.234375 C 214.191406 264.296875 214.191406 272.601562 219.253906 277.664062 C 221.847656 280.128906 225.082031 281.417969 228.457031 281.417969 C 231.703125 281.417969 235.089844 280.128906 237.683594 277.664062 C 242.761719 272.601562 242.761719 264.296875 237.683594 259.234375 C 235.152344 256.703125 231.796875 255.429688 228.457031 255.429688 Z M 362.015625 295.460938 L 351.113281 312.421875 C 351.113281 312.421875 344.257812 323.027344 337.375 335.773438 C 333.929688 342.144531 330.445312 349.089844 327.6875 355.828125 C 324.929688 362.566406 322.59375 368.644531 322.59375 376.210938 C 322.59375 398.425781 339.882812 417.585938 362.015625 417.585938 C 384.152344 417.585938 401.441406 398.425781 401.441406 376.210938 C 401.441406 368.644531 399.101562 362.566406 396.34375 355.828125 C 393.585938 349.089844 390.101562 342.144531 386.660156 335.773438 C 379.773438 323.027344 372.945312 312.421875 372.945312 312.421875 Z M 248.054688 302.054688 C 240.914062 302.574219 235.597656 308.667969 235.984375 315.820312 C 236.503906 322.6875 242.21875 328.015625 248.96875 328.015625 C 249.226562 328.015625 249.605469 328.019531 249.878906 327.886719 C 257.019531 327.484375 262.46875 321.261719 261.949219 314.121094 C 261.429688 306.96875 255.207031 301.535156 248.054688 302.054688 Z M 505.3125 313.816406 C 500.28125 314.140625 495.710938 317.40625 494.054688 322.566406 L 493.929688 322.566406 C 491.59375 329.328125 495.203125 336.695312 501.964844 339.042969 C 503.394531 339.421875 504.820312 339.703125 506.25 339.703125 C 511.570312 339.703125 516.636719 336.328125 518.597656 331.007812 L 518.445312 330.855469 C 520.792969 324.105469 517.289062 316.707031 510.40625 314.503906 C 508.71875 313.917969 506.988281 313.710938 505.3125 313.816406 Z M 362.015625 345.050781 C 362.898438 346.617188 362.917969 346.460938 363.816406 348.121094 C 366.984375 353.984375 370.109375 360.261719 372.308594 365.640625 C 374.511719 371.015625 375.480469 375.941406 375.480469 376.210938 C 375.480469 385.359375 369.089844 391.625 362.015625 391.625 C 354.945312 391.625 348.554688 385.359375 348.554688 376.210938 C 348.554688 375.9375 349.523438 371.015625 351.722656 365.640625 C 353.921875 360.261719 357.050781 353.984375 360.214844 348.121094 C 361.113281 346.460938 361.136719 346.617188 362.015625 345.050781 Z M 293.410156 412.921875 L 282.507812 429.757812 C 282.507812 429.757812 275.65625 440.3125 268.769531 452.980469 C 265.324219 459.3125 261.84375 466.207031 259.082031 472.90625 C 256.324219 479.609375 253.988281 485.648438 253.988281 493.214844 C 253.988281 515.371094 271.324219 534.414062 293.410156 534.414062 C 315.5 534.414062 332.835938 515.371094 332.835938 493.214844 C 332.835938 485.648438 330.472656 479.609375 327.714844 472.90625 C 324.953125 466.207031 321.472656 459.3125 318.027344 452.980469 C 311.140625 440.3125 304.3125 429.757812 304.3125 429.757812 Z M 421.519531 442.941406 L 410.769531 458.886719 C 410.769531 458.886719 403.90625 469.035156 397.003906 481.222656 C 393.550781 487.316406 390.070312 493.9375 387.292969 500.417969 C 384.515625 506.894531 382.097656 512.753906 382.097656 520.316406 C 382.097656 542.125 399.730469 560.375 421.519531 560.375 C 443.308594 560.375 460.945312 542.125 460.945312 520.316406 C 460.945312 512.753906 458.550781 506.894531 455.773438 500.417969 C 452.992188 493.9375 449.488281 487.320312 446.035156 481.222656 C 439.132812 469.035156 432.296875 458.886719 432.296875 458.886719 Z M 293.410156 462.308594 C 294.296875 463.875 294.308594 463.71875 295.210938 465.378906 C 298.378906 471.199219 301.507812 477.460938 303.703125 482.796875 C 305.902344 488.132812 306.875 492.996094 306.875 493.214844 C 306.875 502.214844 300.53125 508.453125 293.410156 508.453125 C 286.292969 508.453125 279.949219 502.214844 279.949219 493.214844 C 279.949219 492.996094 280.894531 488.132812 283.09375 482.796875 C 285.289062 477.460938 288.417969 471.199219 291.585938 465.378906 C 292.492188 463.714844 292.523438 463.878906 293.410156 462.308594 Z M 421.519531 490.910156 C 422.457031 492.492188 422.488281 492.335938 423.445312 494.027344 C 426.605469 499.605469 429.734375 505.578125 431.914062 510.660156 C 434.09375 515.738281 434.984375 520.40625 434.984375 520.316406 C 434.984375 528.421875 428.9375 534.414062 421.519531 534.414062 C 414.101562 534.414062 408.058594 528.421875 408.058594 520.316406 C 408.058594 520.398438 408.972656 515.738281 411.152344 510.660156 C 413.328125 505.578125 416.433594 499.605469 419.59375 494.027344 C 420.550781 492.339844 420.582031 492.492188 421.519531 490.910156 Z M 363.460938 690.183594 C 362.609375 690.183594 361.765625 690.265625 360.929688 690.433594 C 360.09375 690.597656 359.28125 690.847656 358.492188 691.171875 C 357.707031 691.5 356.957031 691.898438 356.25 692.371094 C 355.542969 692.84375 354.886719 693.382812 354.28125 693.984375 C 353.679688 694.589844 353.140625 695.242188 352.667969 695.953125 C 352.195312 696.660156 351.796875 697.410156 351.46875 698.195312 C 351.144531 698.984375 350.894531 699.796875 350.730469 700.632812 C 350.5625 701.46875 350.480469 702.3125 350.480469 703.164062 C 350.480469 704.015625 350.5625 704.859375 350.730469 705.695312 C 350.894531 706.53125 351.144531 707.34375 351.46875 708.132812 C 351.796875 708.917969 352.195312 709.667969 352.667969 710.375 C 353.140625 711.085938 353.679688 711.742188 354.28125 712.34375 C 354.886719 712.945312 355.542969 713.484375 356.25 713.957031 C 356.957031 714.429688 357.707031 714.832031 358.492188 715.15625 C 359.28125 715.484375 360.09375 715.730469 360.929688 715.894531 C 361.765625 716.0625 362.609375 716.144531 363.460938 716.144531 C 364.3125 716.144531 365.15625 716.0625 365.992188 715.894531 C 366.828125 715.730469 367.640625 715.484375 368.429688 715.15625 C 369.214844 714.832031 369.964844 714.429688 370.671875 713.957031 C 371.382812 713.484375 372.039062 712.945312 372.640625 712.34375 C 373.242188 711.742188 373.78125 711.085938 374.253906 710.375 C 374.726562 709.667969 375.128906 708.917969 375.453125 708.132812 C 375.78125 707.34375 376.027344 706.53125 376.191406 705.695312 C 376.359375 704.859375 376.441406 704.015625 376.441406 703.164062 C 376.441406 702.3125 376.359375 701.46875 376.191406 700.632812 C 376.027344 699.796875 375.78125 698.984375 375.453125 698.195312 C 375.128906 697.410156 374.726562 696.660156 374.253906 695.953125 C 373.78125 695.242188 373.242188 694.589844 372.640625 693.984375 C 372.039062 693.382812 371.382812 692.84375 370.671875 692.371094 C 369.964844 691.898438 369.214844 691.5 368.429688 691.171875 C 367.640625 690.847656 366.828125 690.597656 365.992188 690.433594 C 365.15625 690.265625 364.3125 690.183594 363.460938 690.183594 Z M 402.402344 729.125 C 401.550781 729.125 400.707031 729.210938 399.871094 729.375 C 399.035156 729.542969 398.222656 729.789062 397.4375 730.113281 C 396.648438 730.441406 395.902344 730.839844 395.191406 731.3125 C 394.484375 731.789062 393.828125 732.324219 393.226562 732.929688 C 392.621094 733.53125 392.085938 734.1875 391.609375 734.894531 C 391.136719 735.605469 390.738281 736.351562 390.410156 737.140625 C 390.085938 737.925781 389.839844 738.738281 389.671875 739.574219 C 389.507812 740.410156 389.421875 741.253906 389.421875 742.105469 C 389.421875 742.960938 389.507812 743.804688 389.671875 744.640625 C 389.839844 745.476562 390.085938 746.285156 390.410156 747.074219 C 390.738281 747.863281 391.136719 748.609375 391.609375 749.320312 C 392.085938 750.027344 392.621094 750.683594 393.226562 751.285156 C 393.828125 751.886719 394.484375 752.425781 395.191406 752.898438 C 395.902344 753.375 396.648438 753.773438 397.4375 754.097656 C 398.222656 754.425781 399.035156 754.671875 399.871094 754.839844 C 400.707031 755.003906 401.550781 755.085938 402.402344 755.085938 C 403.257812 755.085938 404.101562 755.003906 404.9375 754.839844 C 405.773438 754.671875 406.582031 754.425781 407.371094 754.097656 C 408.160156 753.773438 408.90625 753.375 409.617188 752.898438 C 410.324219 752.425781 410.980469 751.886719 411.582031 751.285156 C 412.183594 750.683594 412.722656 750.027344 413.195312 749.320312 C 413.671875 748.609375 414.070312 747.863281 414.394531 747.074219 C 414.722656 746.285156 414.96875 745.476562 415.136719 744.640625 C 415.300781 743.804688 415.382812 742.960938 415.382812 742.105469 C 415.382812 741.253906 415.300781 740.410156 415.136719 739.574219 C 414.96875 738.738281 414.722656 737.925781 414.394531 737.140625 C 414.070312 736.351562 413.671875 735.605469 413.195312 734.894531 C 412.722656 734.1875 412.183594 733.53125 411.582031 732.929688 C 410.980469 732.324219 410.324219 731.789062 409.617188 731.3125 C 408.90625 730.839844 408.160156 730.441406 407.371094 730.113281 C 406.582031 729.789062 405.773438 729.542969 404.9375 729.375 C 404.101562 729.210938 403.257812 729.125 402.402344 729.125 Z M 454.328125 742.105469 C 453.472656 742.105469 452.628906 742.191406 451.792969 742.355469 C 450.957031 742.523438 450.148438 742.769531 449.359375 743.09375 C 448.570312 743.421875 447.824219 743.820312 447.113281 744.292969 C 446.40625 744.769531 445.75 745.304688 445.148438 745.910156 C 444.546875 746.511719 444.007812 747.167969 443.535156 747.875 C 443.058594 748.585938 442.660156 749.332031 442.335938 750.121094 C 442.007812 750.90625 441.761719 751.71875 441.59375 752.554688 C 441.429688 753.390625 441.347656 754.234375 441.347656 755.085938 C 441.347656 755.941406 441.429688 756.785156 441.59375 757.621094 C 441.761719 758.457031 442.007812 759.269531 442.335938 760.054688 C 442.660156 760.84375 443.058594 761.589844 443.535156 762.300781 C 444.007812 763.007812 444.546875 763.664062 445.148438 764.265625 C 445.75 764.867188 446.40625 765.40625 447.113281 765.878906 C 447.824219 766.355469 448.570312 766.753906 449.359375 767.082031 C 450.148438 767.40625 450.957031 767.652344 451.792969 767.820312 C 452.628906 767.984375 453.472656 768.070312 454.328125 768.070312 C 455.179688 768.070312 456.023438 767.984375 456.859375 767.820312 C 457.695312 767.652344 458.507812 767.40625 459.292969 767.082031 C 460.082031 766.753906 460.828125 766.355469 461.539062 765.878906 C 462.246094 765.40625 462.902344 764.867188 463.503906 764.265625 C 464.109375 763.664062 464.644531 763.007812 465.121094 762.300781 C 465.59375 761.589844 465.992188 760.84375 466.320312 760.054688 C 466.644531 759.269531 466.890625 758.457031 467.058594 757.621094 C 467.222656 756.785156 467.308594 755.941406 467.308594 755.085938 C 467.308594 754.234375 467.222656 753.390625 467.058594 752.554688 C 466.890625 751.71875 466.644531 750.90625 466.320312 750.121094 C 465.992188 749.332031 465.59375 748.585938 465.121094 747.875 C 464.644531 747.167969 464.109375 746.511719 463.503906 745.910156 C 462.902344 745.304688 462.246094 744.769531 461.539062 744.292969 C 460.828125 743.820312 460.082031 743.421875 459.292969 743.09375 C 458.507812 742.769531 457.695312 742.523438 456.859375 742.355469 C 456.023438 742.191406 455.179688 742.105469 454.328125 742.105469 Z M 454.328125 742.105469 " fill-opacity="1" fill-rule="nonzero"/></svg>