<svg xmlns="http://www.w3.org/2000/svg" xmlns:xlink="http://www.w3.org/1999/xlink" width="1080" zoomAndPan="magnify" viewBox="0 0 810 809.999993" height="1080" preserveAspectRatio="xMidYMid meet" version="1.0"><defs><clipPath id="266f167f57"><path d="M 477 10 L 775.425781 10 L 775.425781 350 L 477 350 Z M 477 10 " clip-rule="nonzero"/></clipPath><clipPath id="d5b06ae05a"><path d="M 34.425781 279 L 144 279 L 144 377 L 34.425781 377 Z M 34.425781 279 " clip-rule="nonzero"/></clipPath></defs><rect x="-81" width="972" fill="#ffffff" y="-80.999999" height="971.999992" fill-opacity="1"/><rect x="-81" width="972" fill="#ffffff" y="-80.999999" height="971.999992" fill-opacity="1"/><path fill="#780032" d="M 450.300781 376.296875 C 400.5 376.296875 357.265625 342.582031 345.195312 294.335938 L 342.953125 285.375 L 369.226562 278.808594 L 371.46875 287.757812 C 380.527344 323.925781 412.953125 349.203125 450.300781 349.203125 C 495.113281 349.203125 531.570312 312.738281 531.570312 267.917969 C 531.570312 261.222656 530.769531 254.574219 529.148438 248.132812 L 515.609375 193.945312 C 506.550781 157.734375 474.121094 132.441406 436.75 132.441406 C 419.464844 132.441406 402.9375 137.796875 388.976562 147.953125 L 373.046875 126.042969 C 391.65625 112.503906 413.6875 105.34375 436.734375 105.34375 C 486.5625 105.34375 529.808594 139.078125 541.867188 187.390625 L 555.421875 241.582031 C 557.5625 250.164062 558.648438 259.027344 558.648438 267.929688 C 558.648438 327.6875 510.03125 376.3125 450.285156 376.3125 Z M 450.300781 376.296875 " fill-opacity="1" fill-rule="nonzero"/><path fill="#780032" d="M 349.546875 444.042969 C 317.75 444.042969 290.308594 424.542969 272.277344 389.121094 L 296.4375 376.847656 C 305.734375 395.136719 322.511719 416.949219 349.546875 416.949219 C 379.371094 416.949219 392.910156 403.152344 396.699219 398.363281 L 403.039062 354.601562 L 429.832031 358.460938 L 422.703125 407.847656 L 421.464844 410.058594 C 420.6875 411.453125 401.699219 444.042969 349.5625 444.042969 Z M 349.546875 444.042969 " fill-opacity="1" fill-rule="nonzero"/><path fill="#780032" d="M 707.664062 809.835938 L 680.574219 809.835938 L 680.574219 565.964844 C 680.574219 506.96875 642.976562 454.808594 587.019531 436.152344 L 520.835938 414.101562 L 498.058594 345.089844 L 523.765625 336.59375 L 542.292969 392.683594 L 595.585938 410.453125 C 662.613281 432.800781 707.648438 495.289062 707.648438 565.964844 L 707.648438 809.835938 Z M 707.664062 809.835938 " fill-opacity="1" fill-rule="nonzero"/><path fill="#780032" d="M 599.304688 579.519531 L 626.394531 579.519531 L 626.394531 809.835938 L 599.304688 809.835938 Z M 599.304688 579.519531 " fill-opacity="1" fill-rule="nonzero"/><path fill="#780032" d="M 470.613281 444.042969 C 424.746094 444.042969 400.023438 413.058594 398.980469 411.734375 L 420.265625 394.980469 C 421 395.882812 438.339844 416.949219 470.613281 416.949219 C 502.890625 416.949219 520.414062 395.601562 521.1875 394.699219 L 542.011719 412.046875 C 540.925781 413.355469 515.003906 444.042969 470.613281 444.042969 Z M 470.613281 444.042969 " fill-opacity="1" fill-rule="nonzero"/><path fill="#780032" d="M 355.476562 755.648438 L 328.386719 755.648438 L 328.386719 586.058594 C 328.386719 572.953125 322.640625 560.597656 312.625 552.15625 L 185.160156 444.859375 C 172.890625 434.5625 165.847656 419.441406 165.847656 403.394531 C 165.847656 391.007812 170.128906 378.890625 177.933594 369.265625 L 303.820312 214.121094 L 315.328125 139.710938 C 318.414062 119.789062 335.304688 105.332031 355.492188 105.332031 C 377.90625 105.332031 396.132812 123.5625 396.132812 145.980469 L 396.132812 234.042969 C 396.132812 243.921875 393.121094 253.417969 387.386719 261.476562 L 275.730469 418.582031 L 253.640625 402.886719 L 365.296875 245.796875 C 367.75 242.34375 369.042969 238.285156 369.042969 234.03125 L 369.042969 145.96875 C 369.042969 138.484375 362.972656 132.414062 355.492188 132.414062 C 348.871094 132.414062 343.109375 137.328125 342.109375 143.855469 L 329.488281 225.492188 L 198.980469 386.332031 C 195.035156 391.207031 192.949219 397.09375 192.949219 403.378906 C 192.949219 411.398438 196.472656 418.949219 202.601562 424.105469 L 330.078125 531.417969 C 346.238281 545.011719 355.492188 564.921875 355.492188 586.03125 L 355.492188 755.617188 Z M 355.476562 755.648438 " fill-opacity="1" fill-rule="nonzero"/><g clip-path="url(#266f167f57)"><path fill="#780032" d="M 606.417969 349.203125 C 603.148438 349.203125 599.851562 348.429688 596.839844 346.851562 C 590.007812 343.269531 585.75 336.253906 585.75 328.53125 L 585.75 281.457031 L 612.839844 281.457031 L 612.839844 316.21875 L 662.78125 281.457031 L 734.753906 281.457031 C 742.234375 281.457031 748.308594 275.386719 748.308594 267.902344 L 748.308594 51.140625 C 748.308594 43.660156 742.234375 37.585938 734.753906 37.585938 L 518.019531 37.585938 C 510.539062 37.585938 504.46875 43.660156 504.46875 51.140625 L 504.46875 91.789062 L 477.375 91.789062 L 477.375 51.140625 C 477.375 28.722656 495.605469 10.492188 518.019531 10.492188 L 734.753906 10.492188 C 757.167969 10.492188 775.398438 28.722656 775.398438 51.140625 L 775.398438 267.917969 C 775.398438 290.335938 757.167969 308.566406 734.753906 308.566406 L 671.277344 308.566406 L 618.222656 345.511719 C 614.671875 347.976562 610.558594 349.21875 606.417969 349.21875 Z M 606.417969 349.203125 " fill-opacity="1" fill-rule="nonzero"/></g><path fill="#780032" d="M 612.839844 227.265625 L 639.933594 227.265625 L 639.933594 254.363281 L 612.839844 254.363281 Z M 612.839844 227.265625 " fill-opacity="1" fill-rule="nonzero"/><path fill="#780032" d="M 639.933594 200.171875 L 612.839844 200.171875 L 612.839844 186.617188 C 612.839844 167.90625 625.464844 156.746094 635.605469 147.769531 C 646.695312 137.949219 653.484375 131.3125 653.484375 118.871094 C 653.484375 103.9375 641.328125 91.777344 626.394531 91.777344 C 611.460938 91.777344 599.304688 103.9375 599.304688 118.871094 L 572.214844 118.871094 C 572.214844 88.988281 596.515625 64.679688 626.394531 64.679688 C 656.273438 64.679688 680.574219 88.988281 680.574219 118.871094 C 680.574219 144.136719 664.964844 157.972656 653.570312 168.046875 C 644.863281 175.738281 639.945312 180.417969 639.945312 186.601562 L 639.945312 200.15625 Z M 639.933594 200.171875 " fill-opacity="1" fill-rule="nonzero"/><g clip-path="url(#d5b06ae05a)"><path fill="#780032" d="M 138.742188 376.296875 L 34.398438 376.296875 L 123.105469 279.105469 L 143.09375 297.367188 L 95.789062 349.203125 L 138.742188 349.203125 Z M 138.742188 376.296875 " fill-opacity="1" fill-rule="nonzero"/></g><path fill="#780032" d="M 90.746094 270.707031 L 54.710938 186.632812 L 139.910156 186.632812 L 89.84375 88.464844 L 220.984375 123.578125 L 213.96875 149.757812 L 141.644531 130.382812 L 184.144531 213.726562 L 95.789062 213.726562 L 115.640625 260.039062 Z M 90.746094 270.707031 " fill-opacity="1" fill-rule="nonzero"/><path fill="#780032" d="M 233.566406 91.789062 L 206.476562 91.789062 L 206.476562 0.148438 L 305.707031 59.550781 L 291.804688 82.816406 L 233.566406 47.941406 Z M 233.566406 91.789062 " fill-opacity="1" fill-rule="nonzero"/><path fill="#780032" d="M 328.386719 782.742188 L 355.476562 782.742188 L 355.476562 809.835938 L 328.386719 809.835938 Z M 328.386719 782.742188 " fill-opacity="1" fill-rule="nonzero"/></svg>
