<svg xmlns="http://www.w3.org/2000/svg" xmlns:xlink="http://www.w3.org/1999/xlink" width="1080" zoomAndPan="magnify" viewBox="0 0 810 809.999993" height="1080" preserveAspectRatio="xMidYMid meet" version="1.0"><path fill="#0047ab" d="M 169.671875 573.3125 C 169.671875 573.3125 110.023438 630.367188 148.671875 720.183594 C 187.320312 810 575.871094 775.085938 637.921875 698.234375 C 699.972656 621.382812 683.019531 585.710938 565.691406 571.289062 C 448.292969 556.867188 252.53125 471.792969 169.671875 573.3125 Z M 169.671875 573.3125 " fill-opacity="1" fill-rule="nonzero"/><path fill="#0047ab" d="M 551.519531 533.96875 C 550.761719 534.097656 549.941406 534.222656 549.179688 534.285156 C 495.605469 541.117188 437.792969 511.707031 388.839844 494.183594 C 343.675781 477.992188 295.730469 468.125 248.863281 457.941406 C 210.53125 449.65625 181.878906 428.65625 203.195312 387.289062 C 218.375 357.878906 260.183594 345.355469 289.089844 336.5 C 383.839844 307.464844 563.917969 321.316406 600.414062 435.488281 C 613.886719 477.550781 599.59375 526.378906 551.519531 533.96875 Z M 551.519531 533.96875 " fill-opacity="1" fill-rule="nonzero"/><path fill="#0047ab" d="M 260.753906 167.109375 C 270.113281 164.453125 280.171875 164.011719 289.976562 164.265625 C 362.019531 165.910156 425.964844 185.074219 498.894531 175.460938 C 518.503906 172.867188 552.660156 172.929688 562.527344 194.433594 C 576.441406 224.796875 532.355469 256.484375 511.101562 269.007812 C 443.296875 308.859375 355.125 323.40625 281.5 291.082031 C 242.917969 274.132812 197.691406 194.308594 253.417969 169.832031 C 255.757812 168.753906 258.222656 167.871094 260.753906 167.109375 Z M 260.753906 167.109375 " fill-opacity="1" fill-rule="nonzero"/><path fill="#0047ab" d="M 496.933594 98.292969 C 492.445312 102.972656 486.75 107.273438 479.855469 110.878906 C 433.9375 135.105469 380.617188 140.609375 329.699219 145.667969 C 317.175781 146.933594 303.828125 147.441406 292.695312 141.621094 C 257.085938 123.085938 290.546875 65.71875 311.734375 49.144531 C 351.898438 17.710938 405.410156 0 456.453125 8.097656 C 505.539062 16.003906 527.296875 66.792969 496.933594 98.292969 Z M 496.933594 98.292969 " fill-opacity="1" fill-rule="nonzero"/></svg>