<svg xmlns="http://www.w3.org/2000/svg" xmlns:xlink="http://www.w3.org/1999/xlink" width="1080" zoomAndPan="magnify" viewBox="0 0 810 809.999993" height="1080" preserveAspectRatio="xMidYMid meet" version="1.0"><defs><clipPath id="57d90fc8c7"><path d="M 52.648438 487 L 757.648438 487 L 757.648438 810 L 52.648438 810 Z M 52.648438 487 " clip-rule="nonzero"/></clipPath></defs><rect x="-81" width="972" fill="#ffffff" y="-80.999999" height="971.999992" fill-opacity="1"/><rect x="-81" width="972" fill="#ffffff" y="-80.999999" height="971.999992" fill-opacity="1"/><g clip-path="url(#57d90fc8c7)"><path fill="#780032" d="M 738.183594 809.785156 L 72.113281 809.785156 C 61.195312 809.785156 52.648438 801.242188 52.648438 790.804688 L 52.648438 635.628906 C 52.648438 554.007812 119.113281 487.570312 200.769531 487.570312 L 299.519531 487.570312 C 304.742188 487.570312 308.539062 491.367188 309.011719 496.585938 C 311.863281 543.566406 354.113281 580.105469 404.914062 580.105469 C 456.183594 580.105469 497.964844 543.566406 501.285156 496.585938 C 501.285156 491.367188 505.558594 487.570312 510.78125 487.570312 L 609.527344 487.570312 C 691.183594 487.570312 757.648438 554.007812 757.648438 635.628906 L 757.648438 790.804688 C 757.648438 801.242188 749.105469 809.785156 738.183594 809.785156 Z M 200.296875 506.550781 C 129.558594 506.550781 71.640625 564.445312 71.640625 635.628906 L 71.640625 790.804688 L 738.183594 791.277344 L 738.660156 635.628906 C 738.660156 564.445312 680.742188 506.550781 609.527344 506.550781 L 519.328125 506.550781 C 511.257812 559.226562 462.832031 599.085938 404.914062 599.085938 C 347.46875 599.085938 299.042969 559.226562 290.972656 506.550781 Z M 200.296875 506.550781 " fill-opacity="1" fill-rule="evenodd"/></g><path fill="#780032" d="M 299.519531 506.550781 C 293.820312 506.550781 289.074219 501.332031 290.023438 495.636719 L 302.84375 419.710938 C 304.742188 407.847656 323.730469 410.695312 321.355469 423.03125 L 309.011719 498.960938 C 308.0625 503.230469 304.265625 506.550781 299.519531 506.550781 Z M 299.519531 506.550781 " fill-opacity="1" fill-rule="evenodd"/><path fill="#780032" d="M 510.78125 506.550781 C 506.035156 506.550781 502.234375 503.230469 501.285156 498.960938 L 488.46875 423.03125 C 486.570312 410.695312 505.558594 407.847656 507.457031 419.710938 L 519.800781 495.636719 C 520.75 501.332031 516.476562 506.550781 510.78125 506.550781 Z M 510.78125 506.550781 " fill-opacity="1" fill-rule="evenodd"/><path fill="#780032" d="M 621.398438 809.785156 C 616.175781 809.785156 611.902344 805.515625 611.902344 800.292969 L 611.902344 657.457031 C 611.902344 644.644531 630.890625 644.644531 630.890625 657.457031 L 630.890625 800.769531 C 630.890625 805.515625 626.144531 809.785156 621.398438 809.785156 Z M 188.902344 809.785156 C 183.679688 809.785156 179.40625 805.515625 179.40625 800.292969 L 179.40625 657.457031 C 179.40625 644.644531 198.398438 644.644531 198.398438 657.457031 L 198.398438 800.769531 C 198.398438 805.515625 194.125 809.785156 188.902344 809.785156 Z M 188.902344 809.785156 " fill-opacity="1" fill-rule="evenodd"/><path fill="#780032" d="M 404.914062 451.980469 C 280.527344 451.980469 178.933594 350.425781 178.933594 226.097656 C 178.933594 101.765625 280.527344 0.214844 404.914062 0.214844 C 529.769531 0.214844 630.890625 101.765625 630.890625 226.097656 C 630.890625 350.425781 529.769531 451.980469 404.914062 451.980469 Z M 404.914062 19.195312 C 290.972656 19.195312 197.921875 112.207031 197.921875 226.097656 C 197.921875 339.988281 290.972656 432.996094 404.914062 432.996094 C 519.328125 432.996094 611.902344 339.988281 611.902344 226.097656 C 611.902344 112.207031 519.328125 19.195312 404.914062 19.195312 Z M 404.914062 19.195312 " fill-opacity="1" fill-rule="evenodd"/><path fill="#780032" d="M 404.914062 413.542969 C 301.890625 413.542969 217.386719 329.546875 217.386719 226.097656 C 217.386719 122.648438 301.890625 38.652344 404.914062 38.652344 C 508.40625 38.652344 592.4375 122.648438 592.4375 226.097656 C 592.4375 329.546875 508.40625 413.542969 404.914062 413.542969 Z M 404.914062 57.636719 C 312.335938 57.636719 236.378906 133.085938 236.378906 226.097656 C 236.378906 319.109375 312.335938 394.558594 404.914062 394.558594 C 497.964844 394.558594 573.449219 319.109375 573.449219 226.097656 C 573.449219 133.085938 497.964844 57.636719 404.914062 57.636719 Z M 404.914062 57.636719 " fill-opacity="1" fill-rule="evenodd"/><path fill="#780032" d="M 404.914062 105.089844 C 392.09375 105.089844 395.417969 87.53125 395.417969 72.347656 C 395.417969 60.007812 414.40625 60.007812 414.40625 72.347656 C 414.40625 87.53125 417.730469 105.089844 404.914062 105.089844 Z M 404.914062 105.089844 " fill-opacity="1" fill-rule="evenodd"/><path fill="#780032" d="M 470.429688 122.171875 C 462.832031 122.171875 458.558594 114.582031 462.355469 107.9375 C 469.476562 95.125 475.648438 78.515625 486.570312 84.683594 C 497.964844 90.851562 486.09375 104.613281 478.5 117.425781 C 477.074219 120.75 473.75 122.171875 470.429688 122.171875 Z M 470.429688 122.171875 " fill-opacity="1" fill-rule="evenodd"/><path fill="#780032" d="M 518.378906 170.101562 C 508.882812 170.101562 505.085938 157.289062 513.628906 152.542969 C 526.921875 144.949219 540.214844 133.5625 546.386719 144.476562 C 553.035156 155.390625 535.941406 161.558594 523.125 169.152344 C 521.699219 169.628906 519.800781 170.101562 518.378906 170.101562 Z M 518.378906 170.101562 " fill-opacity="1" fill-rule="evenodd"/><path fill="#780032" d="M 558.730469 235.589844 C 544.011719 235.589844 526.449219 238.910156 526.449219 226.097656 C 526.449219 213.285156 544.011719 216.605469 558.730469 216.605469 C 571.550781 216.605469 571.550781 235.589844 558.730469 235.589844 Z M 558.730469 235.589844 " fill-opacity="1" fill-rule="evenodd"/><path fill="#780032" d="M 538.316406 312.464844 C 533.570312 312.464844 519.328125 302.972656 513.628906 299.652344 C 502.710938 293.484375 512.207031 276.875 523.125 283.042969 C 536.417969 290.636719 553.035156 296.804688 546.386719 307.71875 C 544.964844 311.039062 541.640625 312.464844 538.316406 312.464844 Z M 538.316406 312.464844 " fill-opacity="1" fill-rule="evenodd"/><path fill="#780032" d="M 481.820312 368.933594 C 473.75 368.933594 469.003906 356.121094 462.355469 344.257812 C 456.183594 333.34375 472.328125 323.851562 478.5 334.769531 C 486.09375 347.105469 497.964844 361.34375 486.570312 367.511719 C 485.144531 368.460938 483.71875 368.933594 481.820312 368.933594 Z M 481.820312 368.933594 " fill-opacity="1" fill-rule="evenodd"/><path fill="#780032" d="M 404.914062 389.339844 C 392.09375 389.339844 395.417969 372.257812 395.417969 357.070312 C 395.417969 344.257812 414.40625 344.257812 414.40625 357.070312 C 414.40625 371.78125 417.730469 389.339844 404.914062 389.339844 Z M 404.914062 389.339844 " fill-opacity="1" fill-rule="evenodd"/><path fill="#780032" d="M 328.003906 368.933594 C 320.882812 368.933594 316.136719 360.867188 319.933594 354.699219 C 327.527344 341.410156 333.226562 324.800781 344.621094 330.972656 C 355.539062 337.613281 343.671875 351.375 336.550781 364.1875 C 334.648438 367.035156 331.328125 368.933594 328.003906 368.933594 Z M 328.003906 368.933594 " fill-opacity="1" fill-rule="evenodd"/><path fill="#780032" d="M 271.984375 312.464844 C 262.011719 312.464844 258.691406 299.652344 267.234375 294.90625 C 280.054688 287.3125 293.820312 275.449219 299.992188 286.839844 C 306.640625 297.753906 289.550781 303.921875 276.730469 311.039062 C 274.832031 311.988281 273.40625 312.464844 271.984375 312.464844 Z M 271.984375 312.464844 " fill-opacity="1" fill-rule="evenodd"/><path fill="#780032" d="M 274.355469 235.589844 C 259.164062 235.589844 241.597656 238.910156 241.597656 226.097656 C 241.597656 213.285156 259.164062 216.605469 274.355469 216.605469 C 286.699219 216.605469 286.699219 235.589844 274.355469 235.589844 Z M 274.355469 235.589844 " fill-opacity="1" fill-rule="evenodd"/><path fill="#780032" d="M 291.921875 170.101562 C 287.175781 170.101562 272.933594 160.609375 267.234375 157.289062 C 256.316406 151.121094 265.8125 134.511719 276.730469 141.15625 C 289.550781 148.273438 306.640625 154.441406 299.992188 165.355469 C 298.09375 168.679688 295.246094 170.101562 291.921875 170.101562 Z M 291.921875 170.101562 " fill-opacity="1" fill-rule="evenodd"/><path fill="#780032" d="M 339.871094 122.171875 C 331.328125 122.171875 326.578125 109.359375 319.933594 97.496094 C 313.761719 87.058594 329.902344 77.566406 336.550781 88.003906 C 343.671875 101.292969 355.539062 114.582031 344.621094 121.222656 C 342.71875 122.171875 341.296875 122.171875 339.871094 122.171875 Z M 339.871094 122.171875 " fill-opacity="1" fill-rule="evenodd"/><path fill="#780032" d="M 419.15625 228.46875 C 409.183594 228.46875 405.863281 214.707031 414.882812 210.4375 L 451.4375 191.929688 C 462.832031 186.234375 471.378906 203.320312 459.984375 209.015625 C 453.8125 211.859375 423.902344 228.46875 419.15625 228.46875 Z M 391.144531 227.519531 C 385.921875 227.519531 328.476562 192.878906 319.457031 187.183594 C 308.539062 181.015625 318.035156 164.40625 328.953125 171.050781 L 395.890625 209.488281 C 404.4375 214.707031 401.113281 227.519531 391.144531 227.519531 Z M 391.144531 227.519531 " fill-opacity="1" fill-rule="evenodd"/><path fill="#780032" d="M 404.914062 251.25 C 371.679688 251.25 371.679688 200.472656 404.914062 200.472656 C 438.621094 200.472656 438.621094 251.25 404.914062 251.25 Z M 404.914062 219.453125 C 396.84375 219.453125 396.84375 232.265625 404.914062 232.265625 C 413.457031 232.265625 413.457031 219.453125 404.914062 219.453125 Z M 404.914062 219.453125 " fill-opacity="1" fill-rule="evenodd"/></svg>
