<svg xmlns="http://www.w3.org/2000/svg" xmlns:xlink="http://www.w3.org/1999/xlink" width="1080" zoomAndPan="magnify" viewBox="0 0 810 809.999993" height="1080" preserveAspectRatio="xMidYMid meet" version="1.0"><rect x="-81" width="972" fill="#ffffff" y="-80.999999" height="971.999992" fill-opacity="1"/><rect x="-81" width="972" fill="#ffffff" y="-80.999999" height="971.999992" fill-opacity="1"/><path fill="#780032" d="M 128.261719 623.296875 L 121.941406 632.140625 C 115.625 640.988281 113.097656 649.832031 114.992188 658.679688 C 116.253906 663.734375 118.78125 671.945312 128.261719 677.632812 L 266 769.878906 C 267.894531 771.144531 270.421875 771.773438 272.949219 771.773438 C 275.476562 771.773438 278.003906 771.144531 279.898438 769.878906 C 284.320312 767.351562 286.21875 762.296875 285.585938 757.242188 C 284.953125 753.453125 284.953125 743.972656 288.113281 739.550781 C 292.535156 732.601562 303.90625 728.808594 307.699219 727.546875 C 312.753906 726.28125 315.914062 722.492188 317.175781 717.4375 C 317.808594 712.382812 315.914062 707.328125 311.488281 704.800781 L 173.121094 613.1875 C 157.957031 603.078125 139.632812 607.5 128.261719 623.296875 Z M 267.261719 725.019531 C 264.734375 728.808594 262.839844 732.601562 261.574219 736.390625 L 142.160156 656.78125 C 141.527344 656.152344 139.632812 654.886719 139.632812 654.253906 C 139.632812 652.992188 140.265625 650.464844 142.792969 647.304688 L 149.109375 638.460938 C 151.636719 635.300781 154.164062 632.773438 156.0625 632.773438 C 157.324219 632.773438 158.589844 633.40625 159.851562 634.035156 L 278.636719 713.648438 C 274.210938 716.804688 270.421875 720.597656 267.261719 725.019531 Z M 267.261719 725.019531 " fill-opacity="1" fill-rule="nonzero"/><path fill="#780032" d="M 506.09375 158.902344 C 506.09375 110.253906 466.285156 70.449219 417.636719 70.449219 C 368.984375 70.449219 329.179688 110.253906 329.179688 158.902344 C 329.179688 159.535156 329.179688 160.800781 329.179688 161.429688 L 255.890625 253.046875 C 255.890625 253.046875 255.257812 253.679688 255.257812 253.679688 C 256.519531 253.679688 258.417969 253.679688 259.679688 253.679688 C 267.894531 253.679688 276.109375 255.574219 283.691406 258.101562 L 358.875 163.957031 C 362.667969 158.273438 370.882812 157.007812 376.566406 161.429688 L 386.675781 169.011719 C 389.203125 170.910156 391.101562 174.066406 391.730469 177.226562 C 392.363281 180.386719 391.730469 183.546875 389.835938 186.074219 L 322.863281 274.527344 L 346.871094 284.636719 L 380.992188 239.777344 C 392.363281 244.199219 404.367188 247.359375 417.636719 247.359375 C 466.285156 247.359375 506.09375 207.554688 506.09375 158.902344 Z M 417.636719 222.085938 C 410.6875 222.085938 403.738281 220.824219 396.785156 218.296875 L 410.054688 200.605469 C 415.742188 192.390625 418.269531 182.28125 417.003906 172.804688 C 415.742188 162.695312 410.054688 153.847656 401.839844 148.164062 L 391.730469 140.582031 C 381.621094 133.632812 369.617188 131.734375 358.875 134.894531 C 368.355469 112.148438 391.101562 95.722656 417.003906 95.722656 C 451.753906 95.722656 480.1875 124.152344 480.1875 158.902344 C 480.820312 193.65625 452.386719 222.085938 417.636719 222.085938 Z M 417.636719 222.085938 " fill-opacity="1" fill-rule="nonzero"/><path fill="#780032" d="M 428.378906 317.492188 L 455.546875 328.863281 L 446.699219 268.839844 C 438.488281 270.738281 430.273438 272 421.425781 272.632812 Z M 428.378906 317.492188 " fill-opacity="1" fill-rule="nonzero"/><path fill="#780032" d="M 408.160156 309.277344 L 413.84375 272.632812 C 405 272.632812 396.785156 271.367188 388.574219 268.839844 L 383.519531 299.167969 Z M 408.160156 309.277344 " fill-opacity="1" fill-rule="nonzero"/><path fill="#780032" d="M 581.910156 658.046875 L 607.183594 658.046875 C 614.132812 658.046875 619.820312 652.359375 619.820312 645.410156 C 619.820312 638.460938 614.132812 632.773438 607.183594 632.773438 L 581.910156 632.773438 C 574.960938 632.773438 569.273438 638.460938 569.273438 645.410156 C 569.273438 652.359375 574.960938 658.046875 581.910156 658.046875 Z M 581.910156 658.046875 " fill-opacity="1" fill-rule="nonzero"/><path fill="#780032" d="M 808.105469 42.648438 C 806.210938 39.488281 803.683594 36.960938 799.890625 36.328125 L 676.683594 1.578125 C 672.261719 0.316406 667.207031 1.578125 664.046875 4.738281 C 655.203125 14.214844 646.988281 31.90625 640.671875 49.597656 C 638.773438 49.597656 636.878906 49.597656 634.984375 50.863281 L 556.636719 88.140625 C 553.480469 89.402344 550.953125 91.929688 550.320312 95.089844 C 549.054688 98.25 549.6875 102.039062 550.953125 104.566406 C 563.589844 130.472656 568.644531 140.582031 570.539062 144.371094 C 573.699219 150.691406 576.226562 157.640625 578.75 164.589844 C 581.277344 171.539062 583.804688 179.121094 587.597656 186.074219 L 589.492188 189.863281 C 594.546875 200.605469 600.867188 214.503906 610.976562 222.71875 C 613.503906 224.613281 616.03125 225.246094 618.558594 225.246094 C 621.085938 225.246094 623.613281 224.613281 625.507812 223.351562 L 668.472656 195.550781 L 725.335938 218.925781 C 726.597656 219.558594 728.496094 220.191406 730.390625 220.191406 C 733.550781 220.191406 736.707031 218.925781 738.605469 217.03125 C 751.871094 205.027344 758.820312 186.703125 764.507812 171.539062 L 766.402344 165.855469 C 770.195312 155.746094 772.722656 145.636719 775.882812 136.160156 C 778.410156 126.050781 781.566406 116.570312 784.726562 107.726562 L 807.472656 51.492188 C 810 49.597656 809.367188 45.808594 808.105469 42.648438 Z M 621.714844 198.078125 C 618.558594 193.023438 615.398438 186.703125 612.871094 181.019531 L 610.976562 176.59375 C 607.816406 170.277344 605.921875 163.957031 603.394531 157.007812 C 600.867188 149.425781 597.707031 141.214844 593.914062 134.261719 C 593.285156 133.632812 585.703125 117.203125 580.015625 105.832031 L 637.511719 78.664062 C 645.09375 91.296875 654.570312 116.570312 659.625 133.632812 C 662.785156 146.898438 669.101562 157.640625 674.15625 164.589844 Z M 761.980469 99.511719 C 757.558594 109.621094 755.03125 120.363281 751.871094 131.105469 C 749.34375 140.582031 746.816406 150.058594 743.660156 158.273438 C 743.027344 160.167969 742.394531 162.0625 741.132812 164.589844 C 737.339844 174.699219 732.917969 186.074219 727.230469 194.285156 L 695.007812 181.019531 L 700.0625 177.859375 C 703.222656 175.964844 705.75 172.171875 705.75 167.75 C 705.75 163.957031 704.484375 159.535156 701.324219 157.007812 C 701.324219 157.007812 688.691406 146.265625 683.636719 126.679688 C 683.636719 126.679688 683.636719 126.050781 683.636719 126.050781 C 681.738281 119.097656 672.261719 90.035156 661.519531 69.816406 C 666.574219 53.390625 672.261719 37.59375 678.582031 28.117188 L 779.671875 56.546875 Z M 761.980469 99.511719 " fill-opacity="1" fill-rule="nonzero"/><path fill="#780032" d="M 105.515625 149.425781 L 105.515625 155.113281 C 106.148438 169.011719 106.777344 186.703125 114.992188 200.605469 C 117.519531 204.394531 121.308594 206.921875 125.734375 206.921875 C 125.734375 206.921875 126.363281 206.921875 126.363281 206.921875 L 241.355469 199.972656 C 245.78125 199.972656 249.570312 197.445312 251.464844 193.65625 C 253.363281 189.863281 253.363281 185.441406 251.464844 181.648438 C 251.464844 181.648438 241.355469 162.0625 245.148438 138.6875 C 245.148438 138.6875 245.148438 138.054688 245.148438 138.054688 C 246.410156 126.679688 252.730469 67.289062 240.726562 43.28125 C 238.828125 38.855469 234.40625 36.328125 229.984375 36.328125 L 118.152344 30.011719 C 114.359375 19.902344 109.9375 11.058594 104.882812 6.003906 C 101.722656 2.210938 96.667969 0.949219 92.246094 2.210938 L 9.476562 26.222656 C 6.316406 27.484375 3.160156 29.378906 1.894531 32.539062 C 0.632812 35.699219 0 39.488281 1.261719 42.648438 C 1.261719 42.648438 16.425781 81.820312 17.058594 82.453125 C 19.585938 88.769531 21.480469 95.089844 23.378906 102.671875 C 25.273438 109.621094 27.167969 117.203125 29.695312 124.152344 L 30.960938 127.945312 C 34.75 138.6875 39.804688 152.585938 49.28125 161.429688 C 52.441406 163.957031 54.96875 165.222656 58.128906 165.222656 C 60.023438 165.222656 61.285156 164.589844 63.183594 163.957031 L 105.515625 145.636719 C 106.148438 146.898438 105.515625 148.164062 105.515625 149.425781 Z M 221.769531 60.339844 C 225.5625 78.03125 223.667969 113.414062 221.769531 134.261719 C 218.613281 150.691406 221.140625 165.222656 223.667969 175.964844 L 134.578125 181.019531 C 132.050781 172.804688 132.050781 162.695312 131.417969 153.847656 L 131.417969 148.164062 C 130.789062 139.949219 131.417969 131.734375 132.050781 122.890625 C 132.683594 113.414062 133.316406 103.304688 132.683594 93.824219 C 132.683594 91.929688 132.050781 84.347656 130.15625 54.652344 Z M 62.550781 137.421875 C 59.390625 132.367188 57.496094 125.417969 54.96875 120.363281 L 53.074219 115.941406 C 50.546875 110.253906 49.28125 103.304688 47.386719 96.984375 C 45.492188 89.402344 43.597656 81.820312 40.4375 74.238281 C 39.171875 70.449219 36.015625 63.5 29.695312 47.070312 L 91.613281 28.746094 C 96.039062 37.59375 101.09375 52.125 104.25 66.027344 L 106.148438 95.722656 C 106.777344 102.671875 106.148438 110.253906 106.148438 117.835938 Z M 62.550781 137.421875 " fill-opacity="1" fill-rule="nonzero"/><path fill="#780032" d="M 588.230469 304.222656 L 588.230469 302.960938 C 588.230469 256.207031 561.691406 215.769531 523.78125 198.710938 C 520.625 206.921875 516.832031 214.503906 512.410156 221.453125 C 542.105469 234.089844 562.957031 265.683594 562.957031 302.960938 L 562.957031 314.332031 Z M 588.230469 304.222656 " fill-opacity="1" fill-rule="nonzero"/><path fill="#780032" d="M 789.148438 431.222656 C 789.148438 430.589844 789.148438 430.589844 789.148438 431.222656 L 796.101562 422.375 C 801.785156 415.425781 804.3125 406.578125 803.050781 397.734375 C 801.785156 388.886719 797.363281 381.304688 790.414062 375.621094 L 666.574219 281.476562 C 662.785156 278.320312 657.730469 278.320312 653.308594 280.214844 C 648.882812 282.109375 646.355469 286.53125 646.355469 291.585938 C 646.355469 291.585938 646.355469 292.21875 646.355469 292.851562 C 664.679688 296.640625 680.476562 308.648438 688.058594 325.707031 L 690.585938 331.390625 L 775.882812 395.839844 C 777.777344 397.101562 778.410156 398.996094 779.039062 400.894531 C 779.039062 402.789062 779.039062 404.683594 777.144531 406.578125 L 770.828125 414.792969 C 768.929688 416.6875 767.035156 417.953125 763.875 417.953125 C 762.613281 417.953125 760.71875 417.953125 758.820312 416.058594 L 695.640625 368.039062 C 695.007812 371.828125 693.742188 374.988281 692.480469 378.148438 C 691.847656 379.410156 691.21875 380.675781 690.585938 381.304688 C 689.953125 383.203125 688.691406 384.464844 688.058594 386.359375 C 687.425781 386.992188 686.792969 388.257812 686.164062 388.886719 C 681.738281 395.207031 676.683594 400.261719 670.367188 404.050781 L 702.589844 404.050781 L 721.542969 418.585938 L 721.542969 421.742188 C 721.542969 426.167969 717.753906 429.324219 713.332031 429.324219 L 536.417969 429.324219 L 649.515625 385.730469 C 657.730469 382.570312 664.679688 376.25 667.839844 368.039062 C 671 360.457031 671 351.609375 667.207031 344.027344 L 663.417969 335.183594 C 658.363281 323.179688 646.355469 315.597656 632.457031 315.597656 C 628.035156 315.597656 624.242188 316.226562 619.820312 318.125 L 475.765625 373.09375 C 471.339844 374.988281 468.183594 379.410156 467.550781 383.832031 C 467.550781 388.886719 470.078125 393.3125 474.5 395.839844 C 477.660156 397.101562 485.875 403.421875 489.03125 409.738281 C 490.929688 414.160156 489.664062 421.742188 488.402344 424.902344 C 487.769531 426.167969 487.769531 427.429688 487.769531 429.324219 L 442.277344 429.324219 C 442.277344 428.0625 442.277344 426.796875 441.644531 425.535156 C 440.382812 422.375 437.222656 409.105469 441.015625 400.894531 C 445.4375 390.785156 457.441406 381.9375 461.863281 379.410156 C 466.285156 376.882812 468.8125 372.460938 468.183594 367.40625 C 468.183594 362.351562 465.023438 358.5625 460.601562 356.664062 L 275.476562 280.847656 C 270.421875 280.214844 265.367188 278.949219 259.679688 278.949219 C 256.519531 278.949219 252.730469 279.582031 249.570312 280.214844 C 245.78125 279.582031 233.773438 275.792969 228.089844 268.839844 C 221.769531 259.996094 220.507812 246.097656 220.507812 241.042969 C 220.507812 235.988281 217.980469 231.5625 213.558594 229.667969 C 209.132812 227.773438 204.078125 228.40625 200.289062 230.933594 L 47.386719 350.980469 C 30.960938 364.246094 27.800781 388.257812 40.4375 405.316406 L 48.019531 415.425781 C 55.601562 424.902344 66.339844 430.589844 78.347656 430.589844 C 87.191406 430.589844 95.40625 428.0625 101.722656 422.375 L 120.046875 407.84375 L 120.046875 417.953125 C 120.046875 422.375 120.679688 426.796875 122.574219 430.589844 L 25.90625 430.589844 C 12.003906 430.589844 0.632812 441.960938 0.632812 455.863281 L 0.632812 481.136719 C 0.632812 495.035156 12.003906 506.40625 25.90625 506.40625 L 63.8125 506.40625 L 63.8125 797.046875 C 63.8125 803.996094 69.5 809.683594 76.449219 809.683594 C 83.402344 809.683594 89.085938 803.996094 89.085938 797.046875 L 89.085938 582.226562 L 442.910156 582.226562 L 442.910156 721.230469 C 442.910156 728.179688 448.597656 733.863281 455.546875 733.863281 L 720.914062 733.863281 L 720.914062 797.046875 C 720.914062 803.996094 726.597656 809.683594 733.550781 809.683594 C 740.5 809.683594 746.1875 803.996094 746.1875 797.046875 L 746.1875 506.40625 L 784.09375 506.40625 C 797.996094 506.40625 809.367188 495.035156 809.367188 481.136719 L 809.367188 455.863281 C 809.367188 443.855469 800.523438 433.117188 789.148438 431.222656 Z M 629.296875 342.765625 C 633.722656 340.871094 638.773438 342.765625 640.671875 346.554688 L 644.460938 355.402344 C 645.09375 357.296875 645.09375 358.5625 644.460938 359.824219 C 643.828125 361.71875 641.933594 362.984375 640.039062 363.617188 L 515.570312 411.632812 C 514.9375 407.84375 514.304688 404.683594 513.042969 400.894531 C 511.148438 397.101562 508.621094 393.3125 506.09375 390.152344 Z M 241.988281 325.074219 L 247.042969 313.070312 C 248.9375 308.015625 254.625 304.222656 260.3125 304.222656 C 262.207031 304.222656 264.101562 304.855469 266 305.488281 L 431.535156 373.09375 C 426.480469 378.148438 421.425781 384.464844 418.269531 392.046875 C 415.742188 398.367188 415.109375 404.683594 414.476562 410.371094 L 249.570312 342.765625 C 245.78125 341.5 243.253906 338.34375 241.988281 335.183594 C 240.09375 332.023438 240.09375 328.234375 241.988281 325.074219 Z M 240.09375 366.144531 L 396.785156 430.589844 L 158.589844 430.589844 C 151.636719 430.589844 145.953125 424.902344 145.953125 417.953125 L 145.953125 405.316406 C 145.953125 398.367188 151.636719 392.679688 158.589844 392.679688 L 237.566406 392.679688 L 230.617188 389.519531 C 219.242188 385.097656 209.765625 376.882812 202.183594 367.40625 L 172.488281 367.40625 L 216.085938 333.289062 C 216.714844 337.078125 217.347656 341.5 218.613281 345.292969 C 222.402344 354.769531 229.984375 362.351562 240.09375 366.144531 Z M 86.558594 402.789062 C 80.875 407.210938 72.660156 405.949219 68.238281 400.261719 L 60.023438 390.152344 C 55.601562 384.464844 56.863281 375.621094 62.550781 371.199219 L 198.394531 264.417969 C 200.289062 270.738281 203.449219 278.320312 208.503906 284.636719 C 212.292969 289.691406 217.347656 293.484375 222.402344 296.640625 Z M 720.914062 708.59375 L 468.183594 708.59375 L 468.183594 582.226562 L 720.914062 582.226562 Z M 720.914062 556.953125 L 89.085938 556.953125 L 89.085938 506.40625 L 720.914062 506.40625 Z M 784.09375 481.136719 L 25.90625 481.136719 L 25.90625 455.863281 L 784.09375 455.863281 Z M 784.09375 481.136719 " fill-opacity="1" fill-rule="nonzero"/><path fill="#780032" d="M 58.128906 258.101562 C 60.023438 263.15625 65.078125 266.3125 70.132812 266.3125 C 71.394531 266.3125 73.292969 266.3125 74.554688 265.683594 C 80.875 263.15625 84.664062 256.207031 82.136719 249.253906 C 71.394531 220.824219 44.226562 215.136719 31.589844 215.769531 C 24.640625 216.398438 19.585938 222.085938 19.585938 229.035156 C 20.21875 235.988281 25.90625 241.671875 32.855469 241.042969 C 33.488281 241.042969 51.808594 240.410156 58.128906 258.101562 Z M 58.128906 258.101562 " fill-opacity="1" fill-rule="nonzero"/><path fill="#780032" d="M 16.425781 254.308594 C 9.476562 256.207031 5.054688 263.15625 6.949219 269.472656 C 8.214844 275.160156 13.898438 279.582031 19.585938 278.949219 C 19.585938 285.902344 25.273438 291.585938 32.222656 291.585938 C 39.171875 291.585938 44.859375 285.902344 44.859375 278.949219 C 44.859375 267.578125 39.804688 261.257812 36.015625 258.101562 C 27.800781 251.78125 18.324219 253.679688 16.425781 254.308594 Z M 16.425781 254.308594 " fill-opacity="1" fill-rule="nonzero"/><path fill="#780032" d="M 790.414062 267.578125 C 791.046875 260.628906 785.992188 254.308594 779.039062 254.308594 C 765.773438 253.046875 737.972656 260.628906 727.863281 294.746094 C 725.96875 301.695312 729.757812 308.648438 736.707031 310.542969 C 737.972656 311.175781 739.234375 311.175781 740.5 311.175781 C 746.1875 311.175781 751.238281 307.382812 752.503906 302.328125 C 758.820312 280.214844 774.617188 279.582031 777.777344 279.582031 C 784.09375 279.582031 789.78125 273.894531 790.414062 267.578125 Z M 790.414062 267.578125 " fill-opacity="1" fill-rule="nonzero"/><path fill="#780032" d="M 780.304688 296.011719 C 776.511719 299.167969 771.457031 305.488281 771.457031 316.859375 C 771.457031 323.808594 777.144531 329.496094 784.09375 329.496094 C 791.046875 329.496094 796.730469 323.808594 796.730469 316.859375 C 796.730469 315.597656 796.730469 314.964844 796.730469 314.964844 C 796.101562 316.230469 794.835938 316.859375 794.203125 316.859375 C 793.574219 316.859375 793.574219 316.859375 793.574219 316.859375 L 799.890625 292.21875 C 797.996094 291.585938 788.519531 289.691406 780.304688 296.011719 Z M 780.304688 296.011719 " fill-opacity="1" fill-rule="nonzero"/><path fill="#780032" d="M 392.363281 639.089844 C 392.363281 620.769531 370.882812 607.5 341.816406 607.5 C 312.753906 607.5 291.269531 620.769531 291.269531 639.089844 C 291.269531 657.414062 312.753906 670.683594 341.816406 670.683594 C 370.882812 670.683594 392.363281 657.414062 392.363281 639.089844 Z M 341.816406 645.410156 C 328.550781 645.410156 320.335938 641.617188 317.175781 639.089844 C 320.335938 636.5625 328.550781 632.773438 341.816406 632.773438 C 355.085938 632.773438 363.300781 636.5625 366.457031 639.089844 C 363.300781 641.617188 355.085938 645.410156 341.816406 645.410156 Z M 341.816406 645.410156 " fill-opacity="1" fill-rule="nonzero"/></svg>
