<svg xmlns="http://www.w3.org/2000/svg" xmlns:xlink="http://www.w3.org/1999/xlink" width="1080" zoomAndPan="magnify" viewBox="0 0 810 809.999993" height="1080" preserveAspectRatio="xMidYMid meet" version="1.0"><defs><clipPath id="0186bb7600"><path d="M 85.554688 0 L 724.554688 0 L 724.554688 810 L 85.554688 810 Z M 85.554688 0 " clip-rule="nonzero"/></clipPath></defs><rect x="-81" width="972" fill="#ffffff" y="-80.999999" height="971.999992" fill-opacity="1"/><rect x="-81" width="972" fill="#ffffff" y="-80.999999" height="971.999992" fill-opacity="1"/><g clip-path="url(#0186bb7600)"><path fill="#780032" d="M 706.300781 317.113281 L 605.886719 317.113281 L 605.886719 244.074219 L 624.140625 244.074219 C 644.226562 244.074219 660.65625 227.640625 660.65625 207.554688 L 660.65625 134.511719 C 660.65625 114.335938 644.226562 97.992188 624.140625 97.992188 L 569.371094 97.992188 L 569.371094 24.953125 C 569.371094 4.777344 552.9375 -11.566406 532.855469 -11.566406 L 204.226562 -11.566406 C 184.054688 -11.566406 167.714844 4.777344 167.714844 24.953125 L 167.714844 97.992188 C 167.714844 118.078125 184.054688 134.511719 204.226562 134.511719 L 259 134.511719 L 259 207.554688 L 240.742188 207.554688 C 220.566406 207.554688 204.226562 223.894531 204.226562 244.074219 L 204.226562 317.113281 L 103.8125 317.113281 C 93.679688 317.113281 85.554688 325.238281 85.554688 335.375 L 85.554688 371.894531 C 85.554688 412.15625 118.328125 444.933594 158.585938 444.933594 L 268.128906 444.933594 L 268.128906 536.234375 C 268.128906 546.277344 276.253906 554.492188 286.386719 554.492188 L 292.683594 554.492188 L 259.179688 789.226562 C 258.453125 794.523438 260.003906 799.816406 263.472656 803.835938 C 266.941406 807.851562 271.960938 810.132812 277.257812 810.132812 L 350.285156 810.132812 C 358.136719 810.132812 365.074219 805.113281 367.628906 797.625 L 405.054688 685.234375 L 442.484375 797.625 C 444.949219 805.113281 451.976562 810.132812 459.828125 810.132812 L 532.855469 810.132812 C 538.152344 810.132812 543.171875 807.851562 546.640625 803.835938 C 550.109375 799.816406 551.660156 794.523438 550.929688 789.226562 L 517.335938 554.492188 L 523.726562 554.492188 C 533.769531 554.492188 541.984375 546.277344 541.984375 536.234375 L 541.984375 444.933594 L 651.527344 444.933594 C 691.785156 444.933594 724.554688 412.15625 724.554688 371.894531 L 724.554688 335.375 C 724.554688 325.238281 716.339844 317.113281 706.300781 317.113281 Z M 624.140625 134.511719 L 624.140625 207.554688 L 295.511719 207.554688 L 295.511719 134.511719 Z M 204.226562 97.992188 L 204.226562 24.953125 L 532.855469 24.953125 L 532.855469 97.992188 Z M 240.742188 244.074219 L 569.371094 244.074219 L 569.371094 317.113281 L 486.664062 317.113281 C 482.101562 276.121094 447.230469 244.074219 405.054688 244.074219 C 362.789062 244.074219 328.011719 276.121094 323.445312 317.113281 L 240.742188 317.113281 Z M 450.699219 326.242188 C 450.699219 351.441406 430.25 371.894531 405.054688 371.894531 C 379.863281 371.894531 359.414062 351.441406 359.414062 326.242188 C 359.414062 301.042969 379.863281 280.59375 405.054688 280.59375 C 430.25 280.59375 450.699219 301.042969 450.699219 326.242188 Z M 472.972656 773.613281 L 422.402344 621.691406 C 419.84375 614.296875 412.90625 609.273438 405.054688 609.273438 C 397.207031 609.273438 390.175781 614.296875 387.710938 621.691406 L 337.140625 773.613281 L 298.25 773.613281 L 329.5625 554.492188 L 480.457031 554.492188 L 511.769531 773.613281 Z M 688.042969 371.894531 C 688.042969 391.980469 671.609375 408.414062 651.527344 408.414062 L 523.726562 408.414062 C 513.59375 408.414062 505.46875 416.539062 505.46875 426.671875 L 505.46875 517.972656 L 304.640625 517.972656 L 304.640625 426.671875 C 304.640625 416.539062 296.425781 408.414062 286.386719 408.414062 L 158.585938 408.414062 C 138.410156 408.414062 122.070312 391.980469 122.070312 371.894531 L 122.070312 353.632812 L 327.644531 353.632812 C 338.964844 385.496094 369.363281 408.414062 405.054688 408.414062 C 440.75 408.414062 471.054688 385.496094 482.375 353.632812 L 688.042969 353.632812 Z M 688.042969 371.894531 " fill-opacity="1" fill-rule="nonzero"/></g></svg>
