<svg xmlns="http://www.w3.org/2000/svg" xmlns:xlink="http://www.w3.org/1999/xlink" width="1080" zoomAndPan="magnify" viewBox="0 0 810 809.999993" height="1080" preserveAspectRatio="xMidYMid meet" version="1.0"><rect x="-81" width="972" fill="#ffffff" y="-80.999999" height="971.999992" fill-opacity="1"/><rect x="-81" width="972" fill="#ffffff" y="-80.999999" height="971.999992" fill-opacity="1"/><path fill="#780032" d="M 487.203125 202.15625 C 527.015625 218.855469 572.820312 200.121094 589.523438 160.3125 C 606.222656 120.503906 587.488281 74.695312 547.675781 57.996094 C 507.871094 41.296875 462.0625 60.03125 445.363281 99.84375 C 428.664062 139.648438 447.398438 185.457031 487.203125 202.15625 Z M 481.222656 71.398438 L 486.328125 80.246094 L 489.84375 78.21875 L 484.726562 69.363281 C 493.902344 64.40625 504.332031 61.492188 515.410156 61.167969 L 515.410156 80.253906 L 519.46875 80.253906 L 519.46875 61.167969 C 530.550781 61.488281 540.976562 64.40625 550.152344 69.355469 L 545.039062 78.21875 L 548.550781 80.246094 L 553.664062 71.394531 C 562.78125 77.035156 570.480469 84.734375 576.121094 93.851562 L 567.269531 98.964844 L 569.296875 102.476562 L 578.160156 97.359375 C 583.113281 106.535156 586.027344 116.960938 586.347656 128.042969 L 567.269531 128.042969 L 567.265625 132.101562 L 586.351562 132.101562 C 586.03125 143.179688 583.113281 153.609375 578.164062 162.785156 L 569.304688 157.671875 L 567.277344 161.183594 L 576.125 166.296875 C 570.488281 175.414062 562.785156 183.117188 553.667969 188.753906 L 548.558594 179.902344 L 545.046875 181.933594 L 550.160156 190.789062 C 540.988281 195.742188 530.558594 198.65625 519.480469 198.980469 L 519.480469 179.894531 L 515.421875 179.894531 L 515.421875 198.976562 C 504.339844 198.65625 493.914062 195.738281 484.734375 190.785156 L 489.847656 181.929688 L 486.335938 179.902344 L 481.226562 188.75 C 472.109375 183.113281 464.410156 175.410156 458.769531 166.292969 L 467.617188 161.183594 L 465.589844 157.671875 L 456.734375 162.785156 C 451.78125 153.613281 448.863281 143.183594 448.542969 132.105469 L 467.625 132.105469 L 467.621094 128.042969 L 448.542969 128.042969 C 448.863281 116.964844 451.78125 106.535156 456.730469 97.363281 L 465.585938 102.476562 L 467.613281 98.960938 L 458.765625 93.855469 C 464.40625 84.738281 472.109375 77.035156 481.222656 71.398438 Z M 481.222656 71.398438 " fill-opacity="1" fill-rule="nonzero"/><path fill="#780032" d="M 508.632812 179.746094 L 518.460938 135.390625 L 543.507812 160.972656 L 547.929688 156.640625 L 520.054688 128.179688 L 522.257812 118.230469 L 517.859375 117.257812 L 516.289062 124.335938 L 511.859375 119.8125 L 507.4375 124.140625 L 514.691406 131.546875 L 504.226562 178.769531 Z M 508.632812 179.746094 " fill-opacity="1" fill-rule="nonzero"/><path fill="#780032" d="M 410.695312 470.824219 L 753.375 470.824219 L 753.375 730.476562 L 774.1875 730.476562 L 774.1875 470.824219 L 809.871094 470.824219 L 809.871094 447.035156 L 410.695312 447.035156 Z M 410.695312 470.824219 " fill-opacity="1" fill-rule="nonzero"/><path fill="#780032" d="M 261.097656 574.15625 L 202.121094 574.15625 L 150.910156 389.140625 C 146.101562 393.125 141.101562 397.367188 135.929688 401.902344 L 187.710938 588.988281 L 173.390625 727.113281 L 191.136719 728.957031 L 204.488281 600.171875 L 311.804688 600.171875 L 325.160156 728.957031 L 342.910156 727.113281 L 328.894531 591.996094 L 338.0625 591.996094 L 338.0625 589.910156 Z M 261.097656 574.15625 " fill-opacity="1" fill-rule="nonzero"/><path fill="#780032" d="M 272.972656 359.804688 C 253.359375 362.175781 234.007812 356.753906 218.488281 344.53125 C 203.058594 332.382812 193.261719 314.953125 190.902344 295.457031 C 190.855469 295.074219 190.835938 294.695312 190.792969 294.316406 C 189.960938 294.453125 189.132812 294.628906 188.308594 294.839844 C 185.707031 295.332031 183.144531 296.242188 180.730469 297.652344 C 177.113281 299.769531 91.21875 350.644531 8.242188 453.5625 C -0.00390625 463.792969 1.601562 478.765625 11.832031 487.015625 C 11.902344 487.074219 11.976562 487.128906 12.050781 487.1875 C 22.269531 495.238281 37.09375 493.582031 45.277344 483.425781 C 90.496094 427.339844 137.164062 387.496094 168.253906 363.988281 C 168.382812 367.632812 168.53125 371.269531 168.765625 374.84375 C 172.296875 429.515625 187.332031 476.839844 208.972656 535.050781 C 210.082031 538.042969 211.578125 540.742188 213.332031 543.132812 C 218.316406 552.714844 227.402344 560.0625 238.804688 562.410156 L 240.609375 562.785156 L 378.421875 591.191406 L 426.726562 742.863281 C 431.445312 757.6875 444.597656 767.488281 459.207031 768.648438 C 463.871094 769.019531 468.683594 768.507812 473.417969 767 C 492.980469 760.769531 503.785156 739.867188 497.554688 720.304688 L 442.648438 547.902344 C 438.570312 535.09375 427.898438 525.488281 414.738281 522.773438 L 302.136719 499.5625 L 307.675781 493.871094 L 416.117188 516.078125 C 431.683594 519.289062 444.34375 530.6875 449.164062 545.828125 L 465.300781 596.507812 L 548.289062 671.917969 C 563.480469 685.722656 586.992188 684.597656 600.792969 669.40625 C 614.601562 654.214844 613.453125 630.691406 598.285156 616.902344 L 473.1875 503.226562 C 466.914062 497.527344 458.886719 494.140625 450.429688 493.628906 L 333.335938 486.5625 C 317.386719 446.148438 317.949219 417.074219 326.980469 387.742188 L 351.648438 425.484375 C 356.179688 432.421875 363.777344 436.261719 371.578125 436.261719 C 375.328125 436.261719 379.128906 435.371094 382.65625 433.511719 C 383.121094 433.265625 429.960938 409.082031 488.03125 422.738281 C 492.816406 423.867188 497.601562 423.460938 501.871094 421.84375 L 501.871094 431.625 L 651.582031 431.625 L 729.878906 276.5625 L 713.957031 268.519531 L 640.605469 413.785156 L 512.558594 413.785156 C 514.449219 411.25 515.867188 408.304688 516.632812 405.03125 C 519.644531 392.242188 511.714844 379.4375 498.925781 376.425781 C 448.757812 364.617188 405.042969 374.644531 380.734375 383.023438 L 344.492188 327.574219 C 343.59375 325.964844 342.527344 324.375 341.328125 322.824219 C 340.53125 321.714844 339.675781 320.675781 338.734375 319.742188 C 336.820312 317.667969 334.703125 315.761719 332.5 314.097656 C 322.769531 338.210938 300.5625 356.464844 272.972656 359.804688 Z M 272.972656 359.804688 " fill-opacity="1" fill-rule="nonzero"/><path fill="#780032" d="M 197.691406 294.636719 C 202.132812 331.320312 235.46875 357.457031 272.152344 353.015625 C 308.835938 348.578125 334.972656 315.238281 330.53125 278.554688 C 326.089844 241.871094 292.753906 215.730469 256.070312 220.175781 C 219.386719 224.613281 193.25 257.949219 197.691406 294.636719 Z M 316.132812 302.578125 L 314.019531 311.242188 C 313.667969 311.164062 279.347656 303.164062 253.949219 323.757812 L 248.332031 316.828125 C 277.226562 293.402344 314.5625 302.191406 316.132812 302.578125 Z M 316.132812 302.578125 " fill-opacity="1" fill-rule="nonzero"/><path fill="#780032" d="M 364.742188 258.765625 C 364.742188 259.351562 364.683594 259.933594 364.570312 260.507812 C 364.457031 261.082031 364.285156 261.636719 364.0625 262.179688 C 363.835938 262.722656 363.5625 263.234375 363.238281 263.722656 C 362.910156 264.207031 362.542969 264.660156 362.128906 265.074219 C 361.714844 265.488281 361.261719 265.859375 360.777344 266.183594 C 360.289062 266.507812 359.773438 266.785156 359.234375 267.007812 C 358.691406 267.230469 358.136719 267.402344 357.558594 267.515625 C 356.984375 267.628906 356.40625 267.6875 355.820312 267.6875 C 355.234375 267.6875 354.652344 267.628906 354.078125 267.515625 C 353.503906 267.402344 352.949219 267.230469 352.40625 267.007812 C 351.863281 266.785156 351.351562 266.507812 350.863281 266.183594 C 350.378906 265.859375 349.925781 265.488281 349.511719 265.074219 C 349.097656 264.660156 348.726562 264.207031 348.402344 263.722656 C 348.078125 263.234375 347.800781 262.722656 347.578125 262.179688 C 347.355469 261.636719 347.183594 261.082031 347.070312 260.507812 C 346.957031 259.933594 346.898438 259.351562 346.898438 258.765625 C 346.898438 258.179688 346.957031 257.601562 347.070312 257.027344 C 347.183594 256.449219 347.355469 255.894531 347.578125 255.351562 C 347.800781 254.8125 348.078125 254.296875 348.402344 253.808594 C 348.726562 253.324219 349.097656 252.871094 349.511719 252.457031 C 349.925781 252.042969 350.378906 251.675781 350.863281 251.347656 C 351.351562 251.023438 351.863281 250.75 352.40625 250.523438 C 352.949219 250.300781 353.503906 250.128906 354.078125 250.015625 C 354.652344 249.902344 355.234375 249.84375 355.820312 249.84375 C 356.40625 249.84375 356.984375 249.902344 357.558594 250.015625 C 358.136719 250.128906 358.691406 250.300781 359.234375 250.523438 C 359.773438 250.75 360.289062 251.023438 360.777344 251.347656 C 361.261719 251.675781 361.714844 252.042969 362.128906 252.457031 C 362.542969 252.871094 362.910156 253.324219 363.238281 253.808594 C 363.5625 254.296875 363.835938 254.8125 364.0625 255.351562 C 364.285156 255.894531 364.457031 256.449219 364.570312 257.027344 C 364.683594 257.601562 364.742188 258.179688 364.742188 258.765625 Z M 364.742188 258.765625 " fill-opacity="1" fill-rule="nonzero"/><path fill="#780032" d="M 391.996094 213.914062 C 391.996094 214.808594 391.910156 215.695312 391.734375 216.570312 C 391.558594 217.449219 391.300781 218.300781 390.960938 219.128906 C 390.617188 219.953125 390.195312 220.738281 389.699219 221.484375 C 389.203125 222.226562 388.636719 222.917969 388.003906 223.550781 C 387.371094 224.179688 386.683594 224.746094 385.941406 225.242188 C 385.195312 225.742188 384.410156 226.160156 383.582031 226.503906 C 382.757812 226.84375 381.90625 227.105469 381.027344 227.277344 C 380.148438 227.453125 379.261719 227.539062 378.367188 227.539062 C 377.472656 227.539062 376.585938 227.453125 375.710938 227.277344 C 374.832031 227.105469 373.980469 226.84375 373.152344 226.503906 C 372.328125 226.160156 371.542969 225.742188 370.796875 225.242188 C 370.054688 224.746094 369.363281 224.183594 368.730469 223.550781 C 368.097656 222.917969 367.535156 222.226562 367.039062 221.484375 C 366.539062 220.738281 366.121094 219.953125 365.777344 219.128906 C 365.4375 218.300781 365.175781 217.449219 365.003906 216.570312 C 364.828125 215.695312 364.742188 214.808594 364.742188 213.914062 C 364.742188 213.019531 364.828125 212.132812 365.003906 211.253906 C 365.175781 210.375 365.4375 209.523438 365.777344 208.699219 C 366.121094 207.871094 366.539062 207.085938 367.039062 206.339844 C 367.535156 205.597656 368.097656 204.910156 368.730469 204.277344 C 369.363281 203.644531 370.054688 203.078125 370.796875 202.582031 C 371.542969 202.085938 372.328125 201.664062 373.152344 201.320312 C 373.980469 200.980469 374.832031 200.722656 375.710938 200.546875 C 376.585938 200.371094 377.472656 200.285156 378.367188 200.285156 C 379.261719 200.285156 380.148438 200.371094 381.027344 200.546875 C 381.90625 200.722656 382.757812 200.980469 383.582031 201.320312 C 384.410156 201.664062 385.195312 202.085938 385.941406 202.582031 C 386.683594 203.078125 387.371094 203.644531 388.003906 204.277344 C 388.636719 204.910156 389.203125 205.597656 389.699219 206.339844 C 390.195312 207.085938 390.617188 207.871094 390.960938 208.699219 C 391.300781 209.523438 391.558594 210.375 391.734375 211.253906 C 391.910156 212.132812 391.996094 213.019531 391.996094 213.914062 Z M 391.996094 213.914062 " fill-opacity="1" fill-rule="nonzero"/><path fill="#780032" d="M 357.554688 181.699219 C 357.554688 182.59375 357.464844 183.480469 357.292969 184.359375 C 357.117188 185.234375 356.859375 186.089844 356.515625 186.914062 C 356.175781 187.742188 355.753906 188.527344 355.257812 189.269531 C 354.761719 190.015625 354.195312 190.703125 353.5625 191.335938 C 352.929688 191.96875 352.242188 192.535156 351.496094 193.03125 C 350.753906 193.527344 349.96875 193.949219 349.140625 194.289062 C 348.3125 194.632812 347.460938 194.890625 346.585938 195.066406 C 345.707031 195.242188 344.820312 195.328125 343.925781 195.328125 C 343.03125 195.328125 342.144531 195.242188 341.265625 195.066406 C 340.390625 194.890625 339.539062 194.632812 338.710938 194.289062 C 337.882812 193.949219 337.097656 193.527344 336.355469 193.03125 C 335.609375 192.535156 334.921875 191.96875 334.289062 191.335938 C 333.65625 190.703125 333.09375 190.015625 332.59375 189.269531 C 332.097656 188.527344 331.679688 187.742188 331.335938 186.914062 C 330.992188 186.089844 330.734375 185.234375 330.558594 184.359375 C 330.386719 183.480469 330.296875 182.59375 330.296875 181.699219 C 330.296875 180.804688 330.386719 179.917969 330.558594 179.042969 C 330.734375 178.164062 330.992188 177.3125 331.335938 176.484375 C 331.679688 175.65625 332.097656 174.871094 332.59375 174.128906 C 333.09375 173.382812 333.65625 172.695312 334.289062 172.0625 C 334.921875 171.429688 335.609375 170.867188 336.355469 170.367188 C 337.097656 169.871094 337.882812 169.453125 338.710938 169.109375 C 339.539062 168.765625 340.390625 168.507812 341.265625 168.332031 C 342.144531 168.160156 343.03125 168.070312 343.925781 168.070312 C 344.820312 168.070312 345.707031 168.160156 346.585938 168.332031 C 347.460938 168.507812 348.3125 168.765625 349.140625 169.109375 C 349.96875 169.453125 350.753906 169.871094 351.496094 170.367188 C 352.242188 170.867188 352.929688 171.429688 353.5625 172.0625 C 354.195312 172.695312 354.761719 173.382812 355.257812 174.128906 C 355.753906 174.871094 356.175781 175.65625 356.515625 176.484375 C 356.859375 177.3125 357.117188 178.164062 357.292969 179.042969 C 357.464844 179.917969 357.554688 180.804688 357.554688 181.699219 Z M 357.554688 181.699219 " fill-opacity="1" fill-rule="nonzero"/><path fill="#780032" d="M 403.148438 150.351562 C 403.148438 150.910156 403.121094 151.464844 403.066406 152.015625 C 403.011719 152.570312 402.929688 153.117188 402.820312 153.664062 C 402.710938 154.210938 402.578125 154.746094 402.417969 155.28125 C 402.253906 155.8125 402.066406 156.335938 401.855469 156.847656 C 401.644531 157.363281 401.40625 157.863281 401.144531 158.355469 C 400.882812 158.84375 400.597656 159.320312 400.285156 159.78125 C 399.976562 160.246094 399.648438 160.691406 399.292969 161.121094 C 398.941406 161.550781 398.570312 161.960938 398.175781 162.355469 C 397.78125 162.746094 397.371094 163.121094 396.941406 163.472656 C 396.511719 163.824219 396.066406 164.15625 395.605469 164.464844 C 395.140625 164.773438 394.664062 165.058594 394.175781 165.320312 C 393.683594 165.582031 393.183594 165.820312 392.667969 166.035156 C 392.15625 166.246094 391.632812 166.433594 391.101562 166.59375 C 390.570312 166.757812 390.03125 166.890625 389.484375 167 C 388.941406 167.109375 388.390625 167.1875 387.839844 167.242188 C 387.285156 167.296875 386.730469 167.324219 386.175781 167.324219 C 385.617188 167.324219 385.0625 167.296875 384.511719 167.242188 C 383.957031 167.1875 383.410156 167.109375 382.863281 167 C 382.316406 166.890625 381.777344 166.757812 381.246094 166.59375 C 380.714844 166.433594 380.191406 166.246094 379.679688 166.035156 C 379.164062 165.820312 378.664062 165.582031 378.171875 165.320312 C 377.683594 165.058594 377.207031 164.773438 376.746094 164.464844 C 376.28125 164.15625 375.835938 163.824219 375.40625 163.472656 C 374.976562 163.121094 374.566406 162.746094 374.171875 162.355469 C 373.78125 161.960938 373.40625 161.550781 373.054688 161.121094 C 372.703125 160.691406 372.371094 160.246094 372.0625 159.78125 C 371.753906 159.320312 371.46875 158.84375 371.207031 158.355469 C 370.941406 157.863281 370.707031 157.363281 370.492188 156.847656 C 370.28125 156.335938 370.09375 155.8125 369.933594 155.28125 C 369.769531 154.746094 369.636719 154.210938 369.527344 153.664062 C 369.417969 153.117188 369.335938 152.570312 369.28125 152.015625 C 369.226562 151.464844 369.203125 150.910156 369.203125 150.351562 C 369.203125 149.796875 369.226562 149.242188 369.28125 148.6875 C 369.335938 148.136719 369.417969 147.585938 369.527344 147.042969 C 369.636719 146.496094 369.769531 145.957031 369.933594 145.425781 C 370.09375 144.894531 370.28125 144.371094 370.492188 143.855469 C 370.707031 143.34375 370.941406 142.839844 371.207031 142.351562 C 371.46875 141.859375 371.753906 141.386719 372.0625 140.921875 C 372.371094 140.460938 372.703125 140.015625 373.054688 139.585938 C 373.40625 139.15625 373.78125 138.742188 374.171875 138.351562 C 374.566406 137.957031 374.976562 137.585938 375.40625 137.230469 C 375.835938 136.878906 376.28125 136.546875 376.746094 136.238281 C 377.207031 135.929688 377.683594 135.644531 378.171875 135.382812 C 378.664062 135.121094 379.164062 134.882812 379.679688 134.671875 C 380.191406 134.457031 380.714844 134.273438 381.246094 134.109375 C 381.777344 133.949219 382.316406 133.8125 382.863281 133.707031 C 383.410156 133.597656 383.957031 133.515625 384.511719 133.460938 C 385.0625 133.40625 385.617188 133.378906 386.175781 133.378906 C 386.730469 133.378906 387.285156 133.40625 387.839844 133.460938 C 388.390625 133.515625 388.941406 133.597656 389.484375 133.707031 C 390.03125 133.8125 390.570312 133.949219 391.101562 134.109375 C 391.632812 134.273438 392.15625 134.457031 392.667969 134.671875 C 393.183594 134.882812 393.683594 135.121094 394.175781 135.382812 C 394.664062 135.644531 395.140625 135.929688 395.605469 136.238281 C 396.066406 136.546875 396.511719 136.878906 396.941406 137.230469 C 397.371094 137.585938 397.78125 137.957031 398.175781 138.351562 C 398.570312 138.742188 398.941406 139.15625 399.292969 139.585938 C 399.648438 140.015625 399.976562 140.460938 400.285156 140.921875 C 400.597656 141.386719 400.882812 141.859375 401.144531 142.351562 C 401.40625 142.839844 401.644531 143.34375 401.855469 143.855469 C 402.066406 144.371094 402.253906 144.894531 402.417969 145.425781 C 402.578125 145.957031 402.710938 146.496094 402.820312 147.042969 C 402.929688 147.585938 403.011719 148.136719 403.066406 148.6875 C 403.121094 149.242188 403.148438 149.796875 403.148438 150.351562 Z M 403.148438 150.351562 " fill-opacity="1" fill-rule="nonzero"/></svg>
