<svg xmlns="http://www.w3.org/2000/svg" xmlns:xlink="http://www.w3.org/1999/xlink" width="1080" zoomAndPan="magnify" viewBox="0 0 810 809.999993" height="1080" preserveAspectRatio="xMidYMid meet" version="1.0"><rect x="-81" width="972" fill="#ffffff" y="-80.999999" height="971.999992" fill-opacity="1"/><rect x="-81" width="972" fill="#ffffff" y="-80.999999" height="971.999992" fill-opacity="1"/><path fill="#780032" d="M 618.792969 734.035156 C 622.789062 724.5 626.507812 712.105469 620.511719 702.515625 C 616.40625 695.949219 607.566406 692.070312 600.007812 694.203125 C 591.113281 696.714844 588.742188 706.8125 592.507812 714.464844 C 597.507812 724.625 609.160156 726.539062 619.292969 727.675781 L 619.292969 720.007812 C 597.933594 721.960938 577.101562 701.527344 580.21875 679.800781 C 580.898438 675.054688 574.257812 672.882812 572.824219 677.761719 C 571.394531 682.640625 569.980469 687.46875 568.558594 692.320312 C 567.988281 694.265625 569.246094 696.550781 571.238281 697.035156 C 582.179688 699.71875 591.558594 707.367188 595.871094 717.878906 L 602.878906 714.921875 C 594.265625 697.605469 578.132812 684.730469 559.390625 680.066406 L 561.082031 686.472656 L 586.097656 661.40625 L 579.695312 659.714844 C 583.621094 677.273438 601.417969 690.152344 619.347656 688.050781 C 622.902344 687.632812 624.847656 682.992188 621.28125 680.90625 C 607.570312 672.875 599.777344 657.441406 601.105469 641.652344 L 599.980469 644.359375 C 603.714844 640.316406 609.527344 640.203125 614.289062 642.535156 C 620.261719 645.46875 622.667969 651.792969 622.167969 658.199219 C 620.929688 674.175781 605.316406 682.847656 592.429688 688.925781 L 598.0625 693.253906 C 608.324219 668.398438 594.175781 637.925781 569.3125 628.625 C 567.425781 627.917969 565.035156 629.421875 564.597656 631.308594 C 560.308594 649.742188 570.914062 669.089844 588.589844 675.625 L 587.675781 668.613281 C 570.089844 679.386719 544.566406 667.144531 541.339844 646.976562 C 540.660156 642.738281 533.46875 643.691406 533.808594 647.996094 L 536.714844 684.53125 L 541.5625 680.832031 C 516.136719 673.601562 497.144531 649.394531 496.277344 622.933594 C 496.203125 620.695312 493.84375 618.265625 491.425781 619.238281 C 478.339844 624.496094 465.25 629.75 452.164062 635.003906 C 449.765625 635.96875 448.023438 639.359375 450.472656 641.414062 L 494.367188 678.242188 L 496.058594 671.835938 C 474.699219 679.015625 448.871094 667.671875 440.503906 646.46875 L 439.519531 650.203125 L 462.253906 625.644531 C 464.773438 622.925781 462.328125 618.109375 458.523438 619.238281 L 422.621094 629.894531 C 416.976562 631.570312 411.355469 633.363281 405.671875 634.917969 C 402.742188 635.726562 395.300781 637.691406 395.148438 632.691406 C 395.007812 628.046875 400.691406 623.503906 403.71875 620.617188 C 407.5 617.007812 411.53125 613.671875 415.816406 610.671875 C 424.316406 604.722656 433.589844 600.039062 443.417969 596.730469 L 439.6875 595.746094 C 449.960938 607.242188 444.722656 625.378906 434.289062 634.875 C 421.339844 646.664062 402.882812 641.09375 393.347656 627.863281 C 382.960938 613.453125 383.992188 594.574219 397.269531 582.417969 C 409.808594 570.945312 429.703125 567.699219 444.941406 575.457031 C 464.078125 585.195312 474.097656 607.398438 472.269531 628.28125 C 472.03125 631.011719 474.898438 632.332031 477.121094 631.980469 L 547.324219 620.824219 C 551.308594 620.191406 550.617188 614.472656 547.324219 613.429688 C 532.855469 608.847656 519.507812 599.339844 512.027344 585.925781 C 504.480469 572.394531 504.988281 556.574219 514.199219 543.976562 C 522.664062 532.398438 537.691406 526.207031 551.105469 533.101562 C 563.855469 539.652344 571.175781 554.628906 572.011719 568.527344 C 573.277344 589.507812 562.71875 609.207031 553.25 627.183594 C 552.167969 629.230469 553.007812 632.296875 555.539062 632.816406 C 572.066406 636.207031 590.28125 639.851562 606.445312 633.015625 C 618.355469 627.976562 628.699219 617.367188 629.734375 603.972656 C 630.851562 589.511719 620.390625 578.003906 609.996094 569.480469 C 598.226562 559.824219 585.765625 551.367188 575.96875 539.519531 C 566.699219 528.308594 560.515625 514.648438 561.222656 499.890625 C 561.835938 487.003906 568.105469 473.859375 580.347656 468.375 C 591.796875 463.246094 605.445312 465.925781 615.804688 472.335938 C 628.085938 479.929688 635.007812 493.167969 636.625 507.316406 C 641.007812 545.679688 612.976562 576.105469 588.578125 601.777344 L 594.597656 606.425781 C 604.277344 588.109375 621.507812 566.910156 644.925781 573.933594 C 653.574219 576.527344 660.988281 583.878906 659.585938 593.480469 C 658.425781 601.425781 651.511719 610.414062 642.621094 608.410156 L 644.914062 614.042969 L 665.347656 568.753906 C 666.761719 565.621094 663.605469 561.125 660.105469 563.511719 C 641.679688 576.070312 627.84375 594.050781 620.414062 615.078125 C 619.460938 617.785156 622.457031 620.695312 625.128906 619.796875 C 647.578125 612.242188 670.632812 604.222656 689.191406 588.992188 C 705.136719 575.90625 715.34375 557.535156 715.765625 536.671875 C 715.953125 527.398438 714.070312 517.9375 709.589844 509.765625 C 704.914062 501.242188 697.746094 495.652344 689.222656 491.300781 C 684.695312 488.992188 679.203125 486.628906 676.6875 481.914062 C 673.488281 475.902344 676.265625 468.492188 678.863281 462.789062 C 683.660156 452.253906 689.929688 442.25 697.226562 433.277344 C 713.671875 413.050781 735.378906 397.296875 759.910156 388.402344 L 755.0625 384.707031 C 756.914062 430.425781 739.097656 475.863281 706.585938 508.058594 C 704.046875 510.574219 706.140625 514.289062 709.296875 514.601562 C 748.191406 518.472656 785.6875 489.40625 796.195312 452.558594 C 806.695312 415.722656 785.644531 378.691406 752.597656 361.941406 C 734.429688 352.734375 713.273438 349.726562 693.609375 355.667969 C 688.875 357.09375 690.835938 364.152344 695.648438 363.0625 C 728.109375 355.695312 758.296875 340.328125 783.503906 318.605469 L 777.097656 316.914062 C 786.074219 350.265625 774.070312 387.25 747.523438 409.230469 L 754.066406 411.9375 L 761.878906 331.007812 C 763.605469 313.136719 768.097656 284.625 748.660156 274.144531 C 736.34375 267.503906 714.535156 271.582031 715.425781 288.980469 C 715.945312 299.148438 724.730469 306.664062 733.21875 310.886719 C 743.660156 316.078125 755.078125 318.777344 766 322.71875 C 777.046875 326.699219 787.332031 332.191406 793.199219 342.785156 C 797.828125 351.136719 799.410156 362.117188 792.035156 369.378906 L 798.054688 370.152344 C 786.511719 347.585938 794.886719 321.414062 798.179688 297.914062 C 801.316406 275.496094 800.167969 250.664062 781.195312 235.300781 C 772.40625 228.183594 761.347656 224.652344 750.199219 227.605469 C 745.6875 228.796875 747.199219 234.617188 751.214844 235.136719 C 769.777344 237.542969 784.234375 217.683594 781.90625 200.460938 C 779.21875 180.597656 760.359375 167.394531 742.003906 163.421875 C 728.328125 160.457031 714.269531 161.269531 700.417969 162.175781 C 696.835938 162.410156 694.933594 167.402344 698.484375 169.320312 C 715.953125 178.761719 733.414062 188.207031 750.882812 197.648438 L 748.984375 194.339844 C 746.625 216.058594 721.355469 228.625 701.683594 222.734375 C 678.308594 215.734375 665.566406 190.847656 666.324219 167.675781 C 666.828125 152.371094 672.28125 137.667969 680.121094 124.652344 C 681.769531 121.914062 679.003906 117.894531 675.792969 119.019531 C 652.414062 127.203125 629.035156 135.390625 605.65625 143.574219 C 600.945312 145.226562 602.859375 151.773438 607.699219 150.972656 C 620.339844 148.875 626.902344 167.570312 621.105469 176.683594 C 612.996094 189.425781 593.863281 188.460938 582.371094 181.542969 C 567.183594 172.402344 558.964844 155.621094 550.691406 140.648438 C 546.269531 132.65625 541.621094 124.765625 535.769531 117.71875 C 533.753906 115.296875 530.566406 110.578125 527.253906 109.988281 C 523.265625 109.273438 517.71875 110.773438 513.742188 111.421875 C 493.113281 114.785156 473.378906 123.261719 456.617188 135.734375 L 461.261719 141.757812 C 470.890625 134.210938 486.605469 135.734375 494.464844 145.160156 C 502.484375 154.78125 500.875 170.0625 491.941406 178.445312 L 497.363281 178.445312 C 488.449219 169.585938 489.820312 155.476562 489.382812 143.9375 C 488.914062 131.65625 486.878906 118.699219 476.316406 110.90625 C 464.496094 102.1875 448.03125 103.246094 434.238281 104.839844 C 418.257812 106.6875 402.566406 110.601562 387.648438 116.636719 C 370.941406 123.394531 355.476562 132.523438 341.445312 143.828125 C 338.035156 146.574219 342.4375 152.109375 346.09375 149.851562 C 353.128906 145.492188 361.539062 148.492188 366.976562 154.050781 C 373 160.207031 374.167969 168.742188 370.589844 176.53125 C 361.253906 196.855469 336.1875 198 317.527344 192.523438 C 296.136719 186.246094 277.335938 172.695312 255.183594 168.757812 C 237.792969 165.667969 219.933594 168.265625 203.808594 175.332031 C 185.382812 183.410156 169.636719 197.589844 160.460938 215.578125 C 159.429688 217.605469 160.179688 220.726562 162.753906 221.207031 L 204.808594 229.089844 L 201.996094 225.394531 C 200.625 244.871094 191.378906 263.347656 176.953125 276.445312 C 161.476562 290.496094 140.398438 296.792969 119.710938 294.890625 C 108.980469 293.910156 98.71875 290.464844 89.371094 285.171875 C 80.761719 280.292969 72.746094 274.429688 64.054688 269.695312 C 48.570312 261.269531 29.515625 257.832031 15.496094 271.007812 C 3.972656 281.839844 0.0117188 299.882812 4 314.917969 C 8.683594 332.566406 23.703125 345.769531 39.457031 353.714844 C 58.671875 363.402344 80.355469 364.933594 100.160156 372.859375 C 116.464844 379.378906 135.4375 396.414062 129.9375 416.117188 C 125.015625 433.757812 101.765625 437.351562 87.296875 429.960938 C 68.082031 420.144531 62.21875 395.667969 62.40625 375.851562 C 62.445312 371.847656 57.320312 370.902344 55.265625 373.917969 C 36.691406 401.167969 37.691406 439 54.777344 466.722656 C 58.890625 473.398438 63.957031 479.5625 69.863281 484.726562 C 77.289062 491.214844 85.929688 495.792969 94.617188 500.335938 C 103.90625 505.195312 113.460938 510.195312 120.269531 518.398438 C 126.207031 525.542969 130.25 535.441406 126.707031 544.59375 C 120.210938 561.386719 96.460938 564.527344 81.3125 560.511719 C 72.777344 558.25 64.148438 553.164062 60.398438 544.804688 C 57.398438 538.121094 57.5 529.542969 61.527344 523.308594 C 66.09375 516.234375 74.738281 514.683594 82.25 517.605469 C 90.683594 520.886719 97.484375 528.332031 101.5 536.269531 C 105.976562 545.117188 107.863281 555.152344 110.714844 564.589844 C 113.5 573.804688 117.121094 582.667969 123.222656 590.207031 C 133.726562 603.179688 149.269531 610.863281 163.238281 619.421875 C 176.222656 627.375 189.519531 636.820312 192.023438 652.910156 L 197.652344 648.582031 L 171.722656 629.160156 L 173.097656 634.402344 C 185.988281 616.257812 199.5625 597.082031 219.632812 586.308594 C 237.644531 576.636719 261.128906 574.753906 276.46875 590.34375 C 283.019531 597 287.367188 606.277344 286.285156 615.769531 C 285.207031 625.261719 279.75 633.816406 278.097656 643.257812 C 276.53125 652.191406 279.195312 661.332031 287.628906 665.832031 C 295.988281 670.292969 306.175781 669.273438 315.226562 668.277344 C 341.238281 665.414062 366.402344 657.351562 389.269531 644.625 C 391.9375 643.136719 391.546875 639.574219 389.269531 638.003906 C 369.800781 624.578125 353.328125 605.699219 345.21875 583.257812 C 337.113281 560.816406 337.96875 537.035156 348.515625 516.363281 C 353.738281 506.128906 361.367188 496.683594 371.21875 490.597656 C 380.640625 484.777344 393.425781 481.140625 403.855469 486.5625 C 414.144531 491.914062 418.488281 503.738281 420.335938 514.523438 C 422.183594 525.3125 421.734375 537.050781 419.40625 547.941406 C 414.097656 572.78125 399.234375 595.351562 377.78125 609.113281 C 374.769531 611.042969 375.714844 616.496094 379.714844 616.257812 C 406.707031 614.648438 433.824219 619.253906 458.660156 630.027344 L 457.285156 624.785156 L 448.453125 639.117188 C 447.003906 641.464844 448.847656 645.109375 451.761719 644.882812 C 472.949219 643.25 496.15625 641.050781 512.023438 625.21875 C 525.375 611.894531 529.910156 590.492188 515.558594 576.101562 C 508.597656 569.121094 498.378906 565.492188 488.820312 568.84375 L 493.53125 573.5625 C 501.457031 541.957031 519.097656 513.296875 543.554688 491.796875 C 549.636719 486.445312 556.132812 481.589844 562.984375 477.273438 C 570.414062 472.585938 578.632812 467.765625 587.554688 466.902344 C 603.339844 465.367188 612.617188 479.597656 612.8125 493.960938 C 613.066406 512.996094 597.90625 528.214844 585.578125 540.898438 C 583.027344 543.519531 585.558594 548.574219 589.308594 547.304688 C 625.226562 535.171875 652.636719 503.214844 657.832031 465.464844 C 660.5625 445.632812 657.460938 425.21875 648.917969 407.105469 C 641.152344 390.636719 627.332031 373.171875 607.96875 371 C 599.265625 370.023438 590.0625 372.488281 583.3125 378.140625 C 580.394531 380.589844 576.761719 384.617188 575.964844 388.523438 C 575.382812 391.355469 577.75 394.855469 578.8125 397.410156 L 582.804688 407 C 583.671875 409.09375 585.238281 410.03125 587.515625 409.679688 C 622.84375 404.226562 652.25 375.101562 660.90625 340.808594 C 669.832031 305.433594 653.84375 269.691406 624.8125 248.761719 C 608.78125 237.199219 589.066406 230.757812 569.253906 231.722656 C 565.070312 231.929688 563.882812 238.152344 568.234375 239.257812 C 591.308594 245.105469 611.160156 260.796875 622.640625 281.621094 C 634.546875 303.21875 635.546875 328.953125 626.9375 351.90625 C 622.042969 364.941406 613.9375 376.589844 603.515625 385.792969 L 610.058594 388.503906 C 612.28125 342.039062 651.515625 308.8125 667.015625 267.054688 C 673.722656 248.980469 675.632812 228.734375 669.210938 210.269531 C 663.113281 192.742188 649.566406 179.054688 631.226562 174.785156 C 608.660156 169.527344 584.917969 177.503906 564.945312 187.726562 C 562.804688 188.820312 562.414062 192.144531 564.171875 193.75 C 583.472656 211.347656 604.898438 226.585938 627.949219 238.867188 C 639.320312 244.925781 651.078125 250.269531 663.105469 254.886719 C 674.160156 259.128906 687.164062 263.617188 697.714844 255.691406 C 715.167969 242.574219 711.714844 213.171875 705.761719 195.191406 C 698.480469 173.191406 683.132812 153.84375 662.601562 142.859375 C 638.417969 129.921875 608.578125 128.335938 583.285156 139.011719 C 579.761719 140.5 579.5625 147.128906 584.300781 146.546875 C 606.140625 143.855469 631.988281 140.277344 651.789062 152.421875 C 666.453125 161.40625 678.144531 181.476562 669.238281 198.214844 C 666.882812 202.640625 673.019531 206.054688 675.855469 202.082031 C 690.820312 181.140625 681.582031 151.183594 663.320312 135.417969 C 639.8125 115.117188 606.195312 114.667969 576.890625 116.390625 C 556.453125 117.585938 535.765625 119.632812 515.460938 115.925781 L 514.441406 123.457031 C 543.253906 126.949219 572.066406 130.4375 600.878906 133.925781 L 597.570312 128.15625 C 586.308594 144.9375 562.867188 144.777344 545.574219 139.195312 C 523.378906 132.03125 506.210938 114.332031 486.03125 103.269531 C 465.917969 92.238281 443.460938 89.175781 421.058594 93.980469 C 399.730469 98.550781 378.460938 109.761719 363.011719 125.265625 C 360.164062 128.125 361.320312 130.699219 362.011719 134.398438 L 364.144531 145.820312 L 368.695312 170.1875 C 371.683594 186.175781 374.671875 202.164062 377.65625 218.160156 L 384.660156 215.203125 C 359.679688 179.59375 328.144531 138.238281 279.621094 140.527344 C 267.734375 141.085938 256.132812 144.679688 246.496094 151.761719 C 244.554688 153.1875 243.808594 155.90625 245.722656 157.785156 C 253.542969 165.472656 263.792969 169.46875 274 172.929688 C 283.664062 176.203125 294.472656 178.933594 302.363281 185.761719 C 321.886719 202.667969 304.691406 231.914062 282.335938 234.339844 C 269.039062 235.785156 255.566406 230.117188 245.507812 221.671875 C 235.449219 213.230469 229.257812 202.765625 221.992188 192.660156 C 215.039062 182.988281 207.242188 173.347656 196.445312 167.804688 C 184.964844 161.910156 171.664062 161.492188 159.402344 165.085938 C 127.929688 174.324219 111.71875 204.347656 98.042969 231.683594 C 97.265625 233.230469 97.390625 235.0625 98.644531 236.332031 C 115.59375 253.542969 141.535156 251.167969 161.304688 262.929688 C 185.285156 277.199219 180.804688 308.9375 166.664062 328.589844 C 157.261719 341.65625 144.15625 351.679688 131.558594 361.464844 L 137.582031 362.242188 C 118.472656 327.632812 105.738281 289.847656 99.847656 250.753906 C 99.289062 247.039062 93.113281 247.152344 92.457031 250.753906 C 84.195312 296.015625 93.441406 343.785156 117.671875 382.882812 C 141.910156 421.992188 180.851562 450.175781 225.09375 462.367188 C 250.105469 469.261719 276.292969 470.863281 301.945312 467.027344 L 298.988281 460.015625 C 265.902344 480.941406 220.703125 465.621094 200.367188 434.140625 C 176.917969 397.828125 182.609375 350.824219 203.171875 314.710938 C 213.960938 295.753906 228.375 279.101562 244.425781 264.421875 C 260.039062 250.136719 280.320312 235.101562 302.636719 236.320312 C 321.789062 237.367188 334.878906 252.15625 341.460938 269.019531 C 348.46875 286.984375 350.101562 306.519531 351.046875 325.609375 C 353.199219 369.074219 348.175781 417.722656 316.070312 450.269531 C 302.230469 464.300781 283.449219 474.832031 263.355469 475.097656 C 245.320312 475.34375 226.8125 467.136719 215.585938 452.867188 C 204.355469 438.601562 203.234375 418.515625 213.863281 402.816406 C 218.859375 395.4375 226.207031 389.175781 234.679688 386.21875 C 238.746094 384.800781 242.960938 384.125 247.265625 384.359375 C 249.652344 384.488281 251.175781 384.445312 252.640625 386.324219 C 254.105469 388.203125 255.367188 390.273438 256.441406 392.40625 C 265.125 409.65625 259.949219 431.679688 246.300781 444.734375 C 230.988281 459.382812 209.175781 462.632812 189.023438 459 C 178.539062 457.105469 167.441406 454.425781 156.886719 457.355469 C 147.675781 459.910156 140.742188 466.679688 137.167969 475.4375 C 129.230469 494.886719 139.660156 514.789062 153.84375 528.15625 C 182.453125 555.117188 225.65625 564.269531 263.230469 553.890625 C 272.472656 551.339844 281.367188 547.546875 289.632812 542.691406 C 291.023438 541.875 291.941406 539.949219 291.398438 538.363281 C 277.050781 496.5625 229.070312 470.738281 186.304688 482.125 L 190.035156 488.53125 C 225.082031 457.738281 285.820312 443.097656 321.738281 480.632812 C 335.851562 495.378906 344.351562 516.207031 342.597656 536.734375 C 340.585938 560.21875 323.039062 577.84375 301.671875 585.832031 C 269.957031 597.6875 235.921875 589.699219 204.210938 582.101562 C 201.148438 581.371094 197.941406 584.820312 199.882812 587.734375 C 217.734375 614.566406 247.761719 631.691406 279.707031 634.75 C 311.515625 637.796875 342.671875 624.984375 364.367188 601.746094 C 386.058594 578.511719 396.246094 547.070312 392.46875 515.355469 C 388.707031 483.792969 374.179688 454.953125 360.578125 426.675781 C 345.292969 394.886719 329.429688 361.316406 331.683594 325.128906 L 328.867188 328.828125 C 366.542969 315.363281 408.828125 300.535156 448.058594 316.761719 C 463.410156 323.113281 477.089844 334.164062 484.203125 349.4375 C 492.8125 367.9375 490.476562 389.804688 483.257812 408.335938 C 474.808594 430.019531 459.425781 448.242188 444.464844 465.699219 L 449.109375 465.101562 C 429.304688 451.816406 417.371094 428.332031 417.121094 404.597656 C 416.859375 380.144531 430.117188 357.71875 450.550781 344.640625 C 462.0625 337.273438 475.308594 333.085938 488.996094 332.988281 L 486.289062 331.863281 C 506.769531 356.648438 512.773438 391.621094 502.375 421.941406 L 509.378906 421.027344 C 504.71875 414.878906 501.492188 407.972656 499.945312 400.402344 C 499.175781 396.625 498.894531 392.769531 499.03125 388.921875 C 499.09375 387.175781 499.234375 385.425781 499.5 383.695312 C 499.867188 381.289062 499.992188 380.710938 501.75 379.039062 C 510.894531 370.367188 524.964844 367.898438 536.820312 371.625 C 562.6875 379.757812 566.792969 418.449219 543.445312 432.066406 C 531.167969 439.226562 514.3125 438.550781 503.308594 429.265625 L 500.601562 435.808594 C 517.78125 437.527344 532.808594 448.828125 539.933594 464.421875 L 539.546875 461.464844 C 528.355469 496.191406 491.4375 518.441406 455.761719 517.25 C 445.492188 516.910156 435.339844 514.511719 426.09375 510.015625 L 425.175781 517.027344 L 435.59375 514.253906 L 432.636719 513.863281 C 443.414062 520.648438 442.753906 537.824219 433.9375 545.960938 C 422.558594 556.460938 403.660156 551.820312 394.007812 541.410156 C 382.535156 529.03125 381.027344 510.335938 384.679688 494.578125 C 388.757812 476.96875 397.9375 460.277344 407.625 445.152344 C 424.902344 418.164062 454.085938 392.34375 488.664062 400.238281 C 503.183594 403.554688 514.511719 413.449219 520.671875 426.886719 C 526.710938 440.054688 527.71875 455.1875 526.886719 469.453125 C 524.574219 508.789062 503.714844 548.523438 519.097656 587.617188 C 520.113281 590.207031 523.308594 591.53125 525.5 589.308594 C 558.441406 555.964844 592.167969 521.515625 613.316406 479.132812 C 631.339844 443.003906 638.160156 401.609375 627.058594 362.261719 C 616.632812 325.320312 588.097656 291.78125 548.148438 287.484375 C 528.339844 285.351562 508.019531 292.285156 496.582031 309.214844 C 485.296875 325.921875 484.753906 348.703125 491.4375 367.253906 C 499.179688 388.734375 515.378906 405.808594 532.410156 420.402344 C 550.140625 435.601562 569.839844 449.945312 592.46875 456.742188 C 613.082031 462.929688 635.363281 460.894531 652.609375 447.316406 C 667.976562 435.21875 676.867188 416.265625 680.644531 397.414062 C 688.78125 356.769531 675.140625 313.289062 650.035156 281.082031 C 623.347656 246.835938 583.277344 226.253906 539.9375 224.203125 C 518.050781 223.167969 495.777344 226.75 475.414062 234.878906 C 465.464844 238.851562 455.832031 243.765625 447.035156 249.894531 C 444.730469 251.5 444.050781 252.703125 444.203125 255.527344 C 444.339844 258.023438 444.609375 260.507812 444.953125 262.980469 C 445.617188 267.75 446.671875 272.453125 448.128906 277.042969 C 459.703125 313.546875 493.921875 342.160156 531.796875 347.40625 C 541.21875 348.710938 550.617188 348.503906 559.980469 346.84375 C 561.722656 346.535156 562.664062 344.726562 562.796875 343.144531 C 565.582031 309.449219 549.695312 275.390625 523.167969 254.710938 C 496.449219 233.882812 460.503906 229.371094 428.832031 240.75 C 411.4375 247 395.726562 257.667969 384.179688 272.175781 C 382.574219 274.191406 382.75 276.691406 384.957031 278.199219 L 392.167969 283.128906 C 393.855469 284.28125 395.878906 286.3125 397.890625 286.800781 C 401.285156 287.628906 406.070312 285.304688 409.035156 283.777344 C 415.566406 280.410156 420.851562 274.5625 424.113281 268.03125 C 431.257812 253.714844 429.367188 237.050781 418.542969 225.136719 C 407.492188 212.976562 389.671875 207.839844 373.726562 210.945312 C 356.351562 214.332031 341.710938 226.921875 332.980469 241.960938 C 321.214844 262.226562 320.214844 286.527344 323.386719 309.203125 C 323.546875 310.351562 324.910156 311.726562 326.066406 311.882812 C 343.683594 314.28125 361.832031 304.671875 368.972656 288.132812 C 375.957031 271.953125 370.058594 252.222656 356.414062 241.429688 C 353.714844 239.289062 349.863281 236.21875 346.320312 235.984375 C 341.976562 235.695312 336.441406 237.714844 332.308594 238.917969 C 323.878906 241.382812 315.738281 244.984375 308.210938 249.503906 C 293.058594 258.589844 280.160156 271.367188 270.710938 286.28125 C 260.054688 303.089844 254.011719 322.703125 254.109375 342.648438 C 254.128906 346.089844 258.230469 347.550781 260.652344 345.355469 C 271.507812 335.535156 271.523438 319.863281 265.441406 307.417969 C 258.695312 293.613281 244.90625 284.925781 229.453125 286 C 211.324219 287.257812 195.628906 299.460938 186.238281 314.488281 C 175.082031 332.339844 173.367188 354.46875 173.867188 375 C 173.996094 380.152344 174.265625 385.296875 174.570312 390.441406 C 174.6875 392.347656 174.386719 394.828125 175.351562 396.558594 C 176.3125 398.289062 178.582031 399.675781 180.167969 400.730469 C 185.769531 404.449219 192.835938 405.8125 199.464844 405.15625 C 213.398438 403.777344 227.074219 394.578125 231.230469 380.785156 C 236.164062 364.425781 226.144531 347.398438 212.265625 339.0625 C 197.140625 329.980469 178.984375 332.0625 165.523438 343.140625 C 150.726562 355.316406 144.164062 375.714844 148.917969 394.214844 C 153.972656 413.894531 169.753906 429.3125 188.382812 436.5 C 189.917969 437.089844 191.941406 436.109375 192.707031 434.734375 C 206.535156 410.054688 221.539062 381.042969 209.457031 352.636719 C 204.78125 341.640625 196.414062 332.09375 184.972656 327.988281 C 173.535156 323.878906 160.621094 326.46875 150.574219 333.210938 C 127.449219 348.730469 115.386719 379.566406 112.28125 406.222656 C 109.179688 432.875 120.207031 464.511719 148.179688 473.292969 C 173.195312 481.140625 199.425781 465.488281 214.445312 446.203125 C 231.496094 424.308594 240.09375 390.25 222.058594 366.40625 C 214.410156 356.296875 202.78125 349.285156 189.875 349.367188 C 175.125 349.457031 161.921875 357.792969 151.097656 367.105469 C 129.496094 385.695312 112.414062 411.390625 107.730469 439.847656 C 103.457031 465.796875 110.058594 493.597656 127.578125 513.550781 C 146.167969 534.714844 176.820312 543.132812 203.710938 534.855469 C 228.734375 527.15625 249.144531 504.921875 253.808594 479 C 258.167969 454.746094 249.035156 429.703125 232.363281 411.976562 C 215.035156 393.550781 190.382812 384.761719 165.320312 388.109375 C 140.320312 391.449219 117.28125 405.605469 102.519531 425.984375 C 86.796875 447.683594 82.769531 475.941406 88.171875 501.832031 C 93.765625 528.660156 109.5625 552.238281 131.917969 567.957031 C 154.414062 583.777344 182.65625 591.308594 210.035156 590.042969 C 237.316406 588.785156 266.300781 578.921875 283.289062 556.441406 C 298.71875 536.03125 300.417969 504.460938 281.394531 485.714844 C 265.574219 470.121094 242.523438 466.609375 223.40625 456.730469 C 214.503906 452.132812 206.867188 446.035156 202.578125 436.769531 L 202.964844 439.726562 C 213.140625 397.386719 252.632812 364.433594 295.863281 360.691406 C 317.421875 358.824219 340.457031 364.398438 356.769531 379.195312 C 364.777344 386.46875 370.628906 395.796875 372.546875 406.535156 C 374.640625 418.265625 371.761719 430.21875 366.988281 440.941406 C 356.652344 464.144531 339.257812 483.363281 329.355469 506.816406 C 319.710938 529.671875 316.90625 555.710938 328.210938 578.511719 C 337.8125 597.875 357.339844 611.5 379.445312 609.242188 C 389.429688 608.222656 399.171875 604.363281 406.46875 597.328125 C 410.542969 593.402344 413.074219 589.246094 414.441406 583.761719 C 416.003906 577.472656 416.839844 570.964844 416.996094 564.484375 C 418.371094 507.703125 374.59375 463.195312 361.839844 410.054688 C 358.65625 396.785156 357.421875 382.804688 360.054688 369.320312 C 362.464844 357 367.933594 345.664062 375.523438 335.707031 C 390.175781 316.480469 411.476562 301.535156 432.207031 289.519531 C 443.636719 282.894531 456.484375 276.949219 469.949219 276.90625 C 481.242188 276.867188 491.660156 281.671875 498.855469 290.363281 C 512.503906 306.851562 513.085938 330.851562 508.871094 350.792969 C 503.472656 376.347656 491.261719 401.492188 492.457031 428.097656 C 493.316406 447.339844 501.078125 468.429688 517.980469 479.152344 C 536.914062 491.160156 560.011719 483.964844 574.398438 468.390625 C 592.527344 448.753906 594.480469 422.132812 591.042969 396.761719 C 587.371094 369.671875 578.117188 342.828125 581.023438 315.179688 C 582.25 303.488281 585.941406 291.226562 593.824219 282.25 C 600.488281 274.660156 609.464844 269.089844 619.335938 266.84375 C 628.335938 264.789062 638.089844 266.054688 645.457031 271.902344 L 644.472656 268.171875 C 638.234375 311.394531 646.628906 356.082031 668.070312 394.144531 C 674.148438 404.929688 681.296875 415.070312 689.296875 424.511719 C 690.976562 426.492188 694.074219 425.648438 695.320312 423.734375 C 721.433594 383.503906 740.070312 331.957031 716.410156 286.207031 C 706.953125 267.917969 690.679688 252.078125 670.398438 246.71875 C 652.09375 241.878906 631.527344 246.5 616.449219 257.773438 C 608.207031 263.933594 601.59375 271.980469 597.910156 281.644531 C 596.492188 285.363281 593.519531 293.09375 595.9375 296.710938 C 596.859375 298.097656 598.785156 299.015625 600.117188 300.003906 L 605.085938 303.695312 L 615.644531 311.535156 C 617.246094 312.722656 620.027344 311.851562 620.886719 310.15625 C 634.257812 283.882812 625.515625 252.785156 606.648438 231.621094 C 584.441406 206.707031 550.273438 200.085938 518.4375 205.882812 C 498.652344 209.484375 479.777344 217.617188 462.824219 228.320312 L 466.691406 234.941406 C 481.789062 223.960938 485.488281 202.210938 476.765625 186.007812 C 467.484375 168.765625 446.144531 165.121094 429.484375 173.402344 C 420.226562 178.003906 412.933594 186.277344 410.402344 196.382812 L 417.796875 198.425781 C 421.640625 174.195312 400.011719 153.902344 377.039062 151.640625 C 351.117188 149.089844 328.179688 167.902344 314.011719 187.6875 C 312.707031 189.515625 313.875 191.773438 315.390625 192.933594 C 323.078125 198.820312 335.175781 195.800781 339.503906 187.253906 C 340.53125 185.230469 339.863281 183.328125 338.128906 182.007812 C 317.511719 166.273438 289.78125 160.960938 264.65625 167.050781 C 239.535156 173.140625 219.355469 190.660156 208.519531 213.5 C 202.425781 226.347656 199.34375 240.441406 199.992188 254.671875 C 200.195312 259.027344 206.136719 259.824219 207.523438 255.6875 C 213.828125 236.816406 198.460938 216.488281 179.484375 214.152344 C 158.035156 211.515625 138.929688 228.34375 133.609375 248.257812 C 130.125 261.285156 131.582031 275.253906 136.054688 287.847656 C 136.824219 290.011719 139.496094 291.632812 141.683594 290.136719 L 153.230469 282.230469 C 155.429688 280.726562 155.625 278.21875 154.007812 276.207031 L 149.136719 270.15625 C 147.632812 268.289062 146.117188 265.65625 144.261719 264.105469 C 141.515625 261.804688 136.132812 263.386719 132.90625 263.953125 C 125.78125 265.210938 118.871094 267.757812 112.515625 271.199219 C 99.292969 278.367188 88.175781 289.777344 81.351562 303.183594 C 67.21875 330.960938 74.40625 363.632812 96.894531 384.71875 C 109.296875 396.34375 125.320312 403.640625 142.371094 404.328125 C 143.867188 404.390625 145.847656 403.105469 146.070312 401.511719 C 150.625 368.875 154.703125 332.222656 132.3125 304.800781 C 113.777344 282.101562 82.65625 280.308594 57.972656 293.648438 C 30.78125 308.347656 17.945312 337.777344 14.945312 367.394531 C 11.996094 396.550781 16.917969 427.21875 27.910156 454.324219 C 38.222656 479.761719 54.476562 503.359375 77.6875 518.582031 C 102.164062 534.632812 132.402344 538.625 160.550781 531.179688 C 189.410156 523.542969 214.046875 504.707031 229.515625 479.246094 C 245.398438 453.097656 251.703125 421.226562 247.742188 390.957031 C 243.898438 361.5625 230.390625 332.386719 206.914062 313.617188 C 184.371094 295.59375 152.6875 288.542969 125.054688 298.070312 C 118.3125 300.398438 111.96875 303.652344 106.195312 307.839844 C 103.164062 310.042969 104.140625 314.789062 108.128906 314.984375 C 156.664062 317.347656 203.675781 303.457031 251.554688 298.273438 C 289.433594 294.175781 331.007812 296.039062 364.515625 316.09375 C 397.585938 335.886719 414.902344 372.171875 416.746094 409.910156 C 418.765625 451.261719 402.402344 490.316406 379.207031 523.777344 C 366.976562 541.417969 352.722656 557.265625 338.105469 572.921875 C 324.464844 587.527344 310.921875 604.574219 311.523438 625.691406 C 312.0625 644.71875 325.441406 658.015625 343.230469 662.601562 C 360.449219 667.042969 379.226562 664.707031 396.238281 660.417969 C 468.730469 642.132812 518.601562 576.382812 542.835938 509.019531 C 549.953125 489.242188 557.414062 467.347656 575.511719 454.835938 C 583.300781 449.453125 592.628906 446.269531 602.160156 447.492188 C 611.128906 448.636719 619.382812 453.375 625.722656 459.6875 C 640.394531 474.296875 642.96875 495.535156 637.417969 514.839844 C 631.351562 535.910156 616.972656 552.90625 601 567.359375 C 593.257812 574.363281 585.089844 580.867188 576.921875 587.363281 C 574.320312 589.433594 576.488281 594.082031 579.628906 593.910156 C 623.960938 591.46875 662.949219 563.839844 685.949219 526.71875 C 697.925781 507.394531 704.816406 486.144531 707.675781 463.675781 C 709.148438 452.148438 711.019531 437.734375 723.070312 432.507812 C 727.355469 430.648438 732.820312 430.203125 736.515625 433.546875 C 740.996094 437.601562 741.066406 444.636719 740.445312 450.183594 C 738.199219 470.167969 726.476562 487.402344 713.128906 501.777344 C 698.726562 517.28125 682.164062 530.574219 667.171875 545.472656 C 651.273438 561.273438 637.777344 578.953125 630.613281 600.445312 C 622.777344 623.949219 622.308594 650.09375 629.601562 673.796875 C 631.421875 679.695312 633.824219 685.355469 636.386719 690.964844 C 639.265625 697.257812 642.402344 703.808594 643.035156 710.800781 C 643.933594 720.746094 636.5625 734.332031 624.921875 728.738281 C 619.355469 726.0625 615.40625 720.5625 612.128906 715.53125 C 608.5 709.949219 605.1875 704.15625 602.203125 698.199219 C 596.078125 685.964844 591.425781 673.007812 588.277344 659.6875 C 586.664062 652.863281 585.464844 645.957031 584.675781 638.988281 L 577.535156 640.921875 C 592.785156 668.519531 608.03125 696.121094 623.277344 723.714844 C 625.433594 727.613281 631.246094 724.910156 630.285156 720.757812 L 611.257812 638.679688 L 603.863281 640.722656 C 612.972656 679.859375 626.339844 717.886719 643.609375 754.167969 L 649.628906 749.519531 C 629.59375 728.777344 613.675781 704.257812 603.042969 677.429688 L 596.039062 680.386719 L 658.542969 772.128906 C 661.304688 776.175781 667.539062 772.644531 665.160156 768.261719 C 642.191406 725.804688 618.617188 682.027344 611.265625 633.6875 C 605.449219 595.429688 612.582031 554.824219 635.527344 523.09375 C 647.609375 506.382812 664.335938 493.222656 684.03125 486.832031 L 679.179688 483.132812 C 680.011719 495.730469 685.300781 507.40625 694.445312 516.148438 C 696.308594 517.929688 699.089844 517.449219 700.46875 515.371094 C 708.507812 503.246094 707.625 487.707031 702.703125 474.546875 C 697.203125 459.832031 686.941406 447.695312 679.613281 433.949219 C 667.445312 411.125 667.746094 383.101562 678.734375 359.851562 C 684.882812 346.839844 694.117188 335.441406 706.082031 327.371094 L 702.214844 327.371094 L 716.90625 334.3125 L 715.007812 331.003906 C 710.554688 364.800781 716.878906 399.433594 732.667969 429.613281 C 734.207031 432.5625 738.855469 431.800781 739.671875 428.699219 C 749.945312 389.75 745.992188 347.777344 729.136719 311.238281 C 713.15625 276.59375 685.003906 248.285156 651.015625 231.148438 C 631.929688 221.523438 611.3125 215.511719 590.050781 213.386719 L 592.757812 219.929688 C 610.917969 196.984375 646.121094 189.082031 670.882812 206.140625 C 694.515625 222.417969 703.066406 257.089844 685.722656 280.847656 C 677.511719 292.089844 664.550781 299.976562 650.832031 302.203125 C 635.925781 304.625 621.1875 299.09375 609.890625 289.4375 C 583.246094 266.664062 576.777344 230.824219 564.039062 199.917969 C 551.730469 170.039062 530.734375 144.65625 500.3125 132.15625 C 472.628906 120.78125 440.085938 123.832031 415.714844 141.609375 C 404.425781 149.84375 394.578125 161.152344 389.902344 174.503906 C 385.878906 185.988281 385.984375 201.71875 397.003906 209.34375 C 408.734375 217.46875 423.945312 209.453125 429.859375 198 C 437.308594 183.578125 429.527344 167.28125 419.429688 156.40625 C 382.128906 116.246094 312.242188 119.140625 273.054688 154.628906 C 268.28125 158.953125 264.0625 163.789062 260.242188 168.96875 C 258.8125 170.910156 260.285156 174.121094 262.53125 174.601562 C 278.410156 177.980469 293.261719 165.355469 296.394531 150.089844 C 299.53125 134.824219 289.570312 119.261719 276.335938 111.300781 C 259.519531 101.179688 239.117188 102.574219 220.855469 107.527344 C 205.039062 111.820312 184.636719 117.980469 176.476562 133.691406 C 169.628906 146.882812 175.707031 166.949219 192.023438 168.464844 C 195.285156 168.769531 197.148438 164.027344 194.730469 161.921875 C 168.207031 138.792969 125.972656 138.453125 100.335938 163.179688 C 88.136719 174.945312 80.503906 191.046875 78.664062 207.847656 C 78.214844 211.976562 78.152344 216.148438 78.511719 220.285156 C 78.929688 225.074219 79.578125 228.277344 83.023438 231.816406 C 88.328125 237.269531 95.65625 240.445312 103.164062 241.21875 C 109.722656 241.898438 121.589844 240.910156 124.226562 233.753906 C 127.429688 225.070312 128.664062 215.496094 128.144531 206.273438 C 127.625 197.046875 125.382812 187.976562 121.503906 179.554688 C 120.066406 176.421875 117.710938 170.242188 114.558594 168.402344 C 111.410156 166.5625 104.972656 168.402344 101.773438 169.035156 C 69.527344 175.476562 44.671875 209.128906 49.703125 241.902344 C 55.175781 277.535156 94.289062 302.78125 128.976562 294.378906 C 130.207031 294.078125 131.382812 292.953125 131.652344 291.699219 C 139.558594 255.074219 108.90625 217.285156 70.804688 221.285156 C 53.121094 223.144531 36.339844 232.53125 26.441406 247.46875 C 16.15625 262.980469 13.742188 288.957031 33.820312 297.863281 C 41.535156 301.28125 50.785156 300.617188 56.945312 294.441406 C 63.101562 288.261719 64.277344 278.40625 62.769531 269.96875 C 60.820312 259.046875 53.597656 250.117188 49.441406 240.042969 C 45.292969 230 45.441406 219.097656 48.714844 208.824219 C 55.722656 186.851562 75.230469 172.472656 94.5625 161.761719 C 113.894531 151.054688 137.664062 141.085938 160.273438 146.519531 C 180.03125 151.265625 193.878906 167.773438 200.359375 186.40625 C 206.0625 202.804688 208.726562 226.34375 195.875 240.269531 C 180.855469 256.550781 155.960938 245.8125 142.496094 233.164062 C 129.941406 221.375 122.046875 205.460938 118.761719 188.65625 C 112.074219 154.390625 125.679688 117.222656 157.292969 100.398438 C 187.382812 84.382812 228.289062 87.851562 254.144531 110.566406 C 267.722656 122.5 275.445312 139.425781 288.191406 152.117188 C 301.066406 164.9375 319.511719 170.195312 335.765625 160.097656 C 353.050781 149.363281 359.804688 128.472656 354.328125 109.246094 C 348.378906 88.34375 331.335938 73.109375 311.972656 64.535156 C 301.863281 60.058594 291.253906 57.046875 280.460938 54.746094 L 282.152344 61.152344 C 306.417969 42.292969 346.644531 49.507812 363.316406 75.179688 C 374.464844 92.34375 374.417969 114.175781 384.535156 131.894531 C 392.960938 146.664062 408.960938 158.105469 426.449219 152.136719 C 441.546875 146.984375 452.59375 132.089844 454.121094 116.351562 C 455.773438 99.347656 444.695312 83.792969 430.917969 75.007812 C 415.390625 65.113281 396.609375 63.15625 378.914062 67.410156 C 358.871094 72.222656 341.488281 83.996094 325.863281 97.007812 C 316.875 104.5 307.851562 112.675781 296.898438 117.203125 C 287.15625 121.230469 275.027344 122.488281 265.785156 116.519531 C 251.929688 107.566406 253.03125 84.019531 266.351562 75.1875 L 261.707031 74.585938 C 275.960938 87.230469 284.066406 106.628906 281.6875 125.726562 C 279.359375 144.394531 265.777344 160.558594 248.046875 166.640625 C 228.535156 173.339844 210.957031 164.769531 194.699219 154.308594 C 178.539062 143.910156 162.78125 133.152344 143.019531 131.761719 C 104.804688 129.078125 70.390625 156.53125 58.570312 191.773438 C 52.132812 210.972656 51.726562 231.890625 55.679688 251.640625 C 57.808594 262.277344 61.546875 272.300781 65.757812 282.265625 C 70.046875 292.414062 74.714844 302.707031 76.597656 313.644531 C 78.316406 323.660156 76.667969 333.625 70.554688 341.867188 C 66.035156 347.957031 59.902344 352.78125 53.96875 357.410156 C 42.460938 366.378906 28.714844 375.988281 25.90625 391.394531 C 20.816406 419.3125 50.804688 435.664062 68.164062 451.570312 C 72.769531 455.785156 77.222656 460.324219 80.539062 465.644531 C 82.074219 468.101562 83.375 470.679688 84.246094 473.449219 C 84.691406 474.863281 85.0625 476.316406 85.292969 477.78125 C 85.667969 480.195312 85.777344 480.070312 84.441406 481.730469 C 74.664062 493.871094 56.195312 496.503906 42.285156 490.691406 C 25.6875 483.761719 18.363281 464.984375 20.320312 447.9375 C 22.488281 429.066406 36.136719 414.183594 53.652344 407.777344 C 72.25 400.972656 92.382812 403.546875 109.527344 413.113281 C 128.285156 423.582031 141.167969 440.445312 150.851562 459.265625 C 160.535156 478.089844 167.894531 499.125 180.457031 516.808594 C 191.402344 532.21875 206.429688 546.136719 225.4375 550.183594 C 243.261719 553.980469 261.351562 548.214844 275.453125 537.109375 C 290.820312 525.003906 300.515625 507.425781 303.277344 488.136719 C 306.324219 466.859375 301.652344 445.320312 292.976562 425.875 C 284.394531 406.632812 268.503906 389.761719 264.382812 368.710938 C 260.621094 349.503906 272.351562 332.480469 289.621094 324.847656 C 307.714844 316.847656 327.8125 321.816406 343.398438 332.976562 C 379.128906 358.558594 379.167969 407.949219 408.925781 438.191406 C 415.648438 445.023438 423.726562 450.597656 432.867188 453.632812 C 434.765625 454.261719 437.402344 455.425781 439.421875 454.878906 C 441.296875 454.375 443.203125 452.304688 444.644531 451.0625 C 448.039062 448.140625 451.082031 444.855469 453.832031 441.324219 C 465.230469 426.683594 470.699219 408.308594 472.027344 389.984375 C 475.363281 344.035156 450.789062 302.582031 439.078125 259.546875 C 432.917969 236.902344 429.695312 212.433594 436.507812 189.542969 C 441.675781 172.175781 453.789062 156.417969 469.785156 147.746094 C 477.878906 143.359375 486.988281 141.058594 496.210938 141.621094 C 506.175781 142.230469 515.511719 146.363281 523.988281 151.390625 C 540.960938 161.449219 555.550781 175.375 574.734375 181.332031 C 591.078125 186.40625 611.050781 185.925781 622.691406 171.621094 C 634.449219 157.175781 631.636719 136.417969 623.601562 120.917969 C 604.441406 83.957031 559.175781 69.054688 520.285156 67.238281 C 496.429688 66.125 472.625 69.054688 448.992188 71.960938 L 452.824219 75.796875 C 455.226562 57.203125 477.898438 48.046875 494.148438 53.613281 C 514.601562 60.617188 524.746094 83.34375 524.96875 103.597656 C 525.125 117.9375 521.34375 131.933594 516.378906 145.277344 L 523.90625 146.292969 C 526.3125 121.757812 541.027344 99.332031 562.3125 87.03125 L 558.445312 87.03125 C 574.789062 96.203125 585.742188 112.570312 588.320312 131.101562 C 588.8125 134.617188 593.730469 134.488281 595.328125 132.015625 L 630.878906 76.960938 L 625.636719 78.335938 C 645.164062 90.71875 658.960938 110.582031 663.996094 133.125 C 664.90625 137.210938 670.089844 136.289062 671.386719 133.125 C 675.527344 123.03125 690.796875 124.585938 697.769531 130.289062 C 709.023438 139.496094 711.621094 156.164062 715.035156 169.433594 L 728.546875 221.898438 C 732.9375 238.941406 739.078125 256.617188 738.878906 274.390625 C 738.707031 289.5625 731.691406 306.761719 716.070312 311.652344 L 719.027344 318.660156 C 737.363281 304.847656 746.183594 281.902344 744.558594 259.25 C 742.886719 235.886719 730.445312 215.167969 710.230469 203.183594 C 689.347656 190.796875 662.820312 188.28125 639.792969 195.75 C 615.691406 203.566406 596.253906 222.378906 584.992188 244.792969 C 579.140625 256.4375 575.371094 268.945312 573.761719 281.871094 C 571.792969 297.644531 573.59375 313.554688 575.839844 329.191406 C 579.84375 357.074219 585.566406 386.019531 574.832031 413.167969 C 570.371094 424.453125 562.726562 434.539062 552.050781 440.539062 C 539.867188 447.386719 525.09375 448.183594 511.679688 445.050781 C 483.28125 438.421875 463.054688 414.996094 447.417969 391.832031 C 430.277344 366.445312 416.355469 338.871094 396.621094 315.289062 C 379.207031 294.464844 355.53125 276.390625 328.308594 271.40625 C 321.703125 270.195312 315.023438 269.765625 308.320312 270.195312 C 306.132812 270.335938 304.652344 271.84375 304.488281 274.03125 C 301.929688 307.824219 307.308594 342.148438 319.910156 373.601562 C 326.148438 389.183594 334.015625 404.082031 343.578125 417.882812 C 348.34375 424.753906 353.53125 431.296875 358.976562 437.636719 C 364.75 444.351562 370.71875 450.976562 375.226562 458.640625 C 382.730469 471.378906 385.660156 492.347656 370.332031 500.871094 L 375.574219 502.246094 C 349.523438 465.921875 331.035156 424.511719 321.367188 380.859375 C 316.445312 358.625 314.277344 336.195312 313.652344 313.464844 C 313.085938 293.066406 311.957031 270.164062 297.082031 254.523438 C 285.027344 241.847656 264.644531 235.164062 249.625 246.855469 C 234.097656 258.9375 233.523438 281.039062 239.574219 298.140625 C 243.476562 309.152344 249.441406 319.3125 255.03125 329.519531 L 273.890625 363.976562 L 310.851562 431.503906 C 316.015625 440.929688 322.269531 450.308594 325.429688 460.664062 C 327.390625 467.085938 329.433594 477.136719 323.230469 482.003906 C 315.019531 488.445312 305.585938 479.601562 300.765625 473.25 C 294.003906 464.332031 289.570312 453.238281 285.03125 443.085938 C 265.59375 399.617188 253.511719 352.742188 247.445312 305.574219 C 241.914062 262.574219 242.59375 213.515625 275.410156 180.886719 C 288.648438 167.722656 306.238281 158.726562 325.183594 158.914062 C 344.285156 159.101562 361.886719 168.488281 375.449219 181.480469 C 408.226562 212.886719 414.113281 258.980469 419.449219 301.816406 C 424.421875 341.738281 430.65625 384.097656 457.046875 416.234375 C 462.921875 423.390625 469.773438 429.605469 477.390625 434.871094 C 479.210938 436.132812 481.492188 435.066406 482.632812 433.496094 C 503.523438 404.742188 508.632812 368.492188 508.3125 333.773438 C 507.964844 296.058594 501.070312 258.644531 502.675781 220.871094 C 503.585938 199.417969 507.460938 177.984375 516.878906 158.539062 L 510.855469 159.3125 C 530.214844 178.988281 531.519531 208.902344 527.867188 234.738281 C 523.371094 266.566406 512.542969 297.496094 501.609375 327.585938 C 480.515625 385.664062 456.386719 444.261719 458.371094 507.242188 C 459.378906 539.246094 467.425781 571.148438 485.5625 597.851562 L 486.9375 592.605469 C 476.039062 600.753906 461.269531 600.554688 449.445312 594.386719 C 436.792969 587.78125 428.660156 574.945312 424.335938 561.691406 C 415.785156 535.476562 419.359375 505.917969 431.695312 481.503906 C 438.6875 467.664062 448.433594 455.507812 460.484375 445.753906 L 455.835938 446.355469 C 480.652344 459.421875 486.867188 493.769531 474.992188 517.707031 C 460.824219 546.265625 426.949219 559.585938 396.617188 559.921875 C 376.699219 560.144531 357.125 555.738281 338.265625 549.628906 C 319.511719 543.554688 301.621094 534.917969 282.726562 529.316406 C 266.449219 524.492188 248.925781 522.855469 232.890625 529.417969 C 219.148438 535.042969 208.113281 546.359375 205.902344 561.441406 C 203.339844 578.945312 211.894531 596.820312 224.699219 608.445312 C 239.421875 621.808594 258.511719 628.554688 276.980469 634.9375 L 276.066406 627.929688 C 256.558594 640.664062 231.898438 635.195312 213.789062 622.554688 C 192.273438 607.539062 182.347656 582.183594 177.589844 557.261719 C 174.636719 541.792969 173.527344 526.054688 172.480469 510.363281 C 172.261719 507.144531 168.394531 505.183594 165.9375 507.652344 C 145.277344 528.417969 141.964844 563.507812 158.757812 587.617188 L 162.066406 581.847656 C 150.597656 582.640625 142.648438 574.660156 137.277344 565.34375 C 130.925781 554.3125 128.164062 541.953125 125.367188 529.667969 C 117.894531 496.835938 111.097656 463.75 107.550781 430.234375 C 104.074219 397.378906 103.636719 363.925781 109.078125 331.253906 C 113.675781 303.675781 122.207031 275.183594 140.527344 253.441406 C 157.328125 233.503906 182.929688 220.914062 209.367188 224.496094 C 221.902344 226.199219 233.203125 231.984375 241.847656 241.214844 C 250.496094 250.449219 256.621094 262.136719 263.785156 272.71875 C 270.921875 283.253906 279.429688 293.214844 291.140625 298.757812 C 302.679688 304.21875 315.800781 305.695312 328.292969 303.078125 C 353.449219 297.792969 371.269531 274.464844 371.832031 249.054688 C 372.40625 222.992188 353.722656 202.40625 332.859375 189.402344 C 308.988281 174.515625 280.9375 168.648438 256.414062 155.078125 C 250.128906 151.597656 244.15625 147.625 238.699219 142.941406 L 239.683594 146.671875 C 250.546875 107.234375 298.902344 92.269531 334.773438 103.703125 C 381.03125 118.445312 408.859375 163.089844 427.882812 204.847656 C 438.984375 229.21875 448.328125 254.382812 460.347656 278.335938 C 470.972656 299.507812 484.917969 321.011719 506.84375 331.777344 C 526.457031 341.410156 548.628906 340.832031 566.265625 327.445312 C 580.976562 316.28125 590.921875 300.285156 605.035156 288.503906 C 611.675781 282.960938 619.726562 278.582031 628.5 277.996094 C 639.589844 277.257812 650.285156 282.128906 658.289062 289.605469 C 676.964844 307.070312 678.046875 335.082031 674.082031 358.71875 C 666.535156 403.675781 641.457031 442.738281 617.59375 480.628906 C 605.304688 500.140625 593.011719 519.714844 582.753906 540.398438 C 577.746094 550.5 573.230469 560.859375 569.464844 571.492188 C 565.148438 583.675781 561.867188 596.289062 556.496094 608.082031 C 551.515625 619.027344 544.703125 629.195312 534.550781 635.945312 C 525.914062 641.695312 514.128906 645.414062 504.085938 641.070312 C 488.449219 634.308594 481.453125 607.542969 501.957031 602.191406 C 511.484375 599.703125 521.976562 602.898438 531.351562 604.703125 C 541.21875 606.609375 551.667969 608.246094 561.507812 605.265625 C 580.335938 599.570312 589.929688 580.355469 594.84375 562.71875 C 597.929688 551.648438 599.371094 540.203125 600.84375 528.832031 C 602.722656 514.335938 604.136719 499.785156 605.085938 485.199219 C 606.953125 456.546875 607.019531 427.769531 605.285156 399.105469 C 604.433594 385.03125 603.136719 370.984375 601.433594 356.984375 C 600.84375 352.148438 593.171875 352.089844 593.769531 356.984375 C 601.03125 416.699219 600.617188 477.394531 592.070312 536.957031 C 589.304688 556.21875 585.300781 580.886719 568.472656 593.308594 C 550.242188 606.765625 527.691406 593.09375 507.6875 593.738281 C 498.371094 594.035156 488.917969 598.058594 484.238281 606.546875 C 479.914062 614.382812 480.863281 623.816406 484.546875 631.691406 C 488.230469 639.5625 495.777344 646.878906 504.628906 649.355469 C 515.367188 652.355469 527.039062 649.464844 536.394531 643.84375 C 559.078125 630.222656 566.628906 604.292969 574.425781 580.679688 C 582.023438 557.664062 592.902344 536.171875 605.210938 515.34375 C 629.074219 474.945312 657.816406 436.644531 673.382812 391.941406 C 681.296875 369.21875 686.386719 343.890625 682.113281 319.90625 C 678.050781 297.089844 662.140625 274.972656 638.097656 270.890625 C 617.800781 267.441406 601.648438 279.691406 588.640625 293.753906 C 576.015625 307.40625 563.789062 325.085938 544.683594 329.757812 C 519.242188 335.984375 495.367188 318.59375 481.347656 298.921875 C 465.648438 276.902344 455.878906 250.785156 445.417969 226.03125 C 426.207031 180.585938 403.679688 132.273438 359.261719 106.332031 C 340.519531 95.382812 319.140625 89.929688 297.496094 92.914062 C 277.976562 95.609375 258.621094 104.625 245.640625 119.730469 C 239.40625 126.980469 234.84375 135.394531 232.300781 144.625 C 231.960938 145.863281 232.273438 147.484375 233.285156 148.355469 C 255.550781 167.453125 284.066406 174.484375 310.304688 186.171875 C 333.089844 196.324219 357.820312 212.761719 363.273438 238.886719 C 368.730469 265.011719 350.546875 291.46875 324.535156 296.007812 C 311.582031 298.269531 297.59375 295.210938 286.996094 287.363281 C 276.402344 279.515625 269.703125 267.9375 262.84375 257.082031 C 256.027344 246.300781 248.796875 235.601562 238.414062 227.933594 C 228.402344 220.535156 216.03125 216.878906 203.679688 216.335938 C 177.386719 215.171875 152.371094 227.78125 135.503906 247.542969 C 117.507812 268.621094 107.996094 295.652344 102.875 322.550781 C 96.632812 355.300781 96.121094 388.847656 99.082031 421.984375 C 102.070312 455.480469 108.382812 488.582031 115.65625 521.378906 C 118.636719 534.8125 121.179688 548.484375 126.671875 561.171875 C 130.933594 571.019531 137.277344 581.339844 147.117188 586.433594 C 151.761719 588.835938 156.851562 589.871094 162.0625 589.507812 C 164.714844 589.324219 167.160156 586.304688 165.371094 583.738281 C 150.511719 562.410156 152.957031 531.558594 171.351562 513.070312 L 164.808594 510.363281 C 166.789062 539.988281 169.050781 570.878906 182.847656 597.757812 C 194.4375 620.328125 215.863281 638.203125 241.375 642.140625 C 254.800781 644.210938 268.453125 642.039062 279.929688 634.550781 C 282.773438 632.691406 282.164062 628.632812 279.011719 627.539062 C 262.25 621.746094 244.652344 615.757812 231.078125 603.882812 C 219.472656 593.730469 210.722656 577.621094 213.554688 561.796875 C 216.386719 545.984375 230.628906 536.566406 245.492188 533.625 C 263.539062 530.050781 281.875 536.503906 298.496094 542.96875 C 333.792969 556.695312 370.9375 571.523438 409.609375 566.710938 C 439.171875 563.03125 470.382812 547.402344 482.871094 518.847656 C 494.78125 491.59375 487.425781 454.332031 459.703125 439.734375 C 458.050781 438.863281 456.449219 439.210938 455.058594 440.335938 C 431.175781 459.675781 416.164062 488.570312 412.734375 519 C 409.492188 547.726562 416.988281 584.628906 444.058594 600.1875 C 458.253906 608.347656 477.300781 609.328125 490.796875 599.234375 C 492.367188 598.0625 493.441406 595.855469 492.175781 593.988281 C 458.746094 544.777344 461.722656 480.90625 476.261719 425.699219 C 484.699219 393.652344 496.921875 362.769531 508.253906 331.679688 C 519.34375 301.265625 530.296875 270.101562 535.082031 237.957031 C 539.394531 209 538.003906 175.984375 516.269531 153.898438 C 514.640625 152.246094 511.332031 152.433594 510.246094 154.675781 C 476.378906 224.609375 510.390625 302.675781 497.683594 375.839844 C 494.324219 395.183594 487.59375 413.675781 476 429.628906 L 481.242188 428.25 C 447.054688 404.597656 435.441406 361.078125 429.777344 322.148438 C 423.328125 277.792969 422.023438 229.246094 394.441406 191.691406 C 383.160156 176.335938 368.445312 163.328125 350.585938 156.261719 C 332.84375 149.246094 313.25 149.832031 295.832031 157.492188 C 278.417969 165.152344 264.171875 179.214844 254.425781 195.351562 C 242.878906 214.46875 238.160156 236.925781 237.234375 259.039062 C 236.222656 283.03125 239.46875 307.128906 243.566406 330.722656 C 247.703125 354.558594 253.386719 378.140625 260.832031 401.164062 C 268.21875 423.996094 277.328125 446.335938 288.351562 467.65625 C 292.820312 476.296875 299.128906 485.464844 308.183594 489.753906 C 315.894531 493.410156 325.234375 492.113281 330.722656 485.226562 C 335.773438 478.886719 335.527344 470.140625 333.867188 462.621094 C 331.738281 452.960938 326.6875 444.488281 321.992188 435.90625 L 283.898438 366.3125 L 265.035156 331.859375 C 259.097656 321.003906 252.441406 310.226562 247.917969 298.671875 C 244.132812 289.011719 242.023438 278.550781 244.742188 268.335938 C 247.113281 259.417969 253.070312 251.273438 262.382812 248.972656 C 271.101562 246.824219 280.300781 250.441406 287.125 255.808594 C 295.472656 262.375 300.230469 271.597656 302.765625 281.761719 C 305.578125 293.015625 305.734375 304.707031 306.050781 316.238281 C 306.363281 327.765625 307.058594 339.230469 308.464844 350.667969 C 313.976562 395.542969 328.453125 439.207031 351.035156 478.386719 C 356.539062 487.929688 362.53125 497.179688 368.945312 506.132812 C 370.171875 507.84375 372.238281 508.59375 374.1875 507.507812 C 387 500.390625 390.820312 484.714844 388.328125 471.097656 C 385.199219 453.992188 371.648438 441.023438 360.980469 428.222656 C 338.398438 401.125 323.003906 368.214844 315.886719 333.703125 C 311.84375 314.089844 310.625 294.007812 312.136719 274.042969 L 308.300781 277.875 C 336.070312 276.089844 361.53125 290.476562 380.816406 309.441406 C 401.789062 330.074219 415.917969 356.386719 431.355469 381.125 C 446.019531 404.628906 462.554688 428.761719 486.871094 443.183594 C 508.859375 456.226562 539.136719 459.792969 560.789062 444.035156 C 580.339844 429.8125 587.789062 405.101562 588.695312 381.871094 C 589.902344 351.152344 579.328125 321.261719 580.691406 290.507812 C 581.8125 265.152344 592.496094 240.027344 610.765625 222.285156 C 628.585938 204.988281 653.011719 196.628906 677.6875 199.964844 C 700.566406 203.058594 722.316406 216.429688 731.734375 238.070312 C 740.375 257.933594 738.648438 282.5625 726.261719 300.476562 C 723.21875 304.878906 719.417969 308.832031 715.144531 312.050781 C 711.945312 314.460938 713.601562 320.46875 718.101562 319.058594 C 733.050781 314.375 742.773438 300.222656 745.511719 285.226562 C 749.203125 265.046875 742.285156 244.535156 737.304688 225.1875 L 721.636719 164.359375 C 717.789062 149.421875 713.867188 131.074219 699.722656 122.296875 C 687.808594 114.898438 669.699219 117.164062 663.984375 131.089844 L 671.378906 131.089844 C 665.917969 106.621094 650.644531 85.117188 629.5 71.714844 C 627.695312 70.570312 625.347656 71.402344 624.257812 73.09375 L 588.703125 128.148438 L 595.710938 129.066406 C 594 116.796875 588.726562 105.347656 580.859375 95.816406 C 576.945312 91.074219 572.335938 86.929688 567.265625 83.460938 C 565.121094 81.996094 562.136719 79.382812 559.359375 80.027344 C 556.847656 80.613281 554.101562 83.03125 552.023438 84.5 C 531.757812 98.855469 518.664062 121.617188 516.242188 146.300781 C 515.792969 150.890625 522.371094 151.085938 523.773438 147.320312 C 533.210938 121.9375 537.976562 91.910156 522.554688 67.792969 C 510.230469 48.523438 487.097656 38.085938 465.511719 48.503906 C 454.554688 53.796875 446.722656 63.660156 445.160156 75.796875 C 444.917969 77.6875 447.125 79.863281 448.992188 79.632812 C 499.074219 73.460938 558.3125 66.871094 599.417969 103.0625 C 614.605469 116.433594 629.808594 140.222656 620.335938 161.042969 C 610.667969 182.289062 583.199219 178.121094 566.144531 169.6875 C 545.242188 159.355469 528.859375 140.59375 505.453125 135.285156 C 484.203125 130.464844 463.101562 139.304688 448.351562 154.652344 C 410.195312 194.363281 427.113281 252.613281 443.816406 297.980469 C 452.953125 322.800781 463.015625 348.277344 464.484375 374.976562 C 465.664062 396.398438 461.269531 419.582031 447.71875 436.769531 C 444.457031 440.90625 440.664062 444.679688 436.464844 447.863281 L 439.421875 447.472656 C 408.847656 440.261719 396.460938 407.320312 385.78125 381.445312 C 379.910156 367.21875 373.511719 353.164062 363.507812 341.304688 C 354.441406 330.554688 342.800781 321.855469 329.570312 316.96875 C 305.132812 307.941406 275.507812 316.066406 261.902344 339.171875 C 245.550781 366.945312 267.0625 394.128906 280.363281 417.828125 C 295.089844 444.0625 303.480469 478.730469 289.820312 507.183594 C 278.324219 531.136719 251.117188 549.613281 224.042969 541.917969 C 195.277344 533.742188 180.09375 503.980469 168.582031 478.90625 C 161.945312 464.449219 155.546875 449.710938 146.316406 436.664062 C 137.988281 424.902344 127.4375 414.691406 114.972656 407.382812 C 91.316406 393.511719 60.941406 391.804688 37.574219 407.367188 C 15.898438 421.800781 6.179688 449.855469 16.433594 474.269531 C 25.851562 496.691406 51.925781 507.089844 74.449219 498.042969 C 79.753906 495.910156 84.691406 492.777344 88.601562 488.570312 C 90.167969 486.886719 92.496094 484.582031 93.117188 482.316406 C 93.742188 480.050781 92.9375 476.839844 92.480469 474.621094 C 90.652344 465.730469 85.246094 458.035156 79.117188 451.539062 C 66.253906 437.902344 47.941406 428.546875 37.710938 412.53125 C 33.015625 405.171875 31.464844 396.519531 34.753906 388.234375 C 38.6875 378.316406 48.183594 371.492188 56.320312 365.1875 C 65.003906 358.464844 74.148438 351.578125 79.6875 341.859375 C 87.261719 328.570312 85.441406 313.203125 80.734375 299.28125 C 75.707031 284.394531 68.148438 270.53125 64.339844 255.210938 C 60.667969 240.4375 59.625 224.785156 62.054688 209.71875 C 66.578125 181.65625 83.175781 157.324219 109.414062 145.574219 C 121.183594 140.304688 134.65625 137.929688 147.464844 139.890625 C 161.328125 142.011719 173.207031 149.421875 184.746094 156.949219 C 196.210938 164.425781 207.960938 172.378906 221.507812 175.476562 C 234.523438 178.457031 247.996094 176.222656 259.636719 169.777344 C 283.894531 156.34375 294.601562 128.335938 287.398438 101.875 C 283.972656 89.292969 276.875 77.792969 267.128906 69.140625 C 265.90625 68.058594 263.945312 67.570312 262.480469 68.542969 C 250.082031 76.769531 245.359375 93.320312 249.960938 107.28125 C 255.699219 124.679688 273.804688 130.6875 290.644531 127.125 C 311.261719 122.765625 325.652344 105.851562 342 93.960938 C 358.347656 82.070312 378.023438 72.21875 398.839844 72.832031 C 415.683594 73.332031 433.445312 82.003906 442 96.929688 C 450.554688 111.851562 445.84375 131.027344 431.566406 140.980469 C 424.78125 145.714844 416.441406 147.601562 408.546875 144.578125 C 400.050781 141.320312 394.105469 133.773438 390.007812 125.9375 C 380.667969 108.066406 380.65625 86.453125 368.828125 69.671875 C 348.527344 40.878906 304.511719 34.109375 276.71875 55.714844 C 274.453125 57.472656 275.792969 61.5625 278.40625 62.121094 C 299.785156 66.675781 322.15625 74.230469 336.507812 91.691406 C 349.453125 107.449219 354.082031 131.1875 339.222656 147.320312 C 332.820312 154.273438 323.625 158.941406 314 157.765625 C 305.453125 156.722656 298.335938 151.628906 292.511719 145.570312 C 280.183594 132.746094 272.417969 116.128906 258.785156 104.464844 C 232.980469 82.382812 194.453125 76.996094 163.050781 89.363281 C 147.039062 95.667969 133.234375 106.367188 123.78125 120.824219 C 114.324219 135.285156 109.863281 151.976562 109.460938 168.832031 C 108.644531 203.066406 126.535156 240.796875 160.265625 253.109375 C 169.417969 256.449219 179.960938 257.460938 189.183594 253.847656 C 197.671875 250.519531 204.191406 243.867188 207.886719 235.578125 C 215.460938 218.617188 213.199219 198.011719 206.542969 181.132812 C 199.714844 163.824219 187.40625 148.542969 169.808594 141.507812 C 148.871094 133.132812 125.660156 138.757812 105.851562 147.523438 C 86.011719 156.308594 65.753906 168.394531 52.355469 185.832031 C 38.960938 203.269531 34.363281 224.554688 42.945312 244.230469 C 47.152344 253.886719 54.453125 262.878906 55.601562 273.625 C 56.480469 281.835938 53.335938 292.171875 43.519531 292.320312 C 33.703125 292.46875 26.820312 283.695312 26.164062 274.496094 C 25.457031 264.5625 29.875 254.496094 36.273438 247.066406 C 47.851562 233.609375 66.867188 226.167969 84.496094 229.289062 C 102.519531 232.480469 116.960938 246.503906 122.648438 263.671875 C 125.425781 272.070312 126.125 280.976562 124.253906 289.648438 L 126.929688 286.96875 C 103.257812 292.707031 77.515625 280.441406 64.722656 260.160156 C 50.855469 238.167969 56.375 210.664062 74.265625 192.683594 C 84.46875 182.429688 98.046875 175.808594 112.621094 175.527344 L 109.3125 173.628906 C 121.136719 191.046875 123.75 213.160156 116.390625 232.875 L 118.152344 230.582031 C 108.957031 235.84375 93.902344 234.535156 87.390625 225.230469 C 85.859375 223.035156 86.050781 219.480469 85.96875 216.875 C 85.867188 213.65625 86 210.417969 86.398438 207.21875 C 87.175781 200.996094 88.925781 194.78125 91.480469 189.058594 C 101.964844 165.605469 124.824219 151.109375 150.539062 152.183594 C 164.691406 152.769531 178.597656 157.992188 189.300781 167.328125 L 192.007812 160.785156 C 181.089844 159.769531 179.171875 144.21875 183.652344 136.535156 C 190.625 124.570312 206.199219 119.878906 218.617188 116.132812 C 233.550781 111.632812 250.238281 108.734375 265.28125 114.402344 C 276.816406 118.746094 287.871094 128.6875 289.300781 141.539062 C 290.730469 154.394531 278.605469 170.1875 264.558594 167.195312 L 266.851562 172.828125 C 297.613281 131.0625 364.335938 122.101562 405.257812 153.84375 C 416.035156 162.203125 429.925781 177.804688 423.902344 192.679688 C 421.554688 198.476562 416.125 203.746094 409.828125 204.832031 C 403.613281 205.90625 398.269531 201.882812 396.285156 196.136719 C 391.894531 183.425781 399.339844 169.121094 407.375 159.621094 C 416.566406 148.757812 428.996094 140.875 442.542969 136.636719 C 471.652344 127.527344 502.507812 136.648438 525.101562 156.378906 C 537.054688 166.820312 546.269531 179.625 553.074219 193.925781 C 560.761719 210.089844 565.589844 227.410156 571.996094 244.085938 C 582.328125 270.996094 599.378906 300.035156 628.996094 308.417969 C 655.347656 315.878906 685.035156 301.246094 697.007812 276.960938 C 709.328125 251.980469 700.503906 220.4375 679.398438 203.039062 C 658.289062 185.640625 625.785156 185.324219 602.609375 200.566406 C 596.804688 204.382812 591.632812 209.046875 587.324219 214.496094 C 585.191406 217.191406 586.574219 220.695312 590.03125 221.039062 C 625.6875 224.601562 659.851562 240.390625 686.066406 264.773438 C 713.558594 290.347656 731.058594 325.085938 736.171875 362.242188 C 739.125 383.714844 737.792969 405.691406 732.265625 426.640625 L 739.269531 425.726562 C 724.078125 396.671875 718.378906 363.464844 722.660156 330.984375 C 722.816406 329.777344 721.835938 328.179688 720.757812 327.671875 C 716.308594 325.566406 711.875 323.421875 707.40625 321.363281 C 703.222656 319.433594 701.234375 321.265625 697.835938 323.859375 C 692.46875 327.960938 687.625 332.664062 683.40625 337.945312 C 674.730469 348.808594 668.554688 361.5625 665.355469 375.097656 C 662.164062 388.625 661.890625 402.855469 664.925781 416.433594 C 668.511719 432.464844 677.667969 445.585938 686.21875 459.300781 C 695.617188 474.378906 704.929688 494.746094 693.835938 511.480469 L 699.859375 510.703125 C 692.21875 503.398438 687.535156 493.691406 686.835938 483.113281 C 686.683594 480.753906 684.5 478.601562 681.984375 479.414062 C 644.355469 491.621094 619.121094 525.238281 608.152344 562.148438 C 595.003906 606.398438 603.765625 652.5625 620.550781 694.589844 C 631.238281 721.355469 644.835938 746.796875 658.53125 772.113281 L 665.148438 768.246094 L 602.640625 676.5 C 600.367188 673.164062 593.933594 675.160156 595.636719 679.457031 C 606.773438 707.558594 623.191406 733.1875 644.195312 754.929688 C 647.375 758.21875 652.011719 754.0625 650.21875 750.28125 C 633.234375 714.601562 620.203125 677.15625 611.25 638.667969 C 610.128906 633.863281 602.742188 635.898438 603.855469 640.710938 L 622.882812 722.785156 L 629.886719 719.828125 C 614.636719 692.230469 599.394531 664.632812 584.144531 637.035156 C 582.40625 633.898438 576.5625 635.089844 577.003906 638.972656 C 580.226562 667.542969 589.792969 695.246094 605.5 719.382812 C 611.652344 728.839844 621.128906 739.828125 633.773438 737.339844 C 644.660156 735.195312 650.789062 723.34375 650.792969 713.007812 C 650.792969 699.101562 642.011719 686.929688 637.753906 674.140625 C 633.539062 661.484375 631.703125 648.160156 632.152344 634.835938 C 633.027344 609.101562 642.738281 584.9375 659.222656 565.273438 C 686.589844 532.644531 729.339844 509.429688 744.148438 467.546875 C 747.703125 457.492188 750.652344 444.652344 746.257812 434.445312 C 741.632812 423.710938 729.710938 421.144531 719.648438 425.648438 C 707.722656 430.988281 703.070312 443.285156 701.136719 455.417969 C 699.167969 467.765625 697.789062 479.84375 693.867188 491.796875 C 679.4375 535.742188 642.625 573.960938 596.679688 583.949219 C 591.054688 585.171875 585.371094 585.902344 579.625 586.21875 L 582.332031 592.761719 C 614.5625 567.113281 653.105469 533.640625 647.367188 487.664062 C 645.074219 469.269531 633.71875 451.96875 616.714844 443.980469 C 599.238281 435.765625 580.414062 440.183594 566.101562 452.46875 C 549.386719 466.808594 542.195312 488.222656 534.953125 508.289062 C 528.359375 526.566406 520.207031 544.117188 509.988281 560.664062 C 490.535156 592.160156 464.140625 620.21875 431.515625 638.179688 C 415.476562 647.011719 398.003906 653.171875 379.871094 655.875 C 363.355469 658.339844 342.429688 658.921875 329.007812 647.203125 C 311.699219 632.085938 320.179688 607.191406 331.964844 591.652344 C 338.464844 583.082031 346.246094 575.558594 353.496094 567.652344 C 360.984375 559.488281 368.183594 551.066406 374.980469 542.320312 C 400.28125 509.769531 420.550781 471.738281 424.039062 430.027344 C 427.15625 392.773438 416.765625 352.859375 389.742188 325.992188 C 361.515625 297.9375 320.59375 288.875 282 288.875 C 235.445312 288.875 190.339844 302.453125 144.171875 306.476562 C 132.175781 307.519531 120.144531 307.882812 108.113281 307.292969 L 110.046875 314.4375 C 132.210938 298.339844 162.59375 297.894531 186.796875 309.777344 C 210.996094 321.660156 228.617188 346.699219 236.226562 373.023438 C 251.804688 426.898438 230.019531 490.992188 178.238281 516.421875 C 153.933594 528.359375 125.027344 530.90625 99.539062 521.226562 C 75.800781 512.210938 57.296875 493.300781 44.765625 471.621094 C 31.804688 449.207031 24.480469 423.488281 22.425781 397.738281 C 20.171875 369.460938 23.570312 337.125 43.160156 314.992188 C 59.183594 296.890625 87.777344 285.746094 110.753906 297.09375 C 138.582031 310.839844 143.714844 345.507812 141.699219 373.230469 C 141.058594 382.007812 139.867188 390.730469 138.648438 399.445312 L 142.347656 396.632812 C 117.203125 395.613281 94.191406 377.710938 85.320312 354.375 C 76.144531 330.242188 84.515625 304.015625 103.304688 287.011719 C 113.820312 277.5 127.308594 271.371094 141.523438 270.621094 L 138.816406 269.496094 L 148.558594 281.597656 L 149.335938 275.570312 L 137.785156 283.480469 L 143.414062 285.769531 C 135.574219 263.710938 138.671875 235.078125 162.402344 224.363281 C 171.972656 220.042969 183.351562 220.464844 191.574219 227.414062 C 199.152344 233.816406 203.332031 243.941406 200.097656 253.613281 L 207.628906 254.632812 C 206.566406 231.574219 216 208.824219 232.675781 192.921875 C 249.835938 176.554688 274.066406 169.578125 297.410156 173.066406 C 310.828125 175.074219 323.445312 180.363281 334.226562 188.59375 L 332.851562 183.351562 C 330.234375 188.519531 323.738281 189.742188 319.222656 186.28125 L 320.597656 191.527344 C 332.75 174.554688 351.695312 158.75 373.683594 159.089844 C 392.390625 159.378906 413.589844 176.0625 410.371094 196.355469 C 409.617188 201.109375 416.535156 203.285156 417.761719 198.394531 C 422.253906 180.453125 446.207031 170.367188 461.933594 180.695312 C 477.460938 190.902344 477.695312 217.453125 462.796875 228.289062 C 458.890625 231.132812 462.40625 237.59375 466.660156 234.910156 C 493.609375 217.902344 527.007812 206.765625 559.023438 213.210938 C 586.074219 218.65625 608.78125 238.054688 616.960938 264.714844 C 621.175781 278.464844 620.824219 293.3125 614.238281 306.257812 L 619.480469 304.882812 C 613.273438 300.269531 607.058594 295.660156 600.851562 291.046875 L 602.75 294.355469 C 605.785156 260.910156 648.085938 244.207031 676.316406 256.910156 C 711.722656 272.84375 724.433594 315.914062 718.03125 351.667969 C 713.613281 376.316406 702.195312 399 688.671875 419.835938 L 694.691406 419.0625 C 677.058594 398.25 664.242188 373.574219 656.96875 347.296875 C 653.390625 334.378906 651.132812 321.117188 650.332031 307.730469 C 649.929688 300.980469 649.882812 294.210938 650.199219 287.457031 C 650.351562 284.292969 650.578125 281.128906 650.890625 277.976562 C 651.183594 275.019531 652.769531 270.441406 651.644531 267.6875 C 650.046875 263.769531 642.628906 261.085938 638.925781 259.910156 C 634.042969 258.359375 628.730469 257.902344 623.640625 258.402344 C 612.785156 259.46875 602.664062 264.136719 594.300781 271.054688 C 573.53125 288.242188 570.957031 317.539062 573.835938 342.582031 C 577.320312 372.917969 589.5 403.800781 583.265625 434.5625 C 578.710938 457.066406 557.699219 482.773438 532.121094 476.832031 C 510.253906 471.757812 500.519531 446.792969 500.035156 426.503906 C 499.335938 397.320312 514.492188 370.269531 518.140625 341.660156 C 520.820312 320.652344 516.523438 295.515625 500.179688 280.648438 C 478.898438 261.304688 449.75 270.320312 427.710938 283.210938 C 405.375 296.273438 382.679688 312.550781 367.425781 333.757812 C 350.503906 357.277344 347.832031 385.785156 354.75 413.417969 C 362.105469 442.808594 378 468.695312 390.855469 495.816406 C 403.40625 522.300781 414.464844 552.84375 406.847656 582.359375 C 403.984375 593.441406 391.5 599.714844 380.964844 601.335938 C 369.722656 603.058594 358.285156 600.027344 349.355469 593 C 327.71875 575.96875 324.777344 545.769531 332.269531 520.992188 C 340.542969 493.605469 360.460938 472.523438 372.535156 447.027344 C 377.945312 435.613281 381.761719 423.074219 380.683594 410.316406 C 379.699219 398.671875 375.027344 388.015625 367.445312 379.167969 C 352.164062 361.347656 327.65625 352.710938 304.644531 352.625 C 281.632812 352.539062 257.785156 360.769531 238.835938 374.585938 C 219.882812 388.402344 205.109375 407.410156 197.792969 429.652344 C 196.957031 432.1875 195.855469 434.992188 195.542969 437.65625 C 195.230469 440.316406 196.75 442.5 198.03125 444.621094 C 200.453125 448.621094 203.589844 452.222656 207.167969 455.222656 C 214.722656 461.5625 223.738281 465.621094 232.828125 469.234375 C 251.007812 476.457031 273.769531 482.277344 283.34375 501.207031 C 295.304688 524.855469 281.9375 552.777344 261.527344 566.519531 C 239.78125 581.160156 211.316406 585.042969 185.761719 581.109375 C 160.503906 577.226562 136.324219 565.539062 119.019531 546.511719 C 101.710938 527.484375 92.890625 502.492188 93.507812 477.414062 C 94.121094 452.566406 105.046875 429.5625 124.378906 413.882812 C 142.300781 399.34375 166.839844 391.691406 189.738281 396.257812 C 212.320312 400.753906 231.003906 417.074219 240.675781 437.710938 C 250.859375 459.445312 248.941406 484.472656 234.570312 503.867188 C 218.75 525.21875 191.359375 534.773438 165.660156 528.1875 C 140.453125 521.730469 122.875 500.867188 116.617188 476.132812 C 110.144531 450.5625 116.703125 424.097656 130.621094 402.152344 C 137.902344 390.675781 147.089844 380.398438 157.480469 371.652344 C 167.621094 363.113281 181.035156 355 194.863281 357.371094 C 206.898438 359.4375 216.636719 369.050781 221.179688 380.089844 C 226.714844 393.523438 224.601562 408.8125 219.4375 422.007812 C 210.8125 444.023438 190.15625 465.355469 165.484375 467.441406 C 138.59375 469.714844 120.851562 445.308594 119.449219 420.527344 C 118.574219 405.082031 122.550781 389.683594 128.179688 375.414062 C 132.675781 364.019531 139.375 353.046875 148.371094 344.652344 C 156.550781 337.019531 167.527344 331.75 178.902344 334.199219 C 190.273438 336.648438 198.34375 345.695312 202.613281 356.019531 C 213.285156 381.855469 198.523438 408.59375 186.0625 430.828125 L 190.390625 429.066406 C 174.644531 422.988281 161.1875 409.675781 156.578125 393.230469 C 152.203125 377.617188 157.285156 360.796875 169.289062 349.929688 C 181.65625 338.730469 199.421875 337.917969 212.476562 348.488281 C 223.867188 357.710938 229.636719 374.785156 219.238281 386.960938 C 210.273438 397.457031 192.199219 402.160156 181.34375 391.867188 L 182.46875 394.578125 C 180.675781 365.617188 178.554688 331.503906 200.191406 308.820312 C 209.097656 299.484375 221.320312 292.761719 234.519531 293.609375 C 245.089844 294.289062 253.632812 301.238281 258.394531 310.4375 C 263.363281 320.042969 263.679688 332.222656 255.203125 339.890625 L 261.746094 342.601562 C 261.511719 294.476562 299.832031 250.429688 347.304688 243.464844 L 344.351562 243.078125 C 358.304688 249.195312 367.167969 265.308594 363.492188 280.40625 C 359.796875 295.59375 343.53125 306.542969 328.066406 304.4375 L 330.746094 307.117188 C 326.460938 276.511719 332.285156 240.023438 361.625 223.515625 C 373.601562 216.773438 388.054688 215.640625 400.632812 221.492188 C 412.226562 226.878906 421.195312 237.707031 420.785156 250.941406 C 420.375 264.179688 411.367188 277.144531 397.859375 279.359375 L 400.8125 279.746094 L 388.792969 271.53125 L 389.566406 277.558594 C 408.875 253.289062 440.019531 240.34375 470.828125 242.421875 C 502.453125 244.550781 529.820312 264.3125 544.46875 292.046875 C 552.746094 307.722656 556.558594 325.421875 555.097656 343.101562 L 557.910156 339.40625 C 518.230469 346.445312 477.445312 321.757812 460.082031 286.402344 C 455.101562 276.257812 452.234375 265.15625 451.765625 253.859375 L 449.867188 257.171875 C 478.671875 237.199219 514.296875 228.785156 549.058594 232.539062 C 583.554688 236.261719 615.242188 252.882812 638.230469 278.804688 C 660.289062 303.683594 674.015625 336.304688 675.167969 369.625 C 676.199219 399.386719 665.5625 436.210938 635.496094 448.582031 C 599.699219 463.316406 561.511719 435.625 535.835938 413.242188 C 510.570312 391.210938 485.402344 358.949219 497.921875 323.40625 C 503.3125 308.105469 516.429688 297.835938 532.332031 295.335938 C 548.527344 292.785156 565.664062 297.609375 579.246094 306.445312 C 604.667969 322.980469 618.769531 351.597656 623.226562 380.945312 C 634.265625 453.585938 586.730469 514.699219 539.484375 563.953125 C 533.066406 570.644531 526.566406 577.25 520.050781 583.847656 L 526.453125 585.539062 C 510.773438 545.679688 534.003906 504.246094 534.738281 463.835938 C 535.03125 447.679688 532.546875 430.585938 523.859375 416.65625 C 514.671875 401.914062 499.359375 393.023438 482.148438 391.492188 C 441.832031 387.910156 412.429688 420.175781 394.390625 452.25 C 384.449219 469.929688 374.929688 489.558594 375.191406 510.320312 C 375.40625 527.746094 382.910156 546.492188 399.085938 554.839844 C 415.15625 563.140625 437.910156 560.242188 445.671875 542.113281 C 448.894531 534.582031 449.160156 525.753906 445.910156 518.179688 C 444.339844 514.515625 441.960938 511.304688 438.8125 508.851562 C 437.113281 507.523438 435.757812 506.585938 433.527344 506.832031 C 430.097656 507.199219 426.449219 508.71875 423.109375 509.605469 C 420.09375 510.410156 419.164062 515.136719 422.195312 516.613281 C 446.859375 528.601562 475.757812 526.90625 500.21875 515.226562 C 512.453125 509.386719 523.65625 500.886719 532.230469 490.351562 C 536.402344 485.222656 540.046875 479.6875 542.871094 473.703125 C 544.277344 470.726562 545.691406 467.609375 546.597656 464.433594 C 547.613281 460.859375 545.160156 457.449219 543.304688 454.460938 C 534.015625 439.515625 517.984375 429.847656 500.566406 428.109375 C 497.339844 427.789062 495.402344 432.585938 497.859375 434.65625 C 509.9375 444.839844 527.113281 447.222656 541.730469 441.332031 C 556.703125 435.292969 565.941406 421.261719 566.523438 405.222656 C 567.085938 389.660156 559.246094 373.773438 545.011719 366.703125 C 530.78125 359.628906 513.320312 360.9375 500.65625 370.015625 C 496.886719 372.71875 493.15625 375.664062 492.285156 380.386719 C 491.410156 385.105469 491.074219 390.230469 491.484375 395.167969 C 492.378906 405.925781 496.199219 416.253906 502.722656 424.863281 C 504.71875 427.496094 508.589844 427.265625 509.726562 423.949219 C 516.664062 403.730469 516.761719 381.390625 510.429688 361 C 507.277344 350.847656 502.578125 341.105469 496.363281 332.464844 C 494.960938 330.507812 493.5 327.992188 491.671875 326.410156 C 489.734375 324.734375 486.820312 325.277344 484.453125 325.429688 C 479.632812 325.742188 474.816406 326.5 470.140625 327.703125 C 450.980469 332.640625 433.90625 344.832031 422.675781 361.074219 C 411.445312 377.3125 407.375 397.601562 410.5625 417.203125 C 414.128906 439.152344 426.726562 459.292969 445.203125 471.6875 C 446.515625 472.570312 448.800781 472.308594 449.847656 471.085938 C 476.878906 439.550781 507.535156 399.390625 494.429688 355.054688 C 483.261719 317.265625 441.6875 300.40625 405.203125 302.015625 C 378.050781 303.214844 352.152344 312.335938 326.796875 321.390625 C 325.101562 321.996094 324.097656 323.292969 323.980469 325.089844 C 320.097656 387.421875 365.160156 437.867188 380.769531 495.457031 C 384.648438 509.769531 386.53125 524.566406 385.140625 539.382812 C 383.71875 554.574219 378.285156 569.214844 370.039062 582.003906 C 353.664062 607.382812 325.902344 625.414062 295.484375 627.320312 C 260.929688 629.484375 225.726562 612.773438 206.464844 583.828125 L 202.140625 589.460938 C 232.886719 596.828125 265.597656 604.457031 296.855469 595.441406 C 321.027344 588.46875 343.074219 571.351562 348.835938 545.878906 C 353.867188 523.640625 346.734375 499.890625 333.035156 482.101562 C 317.589844 462.046875 294.226562 451.429688 269.109375 450.617188 C 238.101562 449.621094 207.621094 462.832031 184.582031 483.074219 C 181.613281 485.683594 184.777344 490.425781 188.3125 489.480469 C 226.886719 479.210938 270.984375 502.515625 283.976562 540.363281 L 285.742188 536.035156 C 249.273438 557.472656 200.457031 554.578125 166.699219 529.03125 C 150.625 516.863281 133.628906 494.503906 146.355469 474.105469 C 152.894531 463.617188 165.105469 462.800781 176.257812 464.464844 C 187.410156 466.132812 198.832031 468.988281 210.550781 467.925781 C 230.96875 466.074219 251.605469 455.769531 261.648438 437.214844 C 271.007812 419.921875 270.824219 396.984375 258.351562 381.246094 C 256.738281 379.210938 255.53125 377.898438 252.941406 377.386719 C 250.5625 376.917969 248.121094 376.636719 245.691406 376.617188 C 241.109375 376.574219 236.4375 377.398438 232.128906 378.960938 C 223.222656 382.183594 215.519531 388.101562 209.699219 395.53125 C 197.394531 411.234375 194.820312 431.921875 204.347656 449.652344 C 213.429688 466.542969 231.335938 478.054688 249.953125 481.523438 C 270.476562 485.34375 291.40625 479.082031 308.152344 467.027344 C 346.746094 439.238281 358.765625 390.496094 359.117188 345.25 C 359.289062 323.519531 358.261719 300.832031 352.859375 279.683594 C 348.398438 262.226562 339.910156 244.160156 323.699219 234.816406 C 303.542969 223.199219 280.070312 229.734375 261.554688 241.371094 C 241.933594 253.699219 224.839844 271.210938 210.777344 289.5 C 183.59375 324.839844 168.59375 371.101562 182.863281 414.910156 C 189.371094 434.90625 201.921875 452.730469 219.847656 464 C 236.46875 474.449219 256.753906 479.203125 276.230469 476.398438 C 285.6875 475.039062 294.753906 471.710938 302.828125 466.609375 C 306.707031 464.152344 304.03125 458.976562 299.871094 459.601562 C 256.640625 466.070312 211.46875 455.390625 175.085938 431.347656 C 138.339844 407.074219 112.640625 368.933594 102.207031 326.277344 C 96.332031 302.277344 95.371094 277.09375 99.8125 252.761719 L 92.421875 252.761719 C 98.398438 292.484375 111.511719 330.917969 130.925781 366.078125 C 132.242188 368.460938 135.074219 368.308594 136.945312 366.855469 C 159.316406 349.476562 183.53125 329.332031 185.917969 298.996094 C 186.925781 286.226562 183.4375 272.886719 174.410156 263.515625 C 165.847656 254.628906 153.792969 250.628906 142.191406 247.484375 C 128.832031 243.859375 114.132812 241.128906 104.027344 230.875 L 104.628906 235.523438 C 117.3125 210.175781 132.070312 181.0625 161.40625 172.449219 C 174.382812 168.640625 188.050781 170.121094 198.984375 178.429688 C 209.128906 186.136719 215.886719 197.421875 223.183594 207.636719 C 230.695312 218.144531 239.023438 227.863281 250.390625 234.34375 C 262.054688 240.992188 276.007812 244.15625 289.214844 240.8125 C 310.789062 235.347656 326.988281 207.988281 314.0625 187.671875 C 300.011719 165.585938 268.71875 169.644531 251.105469 152.332031 L 250.332031 158.355469 C 271.207031 143.019531 299.914062 146.402344 321.378906 158.769531 C 345.648438 172.75 362.261719 196.59375 378.007812 219.046875 C 380.53125 222.636719 385.828125 220.4375 385.015625 216.089844 C 379.515625 186.644531 374.015625 157.207031 368.515625 127.761719 L 367.535156 131.492188 C 392.695312 107.289062 430.34375 92.273438 465.003906 102.542969 C 483.378906 107.988281 498.519531 120.441406 514.128906 131.03125 C 528.234375 140.597656 542.925781 148.316406 560.132812 149.945312 C 576.933594 151.535156 594.398438 146.542969 604.160156 132.003906 C 605.957031 129.328125 603.480469 126.554688 600.851562 126.238281 C 572.035156 122.746094 543.222656 119.257812 514.410156 115.769531 C 510.152344 115.253906 509.152344 122.527344 513.394531 123.300781 C 544.960938 129.0625 576.636719 121.59375 608.339844 123.753906 C 634.207031 125.511719 662.40625 135.242188 672.425781 161.464844 C 677.097656 173.6875 676.996094 187.292969 669.207031 198.195312 L 675.824219 202.0625 C 686.0625 182.828125 675.496094 160.246094 659.1875 148.1875 C 637.980469 132.503906 608.765625 135.835938 584.265625 138.851562 L 585.285156 146.382812 C 605.644531 137.789062 628.65625 137.40625 649.34375 145.195312 C 669.542969 152.800781 685.601562 168.632812 694.714844 188.0625 C 699.175781 197.578125 701.894531 208.0625 702.496094 218.558594 C 703.019531 227.707031 702.339844 238.042969 696.792969 245.742188 C 689.355469 256.058594 676.960938 251.933594 666.992188 248.1875 C 655.972656 244.039062 645.214844 239.214844 634.757812 233.789062 C 611.140625 221.539062 589.21875 206.230469 569.558594 188.304688 L 568.785156 194.332031 C 585.890625 185.574219 606.175781 178.34375 625.664062 181.46875 C 643.738281 184.367188 657.121094 197.097656 662.472656 214.375 C 675.011719 254.847656 646.402344 291.039062 626.429688 323.402344 C 614.175781 343.269531 603.496094 364.757812 602.355469 388.484375 C 602.1875 392.011719 606.558594 393.261719 608.898438 391.195312 C 628.847656 373.578125 640.375 347.195312 640.335938 320.613281 C 640.292969 294.273438 628.136719 269.109375 608.304688 251.921875 C 597.320312 242.402344 584.335938 235.425781 570.230469 231.847656 L 569.214844 239.378906 C 602.0625 237.777344 633.433594 258.039062 647.960938 287.167969 C 662.90625 317.144531 654.984375 352.71875 632.605469 376.730469 C 620.066406 390.183594 603.679688 399.460938 585.441406 402.277344 L 590.15625 404.957031 C 588.257812 400.390625 586.410156 395.800781 584.457031 391.257812 C 583.613281 389.28125 583.976562 388.867188 585.28125 387.089844 C 586.339844 385.636719 587.667969 384.339844 589.101562 383.257812 C 594.601562 379.089844 602.195312 377.578125 608.933594 378.839844 C 625.324219 381.914062 636.378906 397.972656 642.804688 412.136719 C 657.132812 443.71875 652.675781 482.027344 630.957031 509.105469 C 619.617188 523.246094 604.410156 534.09375 587.230469 539.894531 L 590.960938 546.304688 C 603.769531 533.125 618.035156 518.152344 620.183594 498.988281 C 621.804688 484.480469 615.605469 467.5 601.476562 461.390625 C 583.511719 453.621094 563.648438 466.75 549.640625 477.074219 C 535.027344 487.847656 522.285156 500.890625 511.785156 515.699219 C 499.863281 532.503906 491.113281 551.523438 486.105469 571.507812 C 485.4375 574.171875 487.957031 577.230469 490.820312 576.222656 C 499.867188 573.050781 509.066406 578.339844 513.769531 586.183594 C 518.898438 594.742188 517.210938 604.839844 512.0625 612.980469 C 499.296875 633.167969 473.289062 635.527344 451.722656 637.195312 L 455.03125 642.964844 L 463.863281 628.632812 C 464.855469 627.019531 464.363281 624.199219 462.488281 623.386719 C 436.390625 612.0625 408.09375 606.875 379.675781 608.570312 L 381.609375 615.714844 C 402.910156 602.050781 418.425781 580.449219 425.238281 556.109375 C 428.628906 543.988281 429.898438 531.144531 428.535156 518.621094 C 427.171875 506.09375 423.679688 493.421875 414.460938 484.789062 C 393.785156 465.417969 363.527344 482 349.261719 500.730469 C 333.691406 521.171875 328.828125 548.757812 334.386719 573.632812 C 340.953125 603.023438 360.949219 627.773438 385.359375 644.609375 L 385.359375 637.988281 C 364.570312 649.558594 341.621094 657.285156 317.992188 660.265625 C 309.371094 661.351562 295.886719 663.984375 288.761719 657.328125 C 281.261719 650.320312 287.21875 638.328125 290.050781 630.511719 C 293.359375 621.375 295.421875 612.308594 292.574219 602.742188 C 289.871094 593.644531 283.878906 585.832031 276.351562 580.171875 C 259.4375 567.460938 236.808594 569.398438 218.605469 578.199219 C 195.851562 589.210938 180.671875 610.46875 166.429688 630.519531 C 165.132812 632.34375 166.269531 634.617188 167.804688 635.761719 L 193.734375 655.1875 C 196.742188 657.445312 199.808594 653.726562 199.363281 650.859375 C 194.253906 618.066406 153.851562 609.984375 133.1875 589.792969 C 117.574219 574.542969 117.460938 552.175781 108.554688 533.386719 C 101.128906 517.714844 81.574219 501.996094 63.765625 511.128906 C 48.238281 519.09375 47.234375 541.480469 57.171875 554.125 C 69.1875 569.40625 92.585938 572.984375 110.324219 567.25 C 118.796875 564.511719 126.878906 559.484375 131.609375 551.75 C 136.777344 543.300781 136.597656 533.082031 132.738281 524.183594 C 123.335938 502.484375 99.613281 496.285156 81.542969 484.136719 C 52.023438 464.285156 41.242188 421.707031 55.296875 389.46875 C 57.082031 385.367188 59.3125 381.472656 61.832031 377.777344 L 54.691406 375.84375 C 54.507812 394.910156 59.3125 415.652344 73.46875 429.316406 C 85.542969 440.964844 104.042969 444.617188 119.539062 437.90625 C 136.289062 430.652344 142.269531 412.066406 135.402344 395.597656 C 126.882812 375.167969 106.777344 365.824219 86.59375 360.476562 C 65.859375 354.980469 44.265625 351.242188 27.464844 336.785156 C 13.34375 324.636719 5.828125 306.546875 12.867188 288.46875 C 15.71875 281.15625 21.105469 274.464844 28.515625 271.464844 C 37.730469 267.738281 47.808594 270.195312 56.398438 274.378906 C 65.832031 278.972656 74.316406 285.238281 83.332031 290.554688 C 92.710938 296.082031 102.789062 300.113281 113.578125 301.789062 C 134.550781 305.054688 156.75 300.683594 174.203125 288.347656 C 190.429688 276.886719 202.355469 259.609375 207.265625 240.34375 C 208.515625 235.441406 209.25 230.421875 209.605469 225.378906 C 209.714844 223.828125 208.34375 221.976562 206.789062 221.683594 L 164.734375 213.800781 L 167.023438 219.433594 C 175.886719 202.050781 191.191406 188.539062 209.25 181.257812 C 228.160156 173.636719 248.378906 173.277344 267.558594 180.074219 C 290.628906 188.253906 311.953125 203.457031 337.328125 203.28125 C 356.652344 203.148438 377.753906 190.925781 380.121094 170.175781 C 382.289062 151.148438 359.894531 132.230469 342.171875 143.210938 L 346.816406 149.234375 C 370.484375 130.164062 399.234375 117.652344 429.28125 113.144531 C 442.148438 111.214844 458.886719 108.867188 470.535156 116.230469 C 481.285156 123.019531 481.507812 136.773438 481.792969 148.117188 C 482.109375 160.707031 482.367188 174.386719 491.894531 183.855469 C 493.394531 185.347656 495.796875 185.277344 497.3125 183.855469 C 509.339844 172.574219 510.671875 152.285156 499.839844 139.726562 C 488.84375 126.976562 468.648438 126.25 455.792969 136.320312 C 452.402344 138.976562 456.941406 144.945312 460.441406 142.34375 C 479.738281 127.992188 502.691406 119.277344 526.707031 117.578125 L 523.996094 116.453125 C 546.378906 137.480469 551.558594 172.96875 579.539062 188.777344 C 590.140625 194.769531 603.6875 196.136719 614.957031 191.222656 C 626.230469 186.3125 632.613281 175.847656 630.542969 163.84375 C 628.464844 151.785156 618.402344 141.445312 605.617188 143.5625 L 607.660156 150.960938 C 631.039062 142.773438 654.417969 134.585938 677.796875 126.402344 L 673.46875 120.769531 C 658.351562 145.859375 651.949219 178.835938 668.175781 205.027344 C 681.964844 227.292969 709.214844 239.199219 733.609375 226.617188 C 746.09375 220.175781 755.089844 208.402344 756.621094 194.324219 C 756.753906 193.054688 755.800781 191.597656 754.71875 191.015625 C 737.253906 181.574219 719.789062 172.128906 702.320312 162.6875 L 700.386719 169.832031 C 723.25 168.328125 750.5 166.84375 766.988281 185.957031 C 773.507812 193.511719 776.585938 203.800781 772.703125 213.324219 C 769.128906 222.078125 760.90625 228.714844 751.179688 227.453125 L 752.199219 234.988281 C 764.480469 231.738281 776.347656 238.984375 783.429688 248.734375 C 792.011719 260.550781 792.8125 275.535156 791.480469 289.605469 C 788.820312 317.667969 777.605469 347.054688 791.402344 374.015625 C 792.542969 376.25 795.746094 376.445312 797.425781 374.792969 C 810.023438 362.386719 804.570312 342.824219 794.128906 330.941406 C 780.027344 314.902344 756.558594 313.480469 738.257812 304.828125 C 731.375 301.574219 719.695312 293.90625 723.703125 284.628906 C 726.21875 278.800781 734.347656 277.851562 739.785156 278.988281 C 760.140625 283.253906 756.011719 312.144531 754.5625 327.140625 L 746.378906 411.925781 C 746.023438 415.574219 750.644531 416.523438 752.917969 414.636719 C 781.507812 390.964844 794.097656 350.648438 784.464844 314.863281 C 783.671875 311.914062 780.1875 311.339844 778.0625 313.171875 C 753.847656 334.039062 724.738281 348.582031 693.585938 355.65625 L 695.625 363.050781 C 727.226562 353.511719 762.734375 369.390625 780.355469 396.554688 C 789.589844 410.789062 793.5 427.929688 790.191406 444.679688 C 786.820312 461.761719 777.164062 477.082031 764.117188 488.457031 C 749.042969 501.601562 729.320312 508.917969 709.28125 506.921875 L 711.992188 513.464844 C 745.867188 479.917969 764.640625 432.351562 762.714844 384.691406 C 762.621094 382.382812 760.3125 380.105469 757.863281 380.992188 C 736.234375 388.832031 716.558594 401.5 700.523438 418.019531 C 692.679688 426.097656 685.695312 435.078125 679.835938 444.6875 C 673.976562 454.300781 666.648438 466.308594 667.714844 477.890625 C 668.839844 490.074219 679.371094 494.558594 688.8125 499.707031 C 696.957031 504.152344 702.832031 511.171875 705.730469 520.007812 C 711.777344 538.453125 706.1875 559.953125 693.460938 574.261719 C 675.269531 594.710938 648.277344 603.894531 623.085938 612.375 L 627.800781 617.089844 C 634.53125 598.046875 647.289062 581.476562 663.972656 570.105469 L 658.730469 564.863281 L 638.292969 610.148438 C 637.335938 612.277344 637.957031 615.191406 640.585938 615.78125 C 659.503906 620.042969 673.230469 596.140625 664.804688 580.285156 C 654.847656 561.554688 628.359375 561.695312 612.738281 572.324219 C 601.773438 579.789062 594.101562 590.953125 587.980469 602.527344 C 586.007812 606.265625 590.894531 610.445312 594 607.175781 C 616.875 583.113281 640.863281 556.894531 644.324219 522.324219 C 645.839844 507.1875 642.882812 490.882812 633.6875 478.480469 C 625.816406 467.871094 613.542969 460.546875 600.484375 458.589844 C 587.613281 456.660156 574.304688 460.214844 565.296875 469.925781 C 556.050781 479.890625 552.476562 494.183594 553.753906 507.511719 C 555.203125 522.648438 562.679688 536.066406 572.617188 547.324219 C 583.125 559.242188 596.445312 567.492188 608.203125 577.957031 C 614.207031 583.304688 620.058594 589.6875 621.742188 597.804688 C 623.421875 605.917969 619.828125 613.617188 614.019531 619.140625 C 598.800781 633.613281 576.09375 629.203125 557.59375 625.402344 L 559.882812 631.035156 C 569.839844 612.144531 580.597656 591.570312 579.746094 569.570312 C 579.117188 553.386719 571.265625 536.414062 557.195312 527.710938 C 542.214844 518.449219 523.820312 522.371094 511.964844 534.769531 C 499.976562 547.308594 495.796875 565.460938 501.792969 581.816406 C 508.835938 601.023438 526.1875 614.75 545.300781 620.808594 L 545.300781 613.414062 L 475.097656 624.566406 L 479.949219 628.265625 C 481.878906 606.203125 471.5625 582.914062 452.609375 570.976562 C 434.730469 559.714844 410.945312 561.75 394.507812 574.746094 C 377.632812 588.085938 373.882812 610.921875 385.078125 629.210938 C 395.355469 646 417.460938 655.710938 435.132812 643.878906 C 452.109375 632.515625 459.617188 606.542969 445.117188 590.304688 C 444.257812 589.34375 442.609375 588.90625 441.386719 589.320312 C 429.296875 593.394531 417.960938 599.308594 407.828125 607.074219 C 402.839844 610.894531 398.019531 615.066406 393.808594 619.738281 C 390.167969 623.78125 386.550781 629.113281 387.671875 634.835938 C 390.320312 648.359375 407.207031 642.457031 415.691406 639.9375 L 460.570312 626.617188 L 456.839844 620.207031 L 434.105469 644.765625 C 433.246094 645.695312 432.621094 647.226562 433.121094 648.496094 C 442.960938 673.421875 472.480469 687.832031 498.109375 679.21875 C 500.613281 678.378906 502.15625 674.789062 499.800781 672.8125 L 455.90625 635.980469 L 454.214844 642.386719 C 467.300781 637.132812 480.390625 631.875 493.476562 626.621094 L 488.625 622.921875 C 489.605469 652.792969 510.785156 680.03125 539.539062 688.21875 C 541.785156 688.855469 544.589844 687.023438 544.390625 684.519531 L 541.488281 647.980469 L 533.957031 649 C 537.964844 674.054688 570.09375 688.367188 591.554688 675.222656 C 594.527344 673.398438 593.675781 669.335938 590.636719 668.214844 C 576.976562 663.160156 568.710938 647.453125 572 633.332031 L 567.285156 636.011719 C 588.585938 643.980469 599.234375 670.480469 590.675781 691.203125 C 589.261719 694.628906 593.664062 696.78125 596.304688 695.53125 C 607 690.492188 617.941406 684.375 624.5 674.152344 C 630.261719 665.179688 632.300781 652.394531 626.179688 643.058594 C 621.242188 635.527344 610.941406 631.429688 602.226562 634.09375 C 598.023438 635.375 593.6875 638.121094 593.347656 642.785156 C 592.945312 648.246094 593.679688 653.894531 595.246094 659.132812 C 598.800781 671.003906 606.722656 681.246094 617.414062 687.511719 L 619.347656 680.367188 C 604.613281 682.089844 590.34375 672.210938 587.085938 657.65625 C 586.449219 654.804688 582.644531 653.996094 580.679688 655.964844 L 555.664062 681.035156 C 553.667969 683.035156 554.535156 686.738281 557.355469 687.441406 C 574.324219 691.664062 588.480469 703.121094 596.261719 718.773438 C 598.167969 722.597656 604.929688 719.867188 603.269531 715.816406 C 597.929688 702.804688 587.027344 692.988281 573.28125 689.617188 L 575.957031 694.335938 C 577.382812 689.484375 578.804688 684.628906 580.226562 679.777344 L 572.832031 677.738281 C 569.070312 703.972656 592.433594 730.101562 619.300781 727.648438 C 624.261719 727.195312 624.191406 720.527344 619.300781 719.980469 C 612.699219 719.238281 604.308594 718.429688 600.203125 712.445312 C 597.128906 707.96875 597.890625 701.335938 604.253906 701.257812 C 609.300781 701.199219 613.824219 704.671875 615.238281 709.441406 C 617.464844 716.949219 614.289062 725.082031 611.40625 731.957031 C 609.5 736.503906 616.914062 738.484375 618.800781 734 Z M 618.792969 734.035156 " fill-opacity="1" fill-rule="nonzero"/></svg>
