<svg xmlns="http://www.w3.org/2000/svg" xmlns:xlink="http://www.w3.org/1999/xlink" width="1080" zoomAndPan="magnify" viewBox="0 0 810 809.999993" height="1080" preserveAspectRatio="xMidYMid meet" version="1.0"><path fill="#0047ab" d="M 604.398438 398.5625 L 518.816406 398.5625 C 515.742188 380.128906 499.679688 366.035156 480.386719 366.035156 C 461.09375 366.035156 445.027344 380.128906 441.953125 398.5625 L 205.601562 398.5625 C 202.050781 398.5625 199.167969 401.445312 199.167969 404.996094 C 199.167969 408.546875 202.050781 411.429688 205.601562 411.429688 L 441.953125 411.429688 C 445.027344 429.867188 461.085938 443.964844 480.386719 443.964844 C 499.679688 443.964844 515.746094 429.867188 518.820312 411.429688 L 604.398438 411.429688 C 607.949219 411.429688 610.828125 408.546875 610.828125 404.996094 C 610.828125 401.445312 607.949219 398.5625 604.398438 398.5625 " fill-opacity="1" fill-rule="nonzero"/><path fill="#0047ab" d="M 604.398438 543.425781 L 361.925781 543.425781 C 358.851562 524.984375 342.785156 510.890625 323.492188 510.890625 C 304.195312 510.890625 288.128906 524.984375 285.058594 543.425781 L 205.601562 543.425781 C 202.050781 543.425781 199.167969 546.304688 199.167969 549.855469 C 199.167969 553.410156 202.050781 556.289062 205.601562 556.289062 L 285.058594 556.289062 C 288.128906 574.722656 304.195312 588.820312 323.492188 588.820312 C 342.785156 588.820312 358.851562 574.722656 361.925781 556.289062 L 604.398438 556.289062 C 607.949219 556.289062 610.828125 553.410156 610.828125 549.855469 C 610.828125 546.304688 607.949219 543.425781 604.398438 543.425781 " fill-opacity="1" fill-rule="nonzero"/><path fill="#0047ab" d="M 205.601562 266.578125 L 295.722656 266.578125 C 298.796875 285.015625 314.867188 299.109375 334.160156 299.109375 C 353.449219 299.109375 369.519531 285.015625 372.59375 266.578125 L 604.398438 266.578125 C 607.949219 266.578125 610.828125 263.699219 610.828125 260.148438 C 610.828125 256.589844 607.949219 253.714844 604.398438 253.714844 L 372.59375 253.714844 C 369.519531 235.277344 353.453125 221.179688 334.160156 221.179688 C 314.863281 221.179688 298.796875 235.277344 295.722656 253.714844 L 205.601562 253.714844 C 202.050781 253.714844 199.167969 256.589844 199.167969 260.148438 C 199.167969 263.699219 202.050781 266.578125 205.601562 266.578125 " fill-opacity="1" fill-rule="nonzero"/><path fill="#0047ab" d="M 405 0.00390625 C 181.324219 0.00390625 0 181.328125 0 405 C 0 628.675781 181.324219 810 405 810 C 628.675781 810 809.996094 628.675781 809.996094 405 C 809.996094 181.328125 628.675781 0.00390625 405 0.00390625 Z M 405 19.441406 C 431.171875 19.441406 457.320312 22.074219 482.722656 27.273438 C 507.464844 32.339844 531.8125 39.894531 555.070312 49.734375 C 577.910156 59.394531 599.945312 71.351562 620.558594 85.277344 C 640.976562 99.078125 660.179688 114.917969 677.628906 132.371094 C 695.082031 149.820312 710.921875 169.023438 724.71875 189.449219 C 738.640625 210.054688 750.605469 232.089844 760.269531 254.929688 C 770.105469 278.1875 777.65625 302.527344 782.726562 327.277344 C 787.917969 352.679688 790.558594 378.828125 790.558594 405 C 790.558594 431.171875 787.917969 457.324219 782.726562 482.726562 C 777.65625 507.46875 770.105469 531.8125 760.269531 555.074219 C 750.605469 577.917969 738.640625 599.949219 724.71875 620.558594 C 710.921875 640.976562 695.082031 660.179688 677.628906 677.632812 C 660.179688 695.085938 640.976562 710.929688 620.558594 724.722656 C 599.945312 738.648438 577.910156 750.609375 555.070312 760.269531 C 531.8125 770.109375 507.464844 777.660156 482.722656 782.726562 C 457.320312 787.921875 431.171875 790.558594 405 790.558594 C 378.828125 790.558594 352.675781 787.921875 327.273438 782.726562 C 302.527344 777.660156 278.1875 770.109375 254.929688 760.269531 C 232.085938 750.609375 210.054688 738.648438 189.441406 724.722656 C 169.023438 710.929688 149.820312 695.085938 132.367188 677.632812 C 114.914062 660.179688 99.070312 640.976562 85.277344 620.558594 C 71.351562 599.949219 59.394531 577.917969 49.730469 555.074219 C 39.890625 531.8125 32.335938 507.46875 27.273438 482.726562 C 22.074219 457.324219 19.441406 431.171875 19.441406 405 C 19.441406 378.828125 22.074219 352.679688 27.273438 327.277344 C 32.335938 302.527344 39.890625 278.1875 49.730469 254.929688 C 59.394531 232.089844 71.351562 210.054688 85.277344 189.449219 C 99.070312 169.023438 114.914062 149.820312 132.367188 132.371094 C 149.820312 114.917969 169.023438 99.078125 189.441406 85.277344 C 210.054688 71.351562 232.085938 59.394531 254.929688 49.734375 C 278.1875 39.894531 302.527344 32.339844 327.273438 27.273438 C 352.675781 22.074219 378.828125 19.441406 405 19.441406 " fill-opacity="1" fill-rule="nonzero"/></svg>