<svg xmlns="http://www.w3.org/2000/svg" xmlns:xlink="http://www.w3.org/1999/xlink" width="1080" zoomAndPan="magnify" viewBox="0 0 810 809.999993" height="1080" preserveAspectRatio="xMidYMid meet" version="1.0"><defs><clipPath id="e9e70774f4"><path d="M 13.164062 567 L 257 567 L 257 810 L 13.164062 810 Z M 13.164062 567 " clip-rule="nonzero"/></clipPath><clipPath id="6593c522c2"><path d="M 553 567 L 796.914062 567 L 796.914062 810 L 553 810 Z M 553 567 " clip-rule="nonzero"/></clipPath></defs><g clip-path="url(#e9e70774f4)"><path fill="#0047ab" d="M 40.496094 594 L 229.496094 594 L 229.496094 783 L 40.496094 783 Z M 26.996094 810 L 242.996094 810 C 250.433594 810 256.496094 803.933594 256.496094 796.5 L 256.496094 580.5 C 256.496094 573.0625 250.433594 567 242.996094 567 L 26.996094 567 C 19.5625 567 13.496094 573.0625 13.496094 580.5 L 13.496094 796.5 C 13.496094 803.933594 19.5625 810 26.996094 810 " fill-opacity="1" fill-rule="nonzero"/></g><g clip-path="url(#6593c522c2)"><path fill="#0047ab" d="M 580.496094 594 L 769.496094 594 L 769.496094 783 L 580.496094 783 Z M 553.496094 580.5 L 553.496094 796.5 C 553.496094 803.933594 559.5625 810 566.996094 810 L 782.996094 810 C 790.433594 810 796.496094 803.933594 796.496094 796.5 L 796.496094 580.5 C 796.496094 573.0625 790.433594 567 782.996094 567 L 566.996094 567 C 559.5625 567 553.496094 573.0625 553.496094 580.5 " fill-opacity="1" fill-rule="nonzero"/></g><path fill="#0047ab" d="M 310.496094 594 L 499.496094 594 L 499.496094 783 L 310.496094 783 Z M 296.996094 810 L 512.996094 810 C 520.433594 810 526.496094 803.933594 526.496094 796.5 L 526.496094 580.5 C 526.496094 573.0625 520.433594 567 512.996094 567 L 296.996094 567 C 289.5625 567 283.496094 573.0625 283.496094 580.5 L 283.496094 796.5 C 283.496094 803.933594 289.5625 810 296.996094 810 " fill-opacity="1" fill-rule="nonzero"/><path fill="#0047ab" d="M 445.496094 310.5 L 634.496094 310.5 L 634.496094 499.5 L 445.496094 499.5 Z M 418.496094 297 L 418.496094 513 C 418.496094 520.433594 424.5625 526.5 431.996094 526.5 L 647.996094 526.5 C 655.433594 526.5 661.496094 520.433594 661.496094 513 L 661.496094 297 C 661.496094 289.566406 655.433594 283.5 647.996094 283.5 L 431.996094 283.5 C 424.5625 283.5 418.496094 289.566406 418.496094 297 " fill-opacity="1" fill-rule="nonzero"/><path fill="#0047ab" d="M 175.496094 310.5 L 364.496094 310.5 L 364.496094 499.5 L 175.496094 499.5 Z M 161.996094 526.5 L 377.996094 526.5 C 385.433594 526.5 391.496094 520.433594 391.496094 513 L 391.496094 297 C 391.496094 289.566406 385.433594 283.5 377.996094 283.5 L 161.996094 283.5 C 154.5625 283.5 148.496094 289.566406 148.496094 297 L 148.496094 513 C 148.496094 520.433594 154.5625 526.5 161.996094 526.5 " fill-opacity="1" fill-rule="nonzero"/><path fill="#0047ab" d="M 310.496094 27 L 499.496094 27 L 499.496094 216 L 310.496094 216 Z M 296.996094 243 L 512.996094 243 C 520.433594 243 526.496094 236.9375 526.496094 229.5 L 526.496094 13.5 C 526.496094 6.066406 520.433594 0 512.996094 0 L 296.996094 0 C 289.5625 0 283.496094 6.066406 283.496094 13.5 L 283.496094 229.5 C 283.496094 236.9375 289.5625 243 296.996094 243 " fill-opacity="1" fill-rule="nonzero"/></svg>