<svg xmlns="http://www.w3.org/2000/svg" xmlns:xlink="http://www.w3.org/1999/xlink" width="1080" zoomAndPan="magnify" viewBox="0 0 810 809.999993" height="1080" preserveAspectRatio="xMidYMid meet" version="1.0"><rect x="-81" width="972" fill="#ffffff" y="-80.999999" height="971.999992" fill-opacity="1"/><rect x="-81" width="972" fill="#ffffff" y="-80.999999" height="971.999992" fill-opacity="1"/><path fill="#a6a6a6" d="M 750.539062 311.269531 C 741.8125 320.554688 732.074219 329.15625 721.492188 336.457031 C 717.617188 339.125 713.632812 341.621094 709.542969 343.914062 C 706.765625 345.472656 703.933594 346.9375 701.058594 348.296875 C 685.699219 355.554688 669.285156 357.972656 652.796875 361.234375 C 644.183594 362.9375 635.613281 365.375 628.003906 369.886719 C 619.535156 374.90625 612.332031 382.261719 607.1875 390.628906 C 597.777344 405.941406 597.261719 424.09375 599.492188 441.421875 C 602.042969 461.238281 607.03125 480.648438 609.792969 500.4375 C 612.734375 521.492188 613.132812 543.0625 609.394531 564.046875 C 606.503906 580.28125 601.457031 596.023438 594.691406 611.027344 C 592.421875 616.058594 589.960938 620.996094 587.324219 625.851562 C 576.792969 645.226562 563.433594 663.121094 548.28125 678.941406 C 519.238281 709.25 481.921875 734.203125 440.265625 742.546875 C 425.828125 745.4375 409.511719 746.742188 395.6875 742.847656 C 381.140625 738.746094 367.648438 728.535156 354.78125 720.375 C 319.804688 698.195312 284.332031 676.820312 248.082031 656.78125 C 218.820312 640.609375 188.980469 625.609375 159.171875 610.488281 C 143.933594 602.765625 128.589844 594.972656 114.488281 585.265625 C 102.179688 576.792969 91.378906 566.421875 82.222656 554.621094 C 73.089844 542.84375 64.996094 530.027344 57.910156 516.929688 C 47.414062 497.515625 38.902344 476.300781 36.128906 454.265625 C 34.921875 444.703125 34.839844 434.773438 36.285156 425.121094 C 37.167969 419.238281 38.609375 413.457031 40.707031 407.921875 C 41.976562 404.585938 43.476562 401.339844 45.242188 398.210938 C 53.113281 384.253906 66.242188 375.933594 80.195312 368.859375 C 93.972656 361.878906 108.066406 355.589844 121.519531 347.976562 C 138.671875 338.273438 154.761719 326.792969 169.722656 313.972656 C 186.574219 299.519531 201.984375 283.441406 215.773438 266.046875 C 222.945312 257.007812 229.640625 247.621094 236.394531 238.28125 C 239.136719 234.492188 241.894531 230.703125 244.691406 226.957031 C 245.367188 226.054688 246.039062 225.152344 246.71875 224.257812 C 257.214844 210.378906 269.089844 197.566406 282.832031 186.839844 C 291.253906 180.265625 300.300781 174.550781 309.546875 169.226562 C 319.296875 163.605469 329.164062 157.976562 339.59375 153.703125 C 359.519531 145.53125 381.464844 142.867188 400.554688 154.617188 C 416.273438 164.292969 426.160156 181.757812 443.1875 189.492188 C 453.34375 194.101562 464.617188 194.695312 474.914062 190.449219 C 490.828125 183.890625 504.515625 171.636719 517.246094 160.386719 C 530.808594 148.398438 543.535156 135.484375 554.808594 121.308594 C 564.605469 108.992188 572.90625 94.789062 585.234375 84.78125 C 612.507812 62.652344 652.992188 63.152344 685.0625 72.4375 C 703.101562 77.660156 719.988281 86.140625 735.039062 97.355469 C 768.910156 123.019531 789.480469 163.976562 791.179688 206.3125 C 792.761719 245.644531 777.324219 282.765625 750.539062 311.269531 Z M 781.480469 131.59375 C 771.132812 114.097656 757.375 99.0625 741.203125 86.808594 C 710.394531 63.855469 670.09375 51.085938 631.609375 54.949219 C 614.101562 56.710938 596.550781 61.796875 582.027344 72.007812 C 567.808594 82.015625 558.691406 96.570312 548.207031 110.082031 C 537.019531 124.511719 524.34375 137.667969 510.753906 149.84375 C 502.808594 156.960938 494.65625 163.9375 485.9375 170.09375 C 482.996094 172.160156 479.996094 174.148438 476.878906 175.929688 C 475.679688 176.617188 474.460938 177.277344 473.222656 177.898438 C 472.578125 178.21875 471.925781 178.523438 471.269531 178.824219 C 471.003906 178.945312 470.921875 178.992188 470.90625 179 C 470.835938 179.027344 470.691406 179.078125 470.398438 179.191406 C 468.566406 179.878906 466.722656 180.425781 464.816406 180.851562 C 464.566406 180.90625 464.3125 180.949219 464.066406 180.992188 C 464.492188 180.933594 464.457031 180.992188 463.832031 181.027344 C 463.828125 181.027344 463.828125 181.027344 463.824219 181.027344 C 463.804688 181.03125 463.792969 181.03125 463.769531 181.03125 C 463.015625 181.074219 462.261719 181.148438 461.507812 181.164062 C 453.648438 181.332031 446.519531 178.3125 440.386719 173.523438 C 432.964844 167.730469 426.84375 160.417969 419.867188 154.121094 C 412.078125 147.105469 403.441406 141.324219 393.507812 137.835938 C 371.828125 130.226562 348.9375 135.949219 328.753906 145.199219 C 308.328125 154.5625 288.378906 166.503906 271.003906 180.769531 C 256.613281 192.582031 244.96875 206.675781 233.960938 221.339844 C 231.167969 225.058594 228.417969 228.8125 225.671875 232.574219 C 218.304688 242.671875 210.988281 252.824219 203.039062 262.492188 C 176.492188 294.808594 144.304688 322.226562 107.308594 341.835938 C 93.082031 349.378906 78.078125 355.511719 64.167969 363.640625 C 50.789062 371.457031 40.152344 381.71875 33.136719 395.203125 C 32.113281 397.15625 31.179688 399.171875 30.316406 401.257812 C 28.882812 404.726562 27.679688 408.230469 26.6875 411.761719 C 15.863281 450.324219 30.214844 492.417969 49.117188 526.28125 C 64.292969 553.46875 83.109375 578.640625 109.074219 596.324219 C 123.839844 606.378906 139.917969 614.417969 155.828125 622.460938 C 169.894531 629.570312 183.988281 636.605469 197.984375 643.84375 C 235.195312 663.089844 271.703125 683.660156 307.53125 705.367188 C 323.796875 715.222656 339.851562 725.398438 355.929688 735.550781 C 368.585938 743.542969 381.804688 752.710938 396.765625 755.652344 C 413.546875 758.953125 431.480469 757.179688 448.003906 753.351562 C 468.285156 748.65625 487.707031 740.039062 505.4375 729.222656 C 544.542969 705.359375 577.46875 670.25 598.976562 629.824219 C 599.992188 627.902344 600.992188 625.96875 601.960938 624.023438 C 604.472656 618.988281 606.8125 613.859375 608.953125 608.652344 C 614.441406 595.328125 618.644531 581.46875 621.167969 567.289062 C 625.125 545.097656 624.984375 522.6875 622.003906 500.386719 C 619.359375 480.59375 614.363281 461.199219 611.703125 441.421875 C 609.410156 424.359375 609.71875 406.410156 620.84375 392.289062 C 626.734375 384.8125 634.457031 379.210938 643.484375 376.191406 C 651.75 373.425781 660.433594 372.230469 668.976562 370.65625 C 686.246094 367.46875 702.667969 362.058594 717.828125 353.214844 C 718.796875 352.644531 719.761719 352.066406 720.722656 351.472656 C 723.699219 349.625 726.636719 347.695312 729.515625 345.675781 C 759.847656 324.46875 784.484375 294.09375 796.148438 258.859375 C 810 217.003906 803.839844 169.386719 781.480469 131.59375 " fill-opacity="1" fill-rule="nonzero"/><path fill="#545454" d="M 584.351562 612.132812 C 587.804688 611.851562 591.25 611.488281 594.691406 611.027344 C 592.421875 616.058594 589.960938 620.996094 587.324219 625.851562 C 573.03125 627.117188 558.632812 626.863281 544.480469 624.765625 C 513.707031 620.203125 487.039062 605.289062 464.28125 584.507812 C 442.851562 564.941406 424.464844 542.222656 401.542969 524.257812 C 374.777344 503.277344 342.449219 491.132812 308.371094 488.59375 C 295.664062 487.648438 282.007812 488.953125 268.816406 490.636719 C 253.96875 492.53125 239.1875 493.898438 224.199219 493.394531 C 203.839844 492.722656 183.765625 489.355469 163.757812 485.722656 C 144.46875 482.222656 125.3125 477.882812 106.785156 471.417969 C 87.851562 464.816406 69.578125 455.664062 54.003906 442.910156 C 47.457031 437.550781 41.5625 431.585938 36.285156 425.121094 C 32.816406 420.878906 29.617188 416.414062 26.6875 411.761719 C 24.390625 408.132812 22.257812 404.386719 20.28125 400.539062 C 5.085938 370.941406 0.0117188 336.675781 1.261719 303.710938 C 2.476562 271.820312 9.886719 238.910156 25.976562 211.101562 C 38.980469 188.625 58.523438 168.574219 84.585938 162.632812 C 104.65625 158.058594 125.160156 163.71875 143.574219 171.746094 C 166.871094 181.910156 188.488281 195.695312 210.488281 208.3125 C 218.253906 212.761719 226.070312 217.121094 233.960938 221.339844 C 231.167969 225.058594 228.417969 228.8125 225.671875 232.574219 C 209.246094 223.652344 193.140625 214.152344 176.929688 204.828125 C 166.542969 198.855469 156.082031 192.96875 145.277344 187.777344 C 140.449219 185.457031 135.550781 183.277344 130.550781 181.355469 C 128.144531 180.425781 125.714844 179.582031 123.269531 178.773438 C 123.148438 178.730469 123.066406 178.707031 123.007812 178.6875 C 122.917969 178.660156 122.808594 178.625 122.652344 178.585938 C 122.117188 178.425781 121.589844 178.269531 121.058594 178.117188 C 119.921875 177.796875 118.78125 177.492188 117.636719 177.207031 C 113.144531 176.09375 108.5625 175.289062 103.945312 174.921875 C 103.265625 174.871094 102.589844 174.839844 101.910156 174.796875 C 101.871094 174.789062 101.859375 174.789062 101.847656 174.789062 L 101.738281 174.789062 C 100.640625 174.78125 99.550781 174.765625 98.457031 174.796875 C 96.277344 174.859375 94.097656 175.03125 91.9375 175.320312 C 90.769531 175.472656 89.605469 175.664062 88.445312 175.882812 C 87.949219 175.980469 87.453125 176.089844 86.953125 176.191406 C 86.886719 176.207031 86.824219 176.222656 86.773438 176.230469 C 86.695312 176.253906 86.597656 176.28125 86.46875 176.316406 C 84.296875 176.933594 82.152344 177.558594 80.039062 178.359375 C 77.761719 179.222656 75.5625 180.234375 73.378906 181.308594 C 73.214844 181.394531 73.128906 181.433594 73.089844 181.445312 C 72.996094 181.503906 72.863281 181.582031 72.664062 181.691406 C 71.953125 182.101562 71.234375 182.503906 70.527344 182.925781 C 69.3125 183.65625 68.117188 184.421875 66.941406 185.21875 C 44.707031 200.292969 30.882812 226.894531 23.367188 252.695312 C 14.402344 283.441406 12.441406 316.3125 17.738281 347.894531 C 20.496094 364.355469 25.484375 380.523438 33.136719 395.203125 C 35.417969 399.582031 37.9375 403.835938 40.707031 407.921875 C 46.441406 416.375 53.246094 424.128906 61.222656 430.890625 C 90.347656 455.589844 128.84375 465.277344 165.582031 471.976562 C 184.820312 475.488281 204.242188 478.984375 223.828125 479.648438 C 238.34375 480.128906 252.707031 478.726562 267.085938 476.894531 C 280.617188 475.171875 294.019531 473.992188 307.671875 474.742188 C 325.714844 475.742188 343.683594 479.601562 360.679688 485.695312 C 390.140625 496.253906 414.707031 515.34375 436.632812 537.242188 C 455.867188 556.460938 474.679688 578.464844 497.242188 592.773438 C 523.394531 609.359375 553.734375 614.613281 584.351562 612.132812 " fill-opacity="1" fill-rule="nonzero"/><path fill="#545454" d="M 774.011719 454.734375 C 774.285156 490.902344 759.96875 525.082031 736.324219 552.160156 C 712.488281 579.449219 680.722656 599.566406 646.898438 612.101562 C 632.453125 617.453125 617.332031 621.566406 601.960938 624.023438 C 604.472656 618.988281 606.8125 613.859375 608.953125 608.652344 C 634.265625 603.550781 658.777344 593.878906 680.730469 580.503906 C 709.484375 562.988281 734.871094 538.578125 748.964844 507.617188 C 762.847656 477.117188 763.351562 442.902344 752.167969 411.480469 C 744.558594 390.101562 732.476562 370.570312 717.828125 353.214844 C 715.152344 350.039062 712.386719 346.9375 709.542969 343.914062 C 704.457031 338.488281 699.136719 333.308594 693.636719 328.378906 C 669.125 306.386719 640.570312 288.441406 609.441406 277.480469 C 601.753906 274.8125 593.890625 272.699219 585.871094 271.296875 C 579.089844 270.117188 571.945312 269.4375 565.734375 269.429688 C 551.734375 269.410156 537.914062 271.777344 524.234375 274.546875 C 508.199219 277.78125 492.230469 281.273438 476.007812 283.488281 C 434.804688 289.125 392.320312 287.828125 351.511719 279.832031 C 317.136719 273.097656 283.898438 261.378906 252.34375 246.269531 C 246.976562 243.695312 241.667969 241.027344 236.394531 238.28125 C 239.136719 234.492188 241.894531 230.703125 244.691406 226.957031 C 261.417969 235.519531 278.503906 243.332031 296.152344 249.886719 C 332.058594 263.234375 369.902344 270.917969 408.171875 272.699219 C 429.804688 273.707031 451.582031 272.757812 473.050781 269.914062 C 489.808594 267.695312 506.300781 264.101562 522.859375 260.757812 C 536.800781 257.941406 550.886719 255.539062 565.152344 255.648438 C 582.429688 255.78125 599.035156 259.289062 615.324219 264.933594 C 630.296875 270.210938 644.648438 277.152344 658.269531 285.289062 C 681.570312 299.199219 703.144531 316.375 721.492188 336.457031 C 724.238281 339.46875 726.917969 342.539062 729.515625 345.675781 C 732.589844 349.394531 735.558594 353.199219 738.414062 357.089844 C 759.085938 385.316406 773.75 419.320312 774.011719 454.734375 " fill-opacity="1" fill-rule="nonzero"/></svg>