<svg xmlns="http://www.w3.org/2000/svg" xmlns:xlink="http://www.w3.org/1999/xlink" width="1080" zoomAndPan="magnify" viewBox="0 0 810 809.999993" height="1080" preserveAspectRatio="xMidYMid meet" version="1.0"><defs><clipPath id="73340d5a3f"><path d="M 0 189 L 612 189 L 612 801.355469 L 0 801.355469 Z M 0 189 " clip-rule="nonzero"/></clipPath></defs><rect x="-81" width="972" fill="#ffffff" y="-80.999999" height="971.999992" fill-opacity="1"/><rect x="-81" width="972" fill="#ffffff" y="-80.999999" height="971.999992" fill-opacity="1"/><g clip-path="url(#73340d5a3f)"><path fill="#4d4d4d" d="M 577.320312 486.484375 L 509.917969 486.484375 C 503.160156 486.484375 496.90625 489.550781 492.753906 494.894531 C 488.710938 500.101562 487.320312 506.707031 488.933594 513.019531 C 491.695312 523.832031 496.523438 534.277344 503.277344 544.074219 C 506.078125 548.136719 507.496094 552.488281 507.496094 557.011719 C 507.496094 564.792969 503.191406 573.429688 495.980469 580.113281 C 488.015625 587.496094 477.839844 591.5625 467.335938 591.5625 C 456.828125 591.5625 446.65625 587.496094 438.6875 580.113281 C 431.476562 573.429688 427.171875 564.792969 427.171875 557.011719 C 427.171875 552.488281 428.59375 548.136719 431.394531 544.074219 C 438.148438 534.277344 442.972656 523.828125 445.734375 513.019531 C 447.347656 506.707031 445.957031 500.097656 441.914062 494.894531 C 437.761719 489.546875 431.507812 486.484375 424.75 486.484375 L 315.046875 486.484375 L 315.046875 389.890625 C 315.046875 383.136719 311.980469 376.878906 306.632812 372.726562 C 301.429688 368.683594 294.820312 367.292969 288.507812 368.90625 C 277.699219 371.667969 267.25 376.496094 257.453125 383.25 C 253.394531 386.050781 249.042969 387.46875 244.515625 387.46875 C 236.734375 387.46875 228.101562 383.164062 221.417969 375.953125 C 214.03125 367.988281 209.964844 357.8125 209.964844 347.308594 C 209.964844 336.800781 214.03125 326.628906 221.417969 318.660156 C 228.101562 311.449219 236.734375 307.144531 244.515625 307.144531 C 249.042969 307.144531 253.394531 308.566406 257.453125 311.367188 C 267.25 318.121094 277.699219 322.945312 288.507812 325.707031 C 294.824219 327.320312 301.429688 325.929688 306.632812 321.886719 C 311.980469 317.734375 315.046875 311.480469 315.046875 304.722656 L 315.046875 223.941406 C 315.046875 205.183594 299.785156 189.921875 281.027344 189.921875 L 34.292969 189.921875 C 15.535156 189.921875 0.277344 205.183594 0.277344 223.941406 L 0.277344 493.402344 C 0.101562 494.101562 0.0117188 494.832031 0.0117188 495.585938 L 0.0117188 767.234375 C 0.0117188 785.992188 15.269531 801.253906 34.027344 801.253906 L 577.320312 801.253906 C 596.078125 801.253906 611.339844 785.992188 611.339844 767.234375 L 611.339844 520.5 C 611.339844 501.742188 596.078125 486.484375 577.320312 486.484375 Z M 179.261719 513.019531 C 182.023438 523.828125 186.847656 534.277344 193.601562 544.074219 C 196.402344 548.132812 197.824219 552.488281 197.824219 557.011719 C 197.824219 564.792969 193.519531 573.425781 186.308594 580.109375 C 178.339844 587.496094 168.167969 591.5625 157.660156 591.5625 C 147.152344 591.5625 136.980469 587.496094 129.015625 580.109375 C 121.804688 573.425781 117.5 564.792969 117.5 557.011719 C 117.5 552.488281 118.917969 548.132812 121.71875 544.074219 C 128.472656 534.277344 133.300781 523.832031 136.0625 513.019531 C 136.769531 510.253906 136.898438 507.429688 136.480469 504.691406 L 178.839844 504.691406 C 178.421875 507.429688 178.550781 510.253906 179.261719 513.019531 Z M 296.570312 671.113281 C 293.832031 670.695312 291.011719 670.824219 288.242188 671.53125 C 277.433594 674.292969 266.984375 679.121094 257.1875 685.875 C 253.128906 688.675781 248.777344 690.09375 244.25 690.09375 C 236.46875 690.09375 227.835938 685.789062 221.152344 678.582031 C 213.765625 670.613281 209.699219 660.441406 209.699219 649.933594 C 209.699219 639.425781 213.765625 629.253906 221.152344 621.285156 C 227.835938 614.078125 236.46875 609.773438 244.25 609.773438 C 248.773438 609.773438 253.128906 611.191406 257.1875 613.992188 C 266.984375 620.746094 277.433594 625.574219 288.242188 628.335938 C 291.011719 629.042969 293.832031 629.171875 296.570312 628.753906 Z M 18.488281 223.941406 C 18.488281 215.222656 25.578125 208.132812 34.292969 208.132812 L 281.027344 208.132812 C 289.746094 208.132812 296.835938 215.222656 296.835938 223.941406 L 296.835938 304.722656 C 296.835938 306.273438 295.875 307.183594 295.464844 307.503906 C 294.941406 307.910156 294.089844 308.339844 293.015625 308.0625 C 284.296875 305.835938 275.8125 301.902344 267.792969 296.375 C 260.734375 291.507812 252.6875 288.933594 244.515625 288.933594 C 231.566406 288.933594 218.28125 295.257812 208.0625 306.28125 C 197.546875 317.625 191.753906 332.195312 191.753906 347.308594 C 191.753906 362.421875 197.546875 376.988281 208.0625 388.335938 C 218.28125 399.355469 231.566406 405.679688 244.515625 405.679688 C 252.6875 405.679688 260.734375 403.109375 267.792969 398.242188 C 275.8125 392.710938 284.296875 388.777344 293.015625 386.550781 C 294.089844 386.273438 294.941406 386.703125 295.464844 387.109375 C 295.875 387.429688 296.835938 388.34375 296.835938 389.890625 L 296.835938 486.480469 L 18.488281 486.480469 Z M 34.027344 783.039062 C 25.3125 783.039062 18.222656 775.949219 18.222656 767.234375 L 18.222656 504.691406 L 115.082031 504.691406 C 116.628906 504.695312 117.539062 505.652344 117.859375 506.0625 C 118.265625 506.585938 118.691406 507.4375 118.417969 508.511719 C 116.191406 517.230469 112.253906 525.714844 106.726562 533.734375 C 101.859375 540.792969 99.289062 548.839844 99.289062 557.011719 C 99.289062 569.960938 105.609375 583.246094 116.632812 593.464844 C 127.976562 603.980469 142.546875 609.773438 157.660156 609.773438 C 172.773438 609.773438 187.34375 603.980469 198.6875 593.464844 C 209.710938 583.246094 216.035156 569.960938 216.035156 557.011719 C 216.035156 548.839844 213.460938 540.789062 208.59375 533.734375 C 203.066406 525.714844 199.132812 517.230469 196.902344 508.511719 C 196.628906 507.4375 197.058594 506.585938 197.464844 506.0625 C 197.785156 505.652344 198.695312 504.691406 200.242188 504.691406 L 296.570312 504.691406 L 296.570312 607.351562 C 296.570312 608.898438 295.609375 609.8125 295.199219 610.132812 C 294.675781 610.539062 293.824219 610.964844 292.75 610.691406 C 284.03125 608.464844 275.546875 604.53125 267.527344 599 C 260.46875 594.132812 252.417969 591.5625 244.25 591.5625 C 231.300781 591.5625 218.015625 597.882812 207.796875 608.90625 C 197.28125 620.253906 191.488281 634.820312 191.488281 649.933594 C 191.488281 665.046875 197.28125 679.617188 207.796875 690.960938 C 218.015625 701.984375 231.300781 708.308594 244.25 708.308594 C 252.421875 708.308594 260.472656 705.734375 267.527344 700.867188 C 275.546875 695.339844 284.03125 691.40625 292.75 689.175781 C 293.824219 688.902344 294.675781 689.328125 295.199219 689.738281 C 295.609375 690.054688 296.566406 690.964844 296.570312 692.511719 L 296.570312 783.039062 Z M 593.128906 767.234375 C 593.128906 775.949219 586.039062 783.039062 577.324219 783.039062 L 314.78125 783.039062 L 314.78125 692.515625 C 314.78125 692.496094 314.78125 692.472656 314.78125 692.449219 L 314.78125 607.394531 C 314.78125 607.382812 314.78125 607.367188 314.78125 607.351562 L 314.78125 504.691406 L 424.753906 504.691406 C 426.300781 504.691406 427.210938 505.652344 427.53125 506.0625 C 427.9375 506.585938 428.367188 507.4375 428.09375 508.511719 C 425.863281 517.230469 421.929688 525.714844 416.402344 533.734375 C 411.535156 540.789062 408.960938 548.839844 408.960938 557.011719 C 408.960938 569.960938 415.285156 583.25 426.308594 593.464844 C 437.652344 603.980469 452.222656 609.773438 467.335938 609.773438 C 482.449219 609.773438 497.015625 603.980469 508.363281 593.464844 C 519.386719 583.246094 525.707031 569.960938 525.707031 557.011719 C 525.707031 548.839844 523.136719 540.792969 518.269531 533.734375 C 512.738281 525.714844 508.804688 517.230469 506.578125 508.511719 C 506.304688 507.4375 506.730469 506.585938 507.136719 506.0625 C 507.457031 505.652344 508.371094 504.691406 509.917969 504.691406 L 577.324219 504.691406 C 586.039062 504.691406 593.128906 511.785156 593.128906 520.5 Z M 593.128906 767.234375 " fill-opacity="1" fill-rule="nonzero"/></g><path fill="#4d4d4d" d="M 806.773438 228.703125 L 631.242188 21.386719 C 625.371094 14.449219 617.152344 10.21875 608.09375 9.464844 C 599.039062 8.714844 590.234375 11.535156 583.296875 17.40625 L 376.082031 192.855469 C 375.328125 193.472656 374.667969 194.21875 374.132812 195.078125 C 372.046875 198.433594 372.363281 202.753906 374.917969 205.769531 L 447.136719 291.066406 C 448.136719 292.25 447.992188 293.566406 447.886719 294.074219 C 447.75 294.722656 447.375 295.601562 446.378906 296.085938 C 438.285156 300.019531 429.269531 302.5 419.574219 303.460938 C 411.042969 304.308594 403.238281 307.546875 397.003906 312.824219 C 387.121094 321.191406 381.066406 334.605469 380.390625 349.621094 C 379.695312 365.070312 384.691406 379.933594 394.457031 391.46875 C 404.222656 403 418.054688 410.378906 433.410156 412.242188 C 448.335938 414.050781 462.558594 410.289062 472.441406 401.921875 C 478.679688 396.644531 483.160156 389.480469 485.398438 381.207031 C 487.945312 371.804688 491.882812 363.316406 497.097656 355.984375 C 497.738281 355.082031 498.664062 354.859375 499.324219 354.828125 C 499.851562 354.808594 501.167969 354.882812 502.167969 356.066406 L 566.546875 432.101562 C 568.347656 434.226562 570.914062 435.320312 573.5 435.320312 C 575.578125 435.320312 577.667969 434.613281 579.378906 433.164062 L 664.675781 360.945312 C 665.859375 359.945312 667.171875 360.089844 667.683594 360.195312 C 668.332031 360.332031 669.207031 360.707031 669.695312 361.703125 C 673.628906 369.796875 676.109375 378.8125 677.070312 388.507812 C 677.917969 397.039062 681.15625 404.84375 686.433594 411.078125 C 694.800781 420.960938 708.214844 427.015625 723.230469 427.691406 C 738.683594 428.386719 753.542969 423.390625 765.078125 413.625 C 776.609375 403.859375 783.988281 390.027344 785.851562 374.667969 C 787.660156 359.75 783.898438 345.523438 775.53125 335.640625 C 770.25 329.402344 763.085938 324.921875 754.8125 322.683594 C 745.414062 320.136719 736.925781 316.199219 729.59375 310.984375 C 728.691406 310.34375 728.46875 309.417969 728.4375 308.757812 C 728.417969 308.234375 728.492188 306.914062 729.675781 305.914062 L 805.710938 241.535156 C 809.546875 238.285156 810.023438 232.539062 806.773438 228.703125 Z M 717.90625 292.015625 C 712.753906 296.378906 709.960938 302.761719 710.246094 309.527344 C 710.523438 316.109375 713.730469 322.050781 719.042969 325.828125 C 728.132812 332.292969 738.570312 337.148438 750.054688 340.261719 C 754.816406 341.550781 758.710938 343.953125 761.636719 347.410156 C 766.664062 353.347656 768.957031 362.71875 767.773438 372.476562 C 766.464844 383.261719 761.328125 392.9375 753.308594 399.726562 C 745.292969 406.515625 734.902344 409.984375 724.046875 409.5 C 714.226562 409.058594 705.363281 405.25 700.335938 399.3125 C 697.410156 395.859375 695.679688 391.617188 695.195312 386.710938 C 694.019531 374.867188 690.949219 363.777344 686.074219 353.742188 C 683.222656 347.878906 677.890625 343.738281 671.445312 342.378906 C 664.820312 340.980469 658.066406 342.683594 652.910156 347.046875 L 574.5625 413.382812 L 516.066406 344.296875 C 511.90625 339.382812 505.910156 336.613281 499.5 336.613281 C 499.1875 336.613281 498.871094 336.621094 498.558594 336.636719 C 491.972656 336.914062 486.03125 340.121094 482.257812 345.429688 C 475.789062 354.523438 470.933594 364.960938 467.824219 376.445312 C 466.535156 381.207031 464.128906 385.101562 460.675781 388.027344 C 454.738281 393.050781 445.367188 395.347656 435.605469 394.164062 C 424.824219 392.855469 415.144531 387.71875 408.355469 379.699219 C 401.566406 371.683594 398.097656 361.289062 398.585938 350.4375 C 399.027344 340.617188 402.835938 331.753906 408.773438 326.726562 C 412.226562 323.800781 416.464844 322.070312 421.375 321.582031 C 433.214844 320.410156 444.308594 317.339844 454.34375 312.464844 C 460.203125 309.613281 464.347656 304.28125 465.707031 297.835938 C 467.101562 291.210938 465.402344 284.457031 461.035156 279.300781 L 394.699219 200.953125 L 595.066406 31.304688 C 598.289062 28.574219 602.382812 27.265625 606.589844 27.613281 C 610.796875 27.964844 614.617188 29.929688 617.34375 33.152344 L 786.992188 233.519531 Z M 717.90625 292.015625 " fill-opacity="1" fill-rule="nonzero"/></svg>
